<?xml version="1.0" encoding="utf-8"?>
<!-- Generator: Adobe Illustrator 23.0.3, SVG Export Plug-In . SVG Version: 6.00 Build 0)  -->
<svg version="1.1" id="Layer_1" xmlns="http://www.w3.org/2000/svg" xmlns:xlink="http://www.w3.org/1999/xlink" x="0px" y="0px"
	 viewBox="0 0 73 71.5" style="enable-background:new 0 0 73 71.5;" xml:space="preserve">
<style type="text/css">
	.st0{fill:#C15928;}
</style>
<g>
	<path class="st0" d="M14.67,24.71c0.17-0.61,0.3-1.24,0.52-1.84c0.81-2.2,2.35-3.84,4.23-5.15c3.53-2.45,7.46-3.93,11.76-3.96
		c7.77-0.05,14.06,3.09,18.79,9.27c0.72,0.94,1.3,1.97,1.97,2.99c-1.52,1.33-2.98,2.6-4.45,3.89c-0.65-1.89-1.81-2.78-3.41-2.67
		c-1.45,0.1-2.65,1.18-2.89,2.61c-0.27,1.55,0.52,2.74,2.39,3.59c-0.08,0.09-0.14,0.17-0.22,0.25c-1.5,1.44-2.99,2.88-4.5,4.3
		c-0.17,0.16-0.39,0.31-0.61,0.36c-4.23,0.94-6.58,3.66-7.45,7.81c-0.15,0.71-0.3,1.42-0.49,2.11c-0.04,0.16-0.23,0.37-0.39,0.41
		c-1.67,0.45-2.63,1.58-2.73,3.26c-0.09,1.45,0.84,2.8,2.36,3.35c3.22,1.15,6.51,1.67,9.89,0.85c3.62-0.88,6.09-3.12,7.57-6.5
		c0.1-0.23,0.23-0.45,0.27-0.69c0.18-1.03,0.86-1.73,1.55-2.45c1.55-1.62,3.06-3.27,4.59-4.91c0.14-0.15,0.31-0.28,0.55-0.49
		c-0.13,0.56-0.22,1.07-0.38,1.55c-2.74,8.55-8.46,13.96-17.19,16.01c-6.13,1.44-11.79,0.04-16.96-3.46
		c-1.9-1.28-3.42-2.94-4.24-5.14c-0.23-0.62-0.35-1.29-0.53-1.94c0-0.56,0-1.12,0-1.68c0.03-0.08,0.07-0.15,0.08-0.23
		c0.2-1.78,0.95-3.29,2.28-4.47c0.96-0.85,2.02-1.59,2.98-2.44c1.88-1.63,1.88-4.07,0.01-5.71c-0.76-0.66-1.57-1.25-2.36-1.87
		c-1.1-0.87-2-1.92-2.47-3.26c-0.23-0.65-0.35-1.33-0.52-2C14.67,25.9,14.67,25.3,14.67,24.71z M35.07,27
		c1.76-0.01,3.16-1.41,3.15-3.13c-0.01-1.73-1.43-3.13-3.17-3.12c-1.74,0.01-3.18,1.43-3.16,3.14C31.91,25.61,33.33,27.01,35.07,27z
		 M21.01,26.98c-0.01,1.71,1.4,3.12,3.14,3.14c1.72,0.02,3.16-1.38,3.18-3.1c0.02-1.74-1.38-3.15-3.16-3.17
		C22.45,23.83,21.02,25.25,21.01,26.98z M25.33,50.33c1.75-0.01,3.17-1.4,3.16-3.11c-0.01-1.76-1.42-3.15-3.19-3.14
		c-1.75,0.01-3.13,1.39-3.12,3.13C22.19,48.96,23.58,50.33,25.33,50.33z"/>
	<path class="st0" d="M47.12,44.78c-1.98-1.93-3.89-3.8-5.69-5.55c0.5-0.57,0.95-1.16,1.49-1.67c4.91-4.69,9.94-9.24,15.3-13.41
		c1.36-1.06,2.82-1.98,4.26-2.94c0.36-0.24,0.8-0.39,1.23-0.49c0.97-0.23,1.79,0.56,1.53,1.52c-0.18,0.67-0.49,1.33-0.86,1.92
		c-1.9,3.1-4.21,5.9-6.59,8.63c-3.44,3.95-6.97,7.81-10.47,11.71C47.24,44.61,47.16,44.73,47.12,44.78z"/>
	<path class="st0" d="M35.79,54.05c-1.84-0.06-3.63-0.43-5.35-1.06c-0.66-0.24-0.97-0.8-0.66-1.29c0.17-0.27,0.54-0.52,0.84-0.56
		c1.06-0.16,1.7-0.74,1.97-1.75c0.24-0.92,0.44-1.86,0.67-2.78c0.34-1.42,0.81-2.78,1.85-3.87c1.11-1.16,2.52-1.71,4.05-1.98
		c0.12-0.02,0.31,0.08,0.41,0.19c1.86,1.86,3.72,3.74,5.57,5.61c0.1,0.1,0.18,0.3,0.15,0.42c-0.81,2.94-2.38,5.26-5.33,6.42
		C38.62,53.92,37.22,54.08,35.79,54.05z"/>
</g>
</svg>
