<?xml version="1.0" encoding="utf-8"?>
<!-- Generator: Adobe Illustrator 23.0.3, SVG Export Plug-In . SVG Version: 6.00 Build 0)  -->
<svg version="1.1" id="Layer_1" xmlns="http://www.w3.org/2000/svg" xmlns:xlink="http://www.w3.org/1999/xlink" x="0px" y="0px"
	 viewBox="0 0 73 71.5" style="enable-background:new 0 0 73 71.5;" xml:space="preserve">
<style type="text/css">
	.st0{fill:#1D3B60;}
</style>
<g>
	<path class="st0" d="M17.78,21.72c0.11-1.69,0.37-3.22,1.08-4.65c0.44-0.87,1.31-1.05,2.05-0.42c0.14,0.11,0.25,0.25,0.38,0.37
		c9.88,9.88,19.76,19.76,29.64,29.64c0.99,0.99,0.99,1.57,0,2.56c-0.63,0.63-1.25,1.26-1.89,1.88c-0.78,0.76-1.42,0.77-2.15-0.02
		c-2.83-3.05-5.63-6.12-8.45-9.18c-1.91-2.07-3.82-4.14-5.76-6.18c-0.17-0.18-0.6-0.2-0.9-0.18c-0.93,0.06-1.86,0.19-2.79,0.25
		c-0.91,0.06-1.67-0.28-2.31-0.93c-2.01-2.02-4.06-3.99-6.02-6.05c-1.56-1.63-2.47-3.6-2.72-5.86C17.9,22.5,17.83,22.05,17.78,21.72
		z"/>
	<path class="st0" d="M42.61,33.51c-0.94,0.01-1.74-0.22-2.41-0.98c-0.92-1.04-1.91-2.04-2.96-2.96c-0.87-0.76-1.05-1.71-0.95-2.73
		c0.15-1.63,0.78-3.05,1.98-4.22c2.16-2.12,4.28-4.27,6.42-6.41c0.64-0.64,1.21-0.7,1.72-0.2c0.54,0.53,0.49,1.1-0.16,1.78
		c-0.11,0.11-0.22,0.22-0.32,0.32c-1.76,1.76-3.52,3.52-5.28,5.28c-0.78,0.78-0.85,1.61-0.21,2.25c0.69,0.69,1.5,0.63,2.32-0.19
		c1.89-1.88,3.78-3.77,5.66-5.66c0.4-0.41,0.87-0.57,1.37-0.34c0.49,0.23,0.77,0.69,0.62,1.26c-0.07,0.25-0.25,0.49-0.43,0.68
		c-1.84,1.86-3.71,3.7-5.54,5.57c-0.31,0.31-0.58,0.72-0.7,1.14c-0.19,0.66,0.18,1.22,0.74,1.52c0.55,0.29,1.18,0.29,1.68-0.2
		c1.86-1.84,3.71-3.69,5.56-5.54c0.18-0.18,0.36-0.36,0.56-0.52c0.59-0.45,1.08-0.43,1.55,0.06c0.42,0.44,0.39,1.05-0.09,1.55
		c-0.49,0.51-1.01,1.01-1.51,1.51c-1.74,1.74-3.48,3.49-5.23,5.23C45.84,32.82,44.19,33.51,42.61,33.51z"/>
	<path class="st0" d="M33.65,40.15c-1.19,1.18-2.21,2.2-3.24,3.22c-2.61,2.6-5.21,5.21-7.81,7.81c-0.84,0.84-1.31,0.84-2.17-0.01
		c-0.65-0.64-1.3-1.28-1.94-1.94c-0.67-0.7-0.67-1.29,0-1.96c2.92-2.93,5.85-5.86,8.79-8.77c0.18-0.18,0.55-0.22,0.83-0.24
		c0.91-0.06,1.82-0.07,2.72-0.13c0.49-0.03,0.82,0.1,1.16,0.51C32.44,39.18,33.04,39.6,33.65,40.15z"/>
</g>
</svg>
