<?xml version="1.0" encoding="utf-8"?>
<!-- Generator: Adobe Illustrator 23.0.3, SVG Export Plug-In . SVG Version: 6.00 Build 0)  -->
<svg version="1.1" id="Layer_1" xmlns="http://www.w3.org/2000/svg" xmlns:xlink="http://www.w3.org/1999/xlink" x="0px" y="0px"
	 viewBox="0 0 73 71.5" style="enable-background:new 0 0 73 71.5;" xml:space="preserve">
<style type="text/css">
	.st0{fill:#1D3B60;}
</style>
<g>
	<path class="st0" d="M17.17,44.21c0-2.38,0.01-4.76-0.01-7.13c0-0.45,0.13-0.76,0.44-1.06c2.98-2.95,5.96-5.91,8.93-8.87
		c2.14-2.13,4.27-4.26,6.4-6.39c0.79-0.79,1.59-1.58,2.36-2.39c0.32-0.34,0.57-0.3,0.88,0.01c3.02,3.02,6.04,6.04,9.06,9.06
		c2.85,2.85,5.71,5.69,8.57,8.52c0.36,0.35,0.51,0.71,0.51,1.21c-0.02,4.74-0.01,9.47-0.01,14.21c0,0.99-0.45,1.46-1.45,1.46
		c-3.48,0-6.97-0.01-10.45-0.01c-0.35,0-0.7,0.03-1.04,0.05c-0.39,0.02-0.62-0.07-0.62-0.54c0.02-3.8,0.03-7.59,0.04-11.39
		c0-0.83-0.68-1.5-1.52-1.5c-2.34-0.01-4.68-0.01-7.02,0c-0.9,0-1.53,0.69-1.53,1.6c0.01,3.39,0,6.78,0.01,10.17
		c0,0.35,0.04,0.7,0.05,1.05c0.01,0.42-0.2,0.6-0.61,0.59c-3.06-0.02-6.12-0.04-9.17-0.05c-0.85,0-1.7,0.01-2.54,0.01
		c-0.77,0-1.27-0.51-1.27-1.29C17.16,49.08,17.16,46.64,17.17,44.21C17.17,44.21,17.17,44.21,17.17,44.21z M38.23,29.01
		c0,0,0,0.01,0,0.01c0.46,0,0.92,0,1.38,0c0.47,0,0.63-0.22,0.47-0.66c-0.55-1.46-1.48-2.55-2.99-3.09c-0.56-0.2-0.77-0.09-0.77,0.5
		c-0.01,0.88,0.01,1.76,0,2.65c-0.01,0.44,0.19,0.6,0.6,0.59C37.35,29,37.79,29.01,38.23,29.01z M33.16,29.01
		c0.5,0,1,0.03,1.49-0.02c0.18-0.02,0.48-0.24,0.48-0.37c0.04-1.01,0.04-2.02,0-3.03c-0.01-0.14-0.33-0.42-0.44-0.39
		c-0.44,0.11-0.89,0.26-1.26,0.5c-0.95,0.64-1.6,1.55-2.02,2.61c-0.18,0.46-0.03,0.68,0.48,0.69
		C32.32,29.01,32.74,29.01,33.16,29.01z M23.49,39.37c-0.01,0-0.01,0-0.02,0c0-0.33,0.06-0.68-0.02-0.99
		c-0.06-0.21-0.29-0.51-0.47-0.53c-0.51-0.06-1.03-0.05-1.54,0.03c-0.62,0.09-1.08,0.28-1.11,1.13c-0.02,0.5-0.01,0.99,0,1.49
		c0,0.35,0.17,0.54,0.55,0.53c0.63-0.01,1.25,0,1.88-0.01c0.5,0,0.74-0.27,0.74-0.76C23.49,39.96,23.49,39.67,23.49,39.37z
		 M45.28,41.03c0.26,0,0.52-0.01,0.77,0c0.65,0.03,0.86-0.16,0.86-0.82c0-0.46-0.03-0.92-0.03-1.38c-0.01-0.99-0.02-1.01-1.03-0.99
		c-0.17,0-0.33,0-0.5,0c-1.22-0.01-1.7,0.51-1.61,1.72C43.85,41.02,43.85,41.02,45.28,41.03z M48.05,39.34
		C48.04,39.34,48.04,39.34,48.05,39.34c0,0.31-0.01,0.62,0,0.94c0.02,0.58,0.2,0.76,0.77,0.76c0.4,0,0.81,0,1.21,0
		c1.09,0,1.09,0.01,1.16-1.11c0.01-0.18,0.04-0.37,0.04-0.55c-0.02-1.06-0.53-1.55-1.58-1.55c-0.33,0-0.66,0.01-0.99-0.01
		c-0.43-0.03-0.61,0.17-0.61,0.58C48.05,38.72,48.05,39.03,48.05,39.34z M38.2,30.33C38.2,30.33,38.2,30.33,38.2,30.33
		c-0.46,0-0.92,0-1.38,0c-0.34,0-0.5,0.14-0.5,0.5c0.01,0.83,0,1.66,0.01,2.48c0.01,0.44,0.25,0.61,0.65,0.47
		c1.45-0.52,2.45-1.5,2.98-2.95c0.12-0.34-0.06-0.49-0.38-0.49C39.12,30.32,38.66,30.33,38.2,30.33z M24.6,39.37
		c0,0.31,0.01,0.62,0,0.94c-0.02,0.45,0.16,0.69,0.64,0.68c0.37-0.01,0.73-0.01,1.1,0c1.34,0.03,1.34,0.04,1.42-1.26
		c0-0.02,0-0.04,0.01-0.05c0.04-1.44-0.54-1.84-1.65-1.81C24.39,37.9,24.63,37.71,24.6,39.37z M35.14,32.07
		C35.15,32.07,35.15,32.07,35.14,32.07c0.01-0.4,0-0.81,0.01-1.21c0.01-0.37-0.15-0.55-0.52-0.54c-0.92,0.01-1.84,0.01-2.76,0.02
		c-0.39,0-0.5,0.18-0.35,0.53c0.58,1.39,1.51,2.41,2.98,2.88c0.43,0.14,0.62,0.02,0.64-0.45C35.16,32.88,35.14,32.48,35.14,32.07z
		 M23.46,43.79C23.45,43.79,23.45,43.79,23.46,43.79c0-0.26,0-0.52,0-0.77c0.01-0.66-0.12-0.82-0.79-0.84
		c-0.62-0.02-1.25-0.02-1.87,0.03c-0.17,0.01-0.43,0.25-0.45,0.41c-0.05,0.51-0.06,1.03,0,1.54c0.09,0.75,0.45,1.04,1.21,1.1
		c0.38,0.03,0.77,0.03,1.16,0.05c0.56,0.03,0.76-0.16,0.75-0.74C23.45,44.31,23.46,44.05,23.46,43.79z M48.04,43.75
		C48.04,43.75,48.04,43.75,48.04,43.75c0,0.28,0.04,0.56-0.01,0.83c-0.09,0.5,0.15,0.68,0.59,0.69c0.46,0.01,0.92,0.02,1.38,0
		c0.68-0.03,1.06-0.36,1.14-1.04c0.06-0.52,0.03-1.06,0.01-1.59c-0.02-0.34-0.26-0.45-0.58-0.44c-0.59,0.01-1.18,0.02-1.77,0.02
		c-0.67,0.01-0.79,0.13-0.76,0.82C48.04,43.27,48.04,43.51,48.04,43.75z M45.34,42.26c0-0.01,0-0.01,0-0.02c-0.18,0-0.37,0-0.55,0
		c-1.04-0.03-1.04-0.03-1.04,1c0,0.26-0.02,0.52,0.01,0.77c0.14,0.97,0.49,1.25,1.47,1.26c0.33,0,0.66-0.01,0.99,0.03
		c0.49,0.05,0.68-0.2,0.7-0.63c0.02-0.61,0.01-1.21,0-1.82c-0.01-0.45-0.23-0.67-0.7-0.63C45.93,42.24,45.63,42.25,45.34,42.26z
		 M24.61,43.8c0,0-0.01,0-0.01,0c0,0.29,0.02,0.59,0,0.88c-0.03,0.43,0.18,0.6,0.59,0.6c0.44,0,0.88,0.01,1.32-0.01
		c0.63-0.02,1.02-0.29,1.13-0.91c0.1-0.57,0.1-1.16,0.1-1.74c0-0.34-0.26-0.45-0.58-0.44c-0.44,0.02-0.88,0.05-1.32,0.05
		c-1.22,0-1.22,0-1.23,1.18C24.61,43.54,24.61,43.67,24.61,43.8z"/>
	<path class="st0" d="M14.77,32.51c0.1-0.17,0.2-0.45,0.39-0.65c1.1-1.12,2.22-2.21,3.32-3.32c2.44-2.45,4.88-4.91,7.32-7.36
		c1.74-1.74,3.5-3.48,5.25-5.21c1.25-1.24,2.5-2.49,3.77-3.72c0.65-0.63,1.18-0.64,1.83,0c2.15,2.11,4.28,4.25,6.42,6.38
		c1.4,1.38,2.82,2.75,4.22,4.14c1.47,1.47,2.92,2.96,4.39,4.44c1.46,1.46,2.93,2.9,4.39,4.35c0.55,0.54,0.76,1.13,0.48,1.9
		c-0.2,0.54-0.26,1.14-0.45,1.69c-0.15,0.46-0.44,0.47-0.78,0.13c-1.38-1.38-2.79-2.73-4.17-4.11c-4.54-4.53-9.07-9.06-13.61-13.59
		c-0.48-0.48-0.97-0.96-1.44-1.45c-0.28-0.29-0.47-0.29-0.77,0.01c-1.77,1.8-3.56,3.58-5.34,5.36c-2.19,2.19-4.37,4.38-6.56,6.57
		c-2.37,2.37-4.74,4.74-7.13,7.1c-0.56,0.55-0.81,0.52-1.04-0.21C15.04,34.19,14.95,33.4,14.77,32.51z"/>
	<path class="st0" d="M38.08,46.99c0-0.41,0.08-0.67,0.52-0.64c0.47,0.03,0.93,0.35,0.79,0.64c-0.14,0.28-0.47,0.58-0.77,0.64
		C38.18,47.72,38.06,47.34,38.08,46.99z"/>
</g>
</svg>
