<?xml version="1.0" encoding="UTF-8" standalone="no"?>
<svg
   xmlns:dc="http://purl.org/dc/elements/1.1/"
   xmlns:cc="http://creativecommons.org/ns#"
   xmlns:rdf="http://www.w3.org/1999/02/22-rdf-syntax-ns#"
   xmlns:svg="http://www.w3.org/2000/svg"
   xmlns="http://www.w3.org/2000/svg"
   xmlns:sodipodi="http://sodipodi.sourceforge.net/DTD/sodipodi-0.dtd"
   xmlns:inkscape="http://www.inkscape.org/namespaces/inkscape"
   sodipodi:docname="gondola.svg"
   inkscape:version="1.0 (4035a4fb49, 2020-05-01)"
   id="svg2016"
   version="1.1"
   viewBox="0 0 93.776993 118.70045"
   height="118.70045mm"
   width="93.776993mm">
  <defs
     id="defs2010" />
  <sodipodi:namedview
     inkscape:window-maximized="0"
     inkscape:window-y="0"
     inkscape:window-x="160"
     inkscape:window-height="1030"
     inkscape:window-width="1424"
     showgrid="false"
     inkscape:document-rotation="0"
     inkscape:current-layer="layer1"
     inkscape:document-units="mm"
     inkscape:cy="507.17296"
     inkscape:cx="136.35304"
     inkscape:zoom="0.35"
     inkscape:pageshadow="2"
     inkscape:pageopacity="0.0"
     borderopacity="1.0"
     bordercolor="#666666"
     pagecolor="#ffffff"
     id="base" />
  <metadata
     id="metadata2013">
    <rdf:RDF>
      <cc:Work
         rdf:about="">
        <dc:format>image/svg+xml</dc:format>
        <dc:type
           rdf:resource="http://purl.org/dc/dcmitype/StillImage" />
        <dc:title></dc:title>
      </cc:Work>
    </rdf:RDF>
  </metadata>
  <g
     transform="translate(-69.756591,-13.977155)"
     id="layer1"
     inkscape:groupmode="layer"
     inkscape:label="Layer 1">
    <g
       transform="matrix(2.4408074,0,0,2.4408074,-1662.0413,-739.10956)"
       id="g137">
      <path
         class="st13"
         d="m 726.55,317.08 c -5.54,1.84 -11.08,3.68 -16.64,5.53 -0.56,-0.86 -0.35,-1.36 0.4,-1.65 0.71,-0.28 1.44,-0.5 2.16,-0.74 4.17,-1.4 8.34,-2.82 12.52,-4.19 0.81,-0.27 1.4,-0.63 1.82,-1.45 0.62,-1.21 1.68,-1.59 2.89,-0.97 0.91,0.46 1.66,0.29 2.48,0.01 4.32,-1.46 8.65,-2.91 12.97,-4.36 0.76,-0.26 1.53,-0.47 2.35,-0.72 0.67,1.22 -0.07,1.52 -0.89,1.8 -2.88,0.96 -5.77,1.93 -8.65,2.9 -1.91,0.64 -3.82,1.26 -5.71,1.92 -1.57,0.55 -2,1.52 -1.34,3.03 0.87,1.99 1.81,3.95 2.66,5.95 0.39,0.93 0.98,1.41 1.99,1.28 1.43,-0.19 2.43,0.24 2.79,1.77 0.21,0.89 0.9,1.11 1.72,1.2 1.67,0.19 3.34,0.41 5,0.69 2.03,0.33 2.85,1.24 2.85,3.31 0.03,7.45 0.02,14.89 0,22.34 0,1.53 -0.27,1.8 -1.82,1.85 -7.66,0.23 -15.31,0.53 -22.97,0.59 -4.01,0.03 -8.03,-0.36 -12.04,-0.6 -1.33,-0.08 -1.56,-0.34 -1.56,-1.74 -0.01,-7.45 -0.02,-14.89 0,-22.34 0,-2.03 0.83,-3.03 2.8,-3.39 1.6,-0.29 3.22,-0.54 4.84,-0.68 1.1,-0.09 1.88,-0.42 2.15,-1.57 0.28,-1.17 1.07,-1.57 2.2,-1.41 1.43,0.2 2.17,-0.48 2.66,-1.78 0.62,-1.62 1.41,-3.18 2.12,-4.76 0.21,-0.48 0.39,-0.98 0.58,-1.47 -0.13,-0.11 -0.23,-0.23 -0.33,-0.35 z m 18.68,36.27 c -0.01,0.18 -0.01,0.36 -0.02,0.55 -0.52,0.03 -1.03,0.08 -1.55,0.08 -2.28,0.01 -4.56,0 -6.85,0.02 -0.59,0 -1.3,-0.04 -1.3,0.83 0,0.88 0.73,0.84 1.31,0.81 2.82,-0.14 5.64,-0.35 8.46,-0.48 0.89,-0.04 1.28,-0.45 1.28,-1.31 0,-1.74 0,-3.48 0.02,-5.22 0.01,-0.92 -0.41,-1.36 -1.33,-1.51 -1.88,-0.3 -3.74,-0.67 -5.61,-1.03 -2.44,-0.46 -3.01,-1.14 -3.02,-3.61 -0.01,-3.8 -0.03,-7.61 0.01,-11.41 0.01,-1.04 -0.24,-1.64 -1.43,-1.63 -4.23,0.02 -8.47,-0.06 -12.7,0 -1.65,0.03 -1.68,0.18 -1.69,1.88 -0.02,3.8 0,7.61 -0.02,11.41 -0.01,2.28 -0.48,2.86 -2.71,3.31 -1.97,0.4 -3.95,0.75 -5.92,1.1 -0.84,0.14 -1.22,0.57 -1.21,1.43 0.03,1.74 0.04,3.48 0,5.22 -0.02,1 0.48,1.32 1.39,1.37 2.77,0.14 5.53,0.33 8.29,0.49 0.16,0.01 0.37,0.06 0.48,-0.01 0.34,-0.25 0.65,-0.56 0.96,-0.85 -0.29,-0.26 -0.53,-0.62 -0.87,-0.76 -0.33,-0.14 -0.75,-0.05 -1.13,-0.06 -2.17,0 -4.35,0.01 -6.52,-0.01 -0.39,0 -0.78,-0.12 -1.17,-0.18 0,-0.13 0,-0.26 0,-0.39 0.44,-0.06 0.88,-0.16 1.31,-0.17 2.12,-0.02 4.24,0 6.36,-0.01 2.08,-0.01 2.09,-0.03 2.12,-2.08 0,-0.38 0,-0.76 0,-1.14 0,-5.65 -0.01,-11.3 0.01,-16.96 0.01,-1.87 0.59,-2.76 2.2,-2.83 2.93,-0.13 5.86,-0.06 8.79,-0.01 1.08,0.02 1.85,0.65 2.13,1.71 0.13,0.51 0.11,1.08 0.11,1.62 0.01,5.98 0,11.96 0.01,17.93 0,1.67 0.09,1.74 1.76,1.75 2.17,0.02 4.35,0 6.52,0.01 0.52,0.03 1.02,0.1 1.53,0.14 z m -21.58,-7.59 c 0,3.06 0.01,5.81 0,8.57 0,0.89 0.55,1.09 1.28,1.09 2.55,0.01 5.09,-0.01 7.64,0.02 1.04,0.01 1.45,-0.44 1.43,-1.47 -0.04,-2.27 0.01,-4.55 -0.02,-6.83 -0.02,-1.32 -0.15,-1.47 -1.53,-1.5 -1.95,-0.05 -3.9,-0.04 -5.85,-0.02 -0.92,-0.01 -1.83,0.08 -2.95,0.14 z m 5.09,-28.18 c -1.54,2.57 -2.52,5.02 -3.61,7.79 2.53,0.03 4.77,0.3 7.2,-0.22 -1.14,-2.61 -2.02,-5.07 -3.59,-7.57 z m -7.99,10.18 c 2.68,0 5.3,0 7.91,0 2.66,0 5.32,0 7.98,0 0.04,-0.12 0.07,-0.25 0.11,-0.37 -0.37,-0.16 -0.74,-0.43 -1.13,-0.47 -0.81,-0.08 -1.63,-0.04 -2.44,-0.04 -3.64,0 -7.28,-0.01 -10.92,0.02 -0.58,0 -1.35,-0.2 -1.51,0.86 z"
         id="path135" />
    </g>
  </g>
</svg>
