<?xml version="1.0" encoding="utf-8"?>
<!-- Generator: Adobe Illustrator 23.0.3, SVG Export Plug-In . SVG Version: 6.00 Build 0)  -->
<svg version="1.1" id="Layer_1" xmlns="http://www.w3.org/2000/svg" xmlns:xlink="http://www.w3.org/1999/xlink" x="0px" y="0px"
	 viewBox="0 0 73 71.5" style="enable-background:new 0 0 73 71.5;" xml:space="preserve">
<style type="text/css">
	.st0{fill:#1D3B60;}
</style>
<g>
	<path class="st0" d="M35.82,50.52c-4.85,0-9.7,0-14.56,0c-2.37,0-3.9-1.53-3.91-3.9c-0.01-4.64,0-9.28-0.01-13.92
		c0-0.52,0.16-0.65,0.66-0.64c1.42,0.03,2.85-0.01,4.27,0.02c0.53,0.01,0.63-0.18,0.65-0.66c0.03-0.74,0.03-1.53,0.28-2.21
		c1.02-2.84,4.71-3.6,6.82-1.43c1.04,1.08,2.04,2.21,3.05,3.32c0.62,0.69,1.33,1,2.32,0.99c6.05-0.05,12.09-0.03,18.14-0.03
		c0.77,0,0.77,0,0.77,0.79c0,4.56,0.01,9.13,0,13.69c-0.01,2.48-1.49,3.96-3.96,3.97C45.48,50.53,40.65,50.52,35.82,50.52z
		 M22.84,41.3C22.84,41.3,22.84,41.3,22.84,41.3c0,1.66,0.01,3.31-0.01,4.97c0,0.43,0.1,0.63,0.58,0.61c0.86-0.03,1.73-0.02,2.6,0
		c0.45,0.01,0.6-0.13,0.6-0.59c-0.02-3.35-0.02-6.7-0.01-10.05c0-0.41-0.16-0.54-0.55-0.53c-0.87,0.02-1.73,0.03-2.6,0
		c-0.48-0.02-0.64,0.14-0.63,0.62C22.86,37.99,22.84,39.65,22.84,41.3z M30.26,41.28c0,1.67,0.02,3.35-0.01,5.02
		c-0.01,0.47,0.16,0.59,0.6,0.58c0.85-0.03,1.69-0.03,2.54,0.01C33.87,46.9,34,46.71,34,46.25c-0.02-3.33-0.02-6.65,0-9.98
		c0-0.44-0.17-0.56-0.58-0.55c-0.87,0.02-1.73,0.04-2.6,0c-0.48-0.02-0.58,0.17-0.57,0.6C30.27,37.97,30.26,39.63,30.26,41.28z
		 M41.37,41.32c0-1.69-0.01-3.39,0.01-5.08c0-0.41-0.13-0.55-0.53-0.53c-0.61,0.02-1.23,0-1.85,0.01c-1.35,0.01-1.36,0.02-1.37,1.36
		c-0.01,3.04,0.01,6.08-0.01,9.12c0,0.54,0.17,0.7,0.69,0.67c0.84-0.04,1.69-0.02,2.54,0c0.41,0.01,0.52-0.14,0.52-0.54
		C41.36,44.67,41.37,43,41.37,41.32z M48.79,41.3C48.79,41.3,48.79,41.3,48.79,41.3c-0.01-1.67-0.02-3.35,0-5.02
		c0-0.43-0.14-0.58-0.57-0.56c-0.9,0.02-1.81,0.02-2.71,0c-0.33,0-0.49,0.1-0.49,0.46c0.01,3.41,0.01,6.81,0,10.22
		c0,0.35,0.13,0.48,0.48,0.47c0.89-0.01,1.77-0.03,2.66,0.01c0.53,0.02,0.65-0.19,0.64-0.67C48.78,44.58,48.79,42.94,48.79,41.3z"/>
	<path class="st0" d="M43.46,15.46c1.16,0,2.25,0,3.41,0c-0.05,0.32-0.08,0.6-0.14,0.88c-0.33,1.75,0.2,3.23,1.44,4.47
		c0.99,0.99,1.7,2.14,2.09,3.47c0.35,1.18,0.4,2.39,0.16,3.6c-0.03,0.17-0.21,0.43-0.33,0.43c-1.03,0.03-2.07,0.02-3.19,0.02
		c0.05-0.28,0.08-0.48,0.13-0.67c0.4-1.82-0.09-3.36-1.4-4.69C43.57,20.87,42.88,18.37,43.46,15.46z"/>
	<path class="st0" d="M39.45,15.43c-0.04,0.35-0.06,0.63-0.11,0.91c-0.29,1.67,0.13,3.13,1.33,4.34c1.92,1.94,2.78,4.23,2.44,6.97
		c-0.06,0.52-0.22,0.74-0.78,0.71c-0.9-0.05-1.8-0.01-2.77-0.01c0.05-0.36,0.06-0.64,0.12-0.92c0.37-1.73-0.16-3.18-1.39-4.41
		c-1.6-1.6-2.42-3.53-2.43-5.79c0-0.5,0.09-1,0.18-1.49c0.02-0.12,0.2-0.29,0.31-0.3C37.35,15.42,38.36,15.43,39.45,15.43z"/>
	<path class="st0" d="M26.58,24.63c-2.03,0-3.7-1.66-3.69-3.65c0.02-2.07,1.66-3.69,3.72-3.68c2,0.01,3.65,1.69,3.64,3.71
		C30.24,22.98,28.57,24.63,26.58,24.63z"/>
</g>
</svg>
