<?xml version="1.0" encoding="utf-8"?>
<!-- Generator: Adobe Illustrator 23.0.3, SVG Export Plug-In . SVG Version: 6.00 Build 0)  -->
<svg version="1.1" id="Layer_1" xmlns="http://www.w3.org/2000/svg" xmlns:xlink="http://www.w3.org/1999/xlink" x="0px" y="0px"
	 viewBox="0 0 73 71.5" style="enable-background:new 0 0 73 71.5;" xml:space="preserve">
<style type="text/css">
	.st0{fill:#4C336D;}
</style>
<g>
	<path class="st0" d="M42.28,53.7H11.56v-2.86c0.56,0.44,1.27,0.71,2.04,0.71h26.55L42.28,53.7z M24.85,11.64
		c-1.65,0-2.98,1.34-2.98,2.98c0,1.02,0.51,1.93,1.3,2.46c0.34-0.94,0.89-1.8,1.62-2.53c0.73-0.73,1.59-1.28,2.53-1.62
		C26.78,12.16,25.88,11.64,24.85,11.64z M24,19.46c0,3.14,2.55,5.69,5.69,5.69c3.14,0,5.69-2.55,5.69-5.69
		c0-3.14-2.55-5.69-5.69-5.69c-0.67,0-1.31,0.11-1.9,0.32c-1.61,0.57-2.89,1.85-3.46,3.46C24.11,18.16,24,18.8,24,19.46z
		 M20.91,27.31c-1.33,2.95-4.24,10.5-5.03,12.4h9.91c0.22-0.54,0.46-1.06,0.73-1.56c0.93-1.74,3.85-2.6,3.15-5.03
		c0-0.02-0.01-0.04-0.02-0.06l2.61,2.47c0.19,0.18,0.43,0.33,0.68,0.43l7.14,2.72c0.24,0.09,0.49,0.13,0.73,0.13
		c0.83,0,1.61-0.5,1.92-1.32c0.4-1.06-0.12-2.25-1.19-2.65l-6.31-2.41c-0.29-0.11-0.56-0.28-0.79-0.5c0,0-5.55-5.27-5.56-5.27
		c-0.23-0.22-0.54-0.37-0.86-0.47c-0.07-0.02-0.15-0.05-0.23-0.07c-0.08-0.02-0.17-0.05-0.26-0.07c-1.39-0.37-2.93-0.68-4.36-0.56
		c-0.47,0.04-0.98,0.16-1.38,0.43C21.33,26.26,21.14,26.81,20.91,27.31z M13.6,50.3h27.07l2.59,2.63c0.24,0.25,0.54,0.44,0.85,0.57
		c0.31,0.12,0.64,0.19,0.98,0.19h11.06c1.44,0,2.59-1.18,2.57-2.61c-0.02-1.41-1.2-2.53-2.61-2.53h-9.94l-6.76-6.86
		c-0.52-0.53-0.83-0.75-1.77-0.75c-1.62,0-24.05,0.01-24.05,0.01c-1.13,0-2.04,0.91-2.04,2.04v4.73v0.53
		C11.56,49.39,12.47,50.3,13.6,50.3z M55.02,40.89c0-3.26-2.64-5.9-5.9-5.9s-5.9,2.64-5.9,5.9c0,3.26,2.64,5.9,5.9,5.9
		S55.02,44.15,55.02,40.89z"/>
</g>
</svg>
