<?xml version="1.0" encoding="utf-8"?>
<!-- Generator: Adobe Illustrator 23.0.3, SVG Export Plug-In . SVG Version: 6.00 Build 0)  -->
<svg version="1.1" id="Layer_1" xmlns="http://www.w3.org/2000/svg" xmlns:xlink="http://www.w3.org/1999/xlink" x="0px" y="0px"
	 viewBox="0 0 73 71.5" style="enable-background:new 0 0 73 71.5;" xml:space="preserve">
<style type="text/css">
	.st0{fill:#C15928;}
</style>
<g>
	<path class="st0" d="M27.14,43.67c0-6.98,0.01-13.78-0.01-20.58c0-0.68,0.11-1.07,0.84-1.31c8.43-2.77,16.84-5.59,25.26-8.39
		c0.22-0.07,0.46-0.1,0.82-0.18c0,3.03,0,5.98,0,8.93c0,8.08,0.01,16.16,0,24.24c-0.01,4.09-2.95,7.4-6.87,7.79
		c-3.98,0.4-7.53-2.17-8.34-6.16c-0.59-2.87,0.32-5.33,2.49-7.24c2.18-1.91,4.72-2.43,7.5-1.48c0.41,0.14,0.8,0.31,1.3,0.5
		c0-7.11,0-14.12,0-21.25c-0.5,0.14-0.92,0.24-1.33,0.38c-5.5,1.83-10.99,3.69-16.5,5.47c-0.99,0.32-1.35,0.74-1.34,1.82
		c0.06,8,0.07,16,0.03,24c-0.03,5.82-5.8,9.52-10.95,7.09c-3.7-1.75-5.4-6.08-3.85-9.82c1.59-3.85,5.81-5.73,9.71-4.33
		C26.25,43.29,26.61,43.45,27.14,43.67z"/>
</g>
</svg>
