<?xml version="1.0" encoding="utf-8"?>
<!-- Generator: Adobe Illustrator 23.0.3, SVG Export Plug-In . SVG Version: 6.00 Build 0)  -->
<svg version="1.1" id="Layer_1" xmlns="http://www.w3.org/2000/svg" xmlns:xlink="http://www.w3.org/1999/xlink" x="0px" y="0px"
	 viewBox="0 0 73 71.5" style="enable-background:new 0 0 73 71.5;" xml:space="preserve">
<style type="text/css">
	.st0{fill:#1D3B60;}
</style>
<g>
	<path class="st0" d="M33.54,17.22C28,19.06,22.46,20.9,16.91,22.75c-0.56-0.86-0.35-1.36,0.4-1.65c0.71-0.28,1.44-0.5,2.16-0.74
		c4.17-1.4,8.34-2.82,12.52-4.19c0.81-0.27,1.4-0.63,1.82-1.45c0.62-1.21,1.68-1.59,2.89-0.97c0.91,0.46,1.66,0.29,2.48,0.01
		c4.32-1.46,8.65-2.91,12.97-4.36c0.76-0.26,1.53-0.47,2.35-0.72c0.67,1.22-0.07,1.52-0.89,1.8c-2.88,0.96-5.77,1.93-8.65,2.9
		c-1.91,0.64-3.82,1.26-5.71,1.92c-1.57,0.55-2,1.52-1.34,3.03c0.87,1.99,1.81,3.95,2.66,5.95c0.39,0.93,0.98,1.41,1.99,1.28
		c1.43-0.19,2.43,0.24,2.79,1.77c0.21,0.89,0.9,1.11,1.72,1.2c1.67,0.19,3.34,0.41,5,0.69c2.03,0.33,2.85,1.24,2.85,3.31
		c0.03,7.45,0.02,14.89,0,22.34c0,1.53-0.27,1.8-1.82,1.85c-7.66,0.23-15.31,0.53-22.97,0.59c-4.01,0.03-8.03-0.36-12.04-0.6
		c-1.33-0.08-1.56-0.34-1.56-1.74c-0.01-7.45-0.02-14.89,0-22.34c0-2.03,0.83-3.03,2.8-3.39c1.6-0.29,3.22-0.54,4.84-0.68
		c1.1-0.09,1.88-0.42,2.15-1.57c0.28-1.17,1.07-1.57,2.2-1.41c1.43,0.2,2.17-0.48,2.66-1.78c0.62-1.62,1.41-3.18,2.12-4.76
		c0.21-0.48,0.39-0.98,0.58-1.47C33.75,17.45,33.65,17.33,33.54,17.22z M52.23,53.48c-0.01,0.18-0.01,0.36-0.02,0.55
		c-0.52,0.03-1.03,0.08-1.55,0.08c-2.28,0.01-4.56,0-6.85,0.02c-0.59,0-1.3-0.04-1.3,0.83c0,0.88,0.73,0.84,1.31,0.81
		c2.82-0.14,5.64-0.35,8.46-0.48c0.89-0.04,1.28-0.45,1.28-1.31c0-1.74,0-3.48,0.02-5.22c0.01-0.92-0.41-1.36-1.33-1.51
		c-1.88-0.3-3.74-0.67-5.61-1.03c-2.44-0.46-3.01-1.14-3.02-3.61c-0.01-3.8-0.03-7.61,0.01-11.41c0.01-1.04-0.24-1.64-1.43-1.63
		c-4.23,0.02-8.47-0.06-12.7,0c-1.65,0.03-1.68,0.18-1.69,1.88c-0.02,3.8,0,7.61-0.02,11.41c-0.01,2.28-0.48,2.86-2.71,3.31
		c-1.97,0.4-3.95,0.75-5.92,1.1c-0.84,0.14-1.22,0.57-1.21,1.43c0.03,1.74,0.04,3.48,0,5.22c-0.02,1,0.48,1.32,1.39,1.37
		c2.77,0.14,5.53,0.33,8.29,0.49c0.16,0.01,0.37,0.06,0.48-0.01c0.34-0.25,0.65-0.56,0.96-0.85c-0.29-0.26-0.53-0.62-0.87-0.76
		c-0.33-0.14-0.75-0.05-1.13-0.06c-2.17,0-4.35,0.01-6.52-0.01c-0.39,0-0.78-0.12-1.17-0.18c0-0.13,0-0.26,0-0.39
		c0.44-0.06,0.88-0.16,1.31-0.17c2.12-0.02,4.24,0,6.36-0.01c2.08-0.01,2.09-0.03,2.12-2.08c0-0.38,0-0.76,0-1.14
		c0-5.65-0.01-11.3,0.01-16.96c0.01-1.87,0.59-2.76,2.2-2.83c2.93-0.13,5.86-0.06,8.79-0.01c1.08,0.02,1.85,0.65,2.13,1.71
		c0.13,0.51,0.11,1.08,0.11,1.62c0.01,5.98,0,11.96,0.01,17.93c0,1.67,0.09,1.74,1.76,1.75c2.17,0.02,4.35,0,6.52,0.01
		C51.22,53.37,51.72,53.44,52.23,53.48z M30.65,45.89c0,3.06,0.01,5.81,0,8.57c0,0.89,0.55,1.09,1.28,1.09
		c2.55,0.01,5.09-0.01,7.64,0.02c1.04,0.01,1.45-0.44,1.43-1.47c-0.04-2.27,0.01-4.55-0.02-6.83c-0.02-1.32-0.15-1.47-1.53-1.5
		c-1.95-0.05-3.9-0.04-5.85-0.02C32.68,45.75,31.77,45.83,30.65,45.89z M35.74,17.71c-1.54,2.57-2.52,5.02-3.61,7.79
		c2.53,0.03,4.77,0.3,7.2-0.22C38.19,22.67,37.31,20.21,35.74,17.71z M27.75,27.89c2.68,0,5.3,0,7.91,0c2.66,0,5.32,0,7.98,0
		c0.04-0.12,0.07-0.25,0.11-0.37c-0.37-0.16-0.74-0.43-1.13-0.47c-0.81-0.08-1.63-0.04-2.44-0.04c-3.64,0-7.28-0.01-10.92,0.02
		C28.68,27.04,27.91,26.83,27.75,27.89z"/>
</g>
</svg>
