<?xml version="1.0" encoding="UTF-8" standalone="no"?>
<svg
   xmlns:dc="http://purl.org/dc/elements/1.1/"
   xmlns:cc="http://creativecommons.org/ns#"
   xmlns:rdf="http://www.w3.org/1999/02/22-rdf-syntax-ns#"
   xmlns:svg="http://www.w3.org/2000/svg"
   xmlns="http://www.w3.org/2000/svg"
   xmlns:sodipodi="http://sodipodi.sourceforge.net/DTD/sodipodi-0.dtd"
   xmlns:inkscape="http://www.inkscape.org/namespaces/inkscape"
   inkscape:version="1.0 (4035a4fb49, 2020-05-01)"
   height="44.806286"
   width="44.512806"
   sodipodi:docname="Parking-Accom.svg"
   xml:space="preserve"
   viewBox="0 0 44.512806 44.806286"
   y="0px"
   x="0px"
   id="Layer_1"
   version="1.1"><metadata
   id="metadata15"><rdf:RDF><cc:Work
       rdf:about=""><dc:format>image/svg+xml</dc:format><dc:type
         rdf:resource="http://purl.org/dc/dcmitype/StillImage" /></cc:Work></rdf:RDF></metadata><defs
   id="defs13" /><sodipodi:namedview
   inkscape:current-layer="Layer_1"
   inkscape:window-maximized="1"
   inkscape:window-y="-9"
   inkscape:window-x="-9"
   inkscape:cy="24.55"
   inkscape:cx="22.25"
   inkscape:zoom="13.322633"
   showgrid="false"
   id="namedview11"
   inkscape:window-height="1001"
   inkscape:window-width="1920"
   inkscape:pageshadow="2"
   inkscape:pageopacity="0"
   guidetolerance="10"
   gridtolerance="10"
   objecttolerance="10"
   borderopacity="1"
   bordercolor="#666666"
   pagecolor="#ffffff" />
<style
   id="style2"
   type="text/css">
	.st0{fill:#1D3B60;}
</style>
<g
   transform="translate(-8.9,-6.6)"
   id="g8">
	<path
   id="path4"
   d="M 45.3,32.7 C 45,32.6 44.7,32.3 44.6,32 43.8,30.1 43.1,28.2 42.3,26 41.6,24.1 40.2,23.1 38.1,23.1 h -0.4 c -4.5,0 -9.1,0 -13.6,0 -2.2,0 -3.5,0.9 -4.3,3 -0.3,0.6 -0.5,1.3 -0.8,1.9 -0.5,1.3 -1,2.6 -1.5,3.9 -0.1,0.3 -0.4,0.6 -0.8,0.8 -1.6,0.9 -2.5,2.2 -2.5,3.9 0,2.1 0,4.2 0,6.2 v 1.8 c 0,0.2 0,0.4 0,0.6 v 0.3 c 0,0.3 0.2,0.5 0.5,0.5 h 2 v 1.1 0.4 c 0,0.4 0,0.7 0,1.1 0.2,1.8 1.3,2.9 3.1,2.8 1.6,-0.1 2.7,-1.3 2.8,-3 0,-0.6 0,-1.3 0,-1.9 v -0.4 h 16.7 v 0.4 c 0,0.7 0,1.3 0,1.9 0,1 0.4,1.8 1.1,2.4 0.5,0.4 1.1,0.6 1.8,0.6 0.2,0 0.4,0 0.6,-0.1 1.4,-0.3 2.3,-1.4 2.3,-3.1 0,-0.6 0,-1.2 0,-1.8 V 46 h 2 c 0.3,0 0.5,-0.2 0.5,-0.5 0,-0.9 0,-1.9 0,-2.8 0,-2.3 0,-4.4 0,-6.6 0.2,-1.4 -0.7,-2.6 -2.3,-3.4 z m -1.2,5.2 c 0,1 -0.8,1.8 -1.8,1.8 0,0 0,0 0,0 -0.5,0 -0.9,-0.2 -1.3,-0.6 -0.4,-0.4 -0.5,-0.9 -0.5,-1.3 0,-1 0.9,-1.8 1.8,-1.8 0,0 0,0 0,0 1,0.1 1.8,0.9 1.8,1.9 z M 41,32.4 H 21.2 l 0.3,-0.9 c 0.6,-1.6 1.1,-3 1.8,-4.5 0.1,-0.1 0.5,-0.3 0.8,-0.4 5.4,-0.1 9.8,0 14,0 0.3,0 0.8,0.4 0.9,0.6 0.6,1.3 1.1,2.7 1.6,4.1 0.1,0.5 0.3,0.8 0.4,1.1 z m -19.3,5.5 c 0,1 -0.8,1.8 -1.7,1.8 -0.5,0 -0.9,-0.2 -1.3,-0.5 -0.4,-0.4 -0.6,-0.8 -0.6,-1.3 0,-1 0.8,-1.8 1.8,-1.8 0,0 0,0 0,0 1,0 1.8,0.8 1.8,1.8 z"
   class="st0" />
	<path
   id="path6"
   d="M 52.4,17 C 45.7,13.7 39,10.3 32.3,6.9 c -0.8,-0.4 -1.5,-0.4 -2.2,0 -7,3.6 -13.5,6.8 -19.9,10 -0.9,0.5 -1.3,1.1 -1.3,2.1 0,8.1 0,16.2 0,24.3 v 7.6 c 0,0.3 0.2,0.5 0.5,0.5 h 1.7 c 0.3,0 0.5,-0.2 0.5,-0.5 v -7 c 0,-8 0,-16 0,-23.9 0,-0.5 0.1,-0.7 0.6,-1 5.9,-2.9 12,-6 18.4,-9.2 0.4,-0.2 0.7,-0.2 1.2,0 5.4,2.7 11.7,5.9 18.3,9.2 0.6,0.3 0.7,0.5 0.7,1.2 0,7.9 0,15.8 0,23.6 v 7.1 c 0,0.3 0.2,0.5 0.5,0.5 h 1.6 c 0.3,0 0.5,-0.2 0.5,-0.5 v -0.2 c 0,-0.2 0,-0.3 0,-0.4 v -6.7 c 0,-8.3 0,-16.6 0,-24.9 0.1,-1 -0.4,-1.4 -1,-1.7 z"
   class="st0" />
</g>
</svg>
