<?xml version="1.0" encoding="UTF-8" standalone="no"?>
<svg
   xmlns:dc="http://purl.org/dc/elements/1.1/"
   xmlns:cc="http://creativecommons.org/ns#"
   xmlns:rdf="http://www.w3.org/1999/02/22-rdf-syntax-ns#"
   xmlns:svg="http://www.w3.org/2000/svg"
   xmlns="http://www.w3.org/2000/svg"
   xmlns:sodipodi="http://sodipodi.sourceforge.net/DTD/sodipodi-0.dtd"
   xmlns:inkscape="http://www.inkscape.org/namespaces/inkscape"
   inkscape:version="1.0 (4035a4fb49, 2020-05-01)"
   height="48.387589"
   width="48.5"
   sodipodi:docname="Pet-Friendly-Accom.svg"
   xml:space="preserve"
   viewBox="0 0 48.500001 48.387589"
   y="0px"
   x="0px"
   id="Layer_1"
   version="1.1"><metadata
   id="metadata19"><rdf:RDF><cc:Work
       rdf:about=""><dc:format>image/svg+xml</dc:format><dc:type
         rdf:resource="http://purl.org/dc/dcmitype/StillImage" /></cc:Work></rdf:RDF></metadata><defs
   id="defs17" /><sodipodi:namedview
   inkscape:current-layer="Layer_1"
   inkscape:window-maximized="1"
   inkscape:window-y="-9"
   inkscape:window-x="-9"
   inkscape:cy="24.137589"
   inkscape:cx="24.25"
   inkscape:zoom="13.322633"
   showgrid="false"
   id="namedview15"
   inkscape:window-height="1001"
   inkscape:window-width="1920"
   inkscape:pageshadow="2"
   inkscape:pageopacity="0"
   guidetolerance="10"
   gridtolerance="10"
   objecttolerance="10"
   borderopacity="1"
   bordercolor="#666666"
   pagecolor="#ffffff" />
<style
   id="style2"
   type="text/css">
	.st0{fill:#1D3B60;}
</style>
<g
   transform="translate(-6.9,-7.0124106)"
   id="g12">
	<path
   id="path4"
   d="m 19.1,19.1 c 0.2,-0.9 0.4,-1.7 0.7,-2.5 1.8,-5.5 7.6,-10.3 14.9,-9.5 8.8,0.9 16.5,7.2 18.8,15.8 0.7,2.6 1.2,5.3 1.8,7.9 0.2,1.1 -0.3,2 -1.3,2.2 -0.9,0.2 -1.8,-0.4 -2.1,-1.4 C 51.4,29.6 51,27.5 50.5,25.4 50.2,24.3 50,23.3 49.7,22.1 49.2,22.4 48.9,22.7 48.5,23 45.4,25.1 41.8,26 38,26 37,26 36.3,25.2 36.3,24.2 36.2,22.1 36.2,20 36,17.9 35.8,15.4 35.1,13 33.9,10.8 c -0.2,-0.3 -0.4,-0.4 -0.8,-0.4 -5.2,0 -9.2,3 -10.3,7.9 -0.2,0.8 -0.2,1.6 -0.3,2.4 -0.1,1.1 -0.7,1.8 -1.9,1.8 -2.1,0 -4.3,0 -6.4,0 -0.2,0 -0.4,0 -0.6,0 -0.4,1.4 -1.1,2.6 -2.2,3.5 -0.1,0.1 -0.1,0.3 -0.1,0.4 0.7,2 1.8,3.7 3.2,5.2 0.1,0.1 0.3,0.2 0.4,0.2 1.4,-0.2 2.9,-0.4 4.3,-0.6 0.7,-0.1 1.4,-0.6 1.9,-1.1 0.7,-0.7 1.8,-0.8 2.5,-0.1 0.7,0.7 0.7,1.7 0.1,2.4 -1.1,1.2 -2.5,1.8 -4.1,2.3 -0.2,0.1 -0.4,0.1 -0.7,0.2 0.2,0.1 0.4,0.2 0.5,0.3 2,0.9 4,1.3 6.2,1.3 1.3,0 2,0.7 2,2 0,3.3 0,6.6 0,9.9 0,1.1 -0.7,1.9 -1.7,1.9 -1,0 -1.7,-0.8 -1.7,-1.9 0,-2.6 0,-5.3 0,-7.9 0,-0.2 0,-0.4 0,-0.5 -1.5,-0.4 -3,-0.7 -4.4,-1.2 -2,-0.7 -3.9,-1.7 -5.5,-3.1 C 10.3,32.5 7.9,28.3 7.1,23.2 7,22.4 7,21.6 6.9,20.9 c 0,-1.1 0.7,-1.8 1.8,-1.8 3.2,0 6.5,0 9.7,0 0.3,0 0.5,0 0.7,0 z m 20.7,3.3 c 3.2,-0.2 6,-1.4 8.3,-3.7 -2.4,-3.9 -5.8,-6.4 -10.3,-7.7 1.5,3.7 1.9,7.5 2,11.4 z"
   class="st0" />
	<path
   id="path6"
   d="m 43.2,55.4 c -6.4,0 -12.1,-5.7 -12.1,-12.2 0,-6.4 5.7,-12.1 12.2,-12 6.5,0 12.1,5.7 12.1,12.2 0,6.4 -5.7,12 -12.2,12 z m 0,-20.8 c -5,0 -8.6,3.6 -8.6,8.6 0,5 3.6,8.7 8.6,8.7 5,0 8.7,-3.6 8.7,-8.7 0,-4.9 -3.6,-8.6 -8.7,-8.6 z"
   class="st0" />
	<path
   id="path8"
   d="m 29.4,19.1 c 0,1 -0.8,1.7 -1.8,1.7 C 26.7,20.8 26,20 26,19 c 0,-1 0.8,-1.7 1.8,-1.7 0.9,0 1.6,0.8 1.6,1.8 z"
   class="st0" />
	<path
   id="path10"
   d="m 42.8,43.8 c 0.8,-1.5 1.5,-3 2.2,-4.4 0.1,-0.1 0.1,-0.3 0.2,-0.4 0.5,-0.9 1.5,-1.2 2.3,-0.7 0.8,0.4 1.2,1.4 0.8,2.3 -0.2,0.4 -0.4,0.8 -0.6,1.2 -0.9,1.9 -1.9,3.7 -2.8,5.6 -0.7,1.3 -2,1.5 -3,0.5 -1.1,-1.1 -2.1,-2.1 -3.2,-3.2 -0.8,-0.8 -0.8,-1.8 -0.1,-2.5 0.7,-0.7 1.8,-0.7 2.5,0.1 0.6,0.4 1.1,0.9 1.7,1.5 z"
   class="st0" />
</g>
</svg>
