<?xml version="1.0" encoding="utf-8"?>
<!-- Generator: Adobe Illustrator 23.0.3, SVG Export Plug-In . SVG Version: 6.00 Build 0)  -->
<svg version="1.1" id="Layer_1" xmlns="http://www.w3.org/2000/svg" xmlns:xlink="http://www.w3.org/1999/xlink" x="0px" y="0px"
	 viewBox="0 0 73 71.5" style="enable-background:new 0 0 73 71.5;" xml:space="preserve">
<style type="text/css">
	.st0{fill:#4C336D;}
</style>
<g>
	<path class="st0" d="M38.41,61.44c-1.25-0.36-2.56-0.6-3.75-1.11c-2.7-1.18-4.54-3.25-5.59-5.99c-0.64-1.66,0.05-2.65,1.82-2.65
		c4.82,0,9.64,0,14.46,0c0.41,0,0.82,0,1.13,0c0.81-2.94,1.47-5.8,2.39-8.57c1.72-5.18,4.23-9.93,8.24-13.76
		c0.35-0.33,0.72-0.66,1.13-0.92c0.72-0.46,1.68-0.31,2.13,0.37c0.49,0.74,0.5,1.51-0.16,2.18c-0.58,0.59-1.24,1.12-1.79,1.73
		c-3.89,4.34-6.06,9.55-7.52,15.09c-0.46,1.77-0.77,3.58-1.1,5.38c-0.71,3.85-4.72,7.55-8.72,8.02c-0.34,0.04-0.67,0.15-1,0.23
		C39.52,61.44,38.96,61.44,38.41,61.44z"/>
	<path class="st0" d="M26.33,14.59c1.5,0.83,2.02,2.24,1.58,4.39c-0.12,0.58-0.35,1.14-0.39,1.72c-0.05,0.87-0.09,1.78,0.09,2.62
		c0.2,0.93-0.05,1.58-0.81,2.03c-0.75,0.44-1.65,0.13-2.15-0.65c-0.83-1.29-0.76-2.71-0.5-4.12c0.26-1.38,0.79-2.69,0.34-4.16
		c-0.28-0.93,0.52-1.4,1.21-1.82C25.92,14.59,26.12,14.59,26.33,14.59z"/>
	<path class="st0" d="M31.95,14.59c1.81,1.13,1.65,2.85,1.37,4.6c-0.1,0.61-0.38,1.2-0.42,1.81c-0.05,0.73-0.03,1.5,0.14,2.21
		c0.21,0.89-0.01,1.74-0.76,2.14c-0.78,0.4-1.65,0.16-2.16-0.64c-0.78-1.22-0.78-2.56-0.54-3.91c0.15-0.88,0.39-1.75,0.57-2.63
		c0.05-0.26,0.08-0.55,0.02-0.81c-0.38-1.7-0.34-1.84,0.95-2.76C31.4,14.59,31.68,14.59,31.95,14.59z"/>
	<path class="st0" d="M28.83,36.28c4.27,0,8.53,0,12.8,0c1.28,0,1.64,0.34,1.54,1.61c-0.09,1.17-0.25,2.34-0.43,3.5
		c-0.13,0.88-0.82,1.03-1.56,1.03c-1.94,0-3.89,0-5.83,0c-6.18,0-12.35,0-18.53,0c-1.58,0-1.78-0.15-2.03-1.7
		c-0.15-0.96-0.25-1.92-0.33-2.89c-0.1-1.19,0.24-1.56,1.46-1.56C20.22,36.28,24.53,36.28,28.83,36.28z"/>
	<path class="st0" d="M27.72,57.87c-1.68,0-3.11,0-4.62,0c-0.23-2.63-0.46-5.2-0.68-7.78c-0.15-1.76-0.26-3.52-0.44-5.27
		c-0.07-0.74,0.21-0.98,0.92-0.96c1.28,0.04,2.56,0.03,3.84,0.01c0.62-0.01,0.85,0.23,0.84,0.85c-0.03,1.73,0,3.46-0.02,5.19
		c0,0.25-0.07,0.57-0.24,0.75c-1.48,1.68-1.23,3.47-0.39,5.32C27.2,56.57,27.42,57.15,27.72,57.87z"/>
	<path class="st0" d="M20.63,57.84c-1.76-0.38-2.81-1.53-3.05-3.19c-0.51-3.53-1.04-7.05-1.59-10.74c1.04,0,2.07-0.09,3.06,0.06
		c0.25,0.04,0.5,0.8,0.56,1.26c0.18,1.55,0.28,3.1,0.41,4.66C20.22,52.5,20.42,55.12,20.63,57.84z"/>
	<path class="st0" d="M27.57,34.73c-2.21,0-4.26,0-6.4,0c-0.14-1.49-0.28-2.93-0.43-4.59c0.68,0,1.32,0,1.95,0
		c1.35,0,2.7,0.02,4.05,0c0.62-0.01,0.86,0.22,0.84,0.85C27.55,32.2,27.57,33.4,27.57,34.73z"/>
	<path class="st0" d="M36.84,30.16c-0.13,1.61-0.25,3.05-0.38,4.63c-2.01,0-3.97,0.01-5.93-0.02c-0.16,0-0.44-0.34-0.45-0.53
		c-0.04-1.14-0.06-2.29,0-3.43c0.01-0.22,0.38-0.61,0.59-0.62C32.68,30.14,34.68,30.16,36.84,30.16z"/>
	<path class="st0" d="M30.06,49.29c0-1.67-0.02-3.22,0.02-4.77c0.01-0.21,0.32-0.59,0.51-0.59c1.65-0.05,3.3-0.03,5.12-0.03
		c-0.16,1.87-0.31,3.6-0.46,5.39C33.51,49.29,31.87,49.29,30.06,49.29z"/>
	<path class="st0" d="M38.9,34.79c0.14-1.63,0.27-3.07,0.41-4.65c0.65,0,1.26-0.02,1.87,0c1.55,0.06,2.32,0.94,2.19,2.49
		c-0.04,0.51-0.08,1.04-0.24,1.53c-0.08,0.25-0.41,0.58-0.65,0.6C41.32,34.83,40.14,34.79,38.9,34.79z"/>
	<path class="st0" d="M18.6,34.79c-1.21,0-2.38,0.02-3.55-0.02c-0.18-0.01-0.5-0.21-0.52-0.36c-0.12-0.89-0.39-1.83-0.18-2.66
		c0.15-0.6,0.85-1.23,1.47-1.49c0.62-0.26,1.54-0.31,2.11-0.02c0.38,0.2,0.43,1.14,0.53,1.76c0.11,0.71,0.13,1.44,0.17,2.17
		C18.64,34.35,18.62,34.51,18.6,34.79z"/>
	<path class="st0" d="M41.62,43.89c-0.28,1.88-0.53,3.6-0.79,5.39c-1.01,0-1.99,0-3.09,0c0.11-1.6,0.19-3.17,0.34-4.74
		c0.02-0.24,0.4-0.6,0.63-0.62C39.62,43.85,40.55,43.89,41.62,43.89z"/>
</g>
</svg>
