<?xml version="1.0" encoding="UTF-8" standalone="no"?>
<svg
   xmlns:dc="http://purl.org/dc/elements/1.1/"
   xmlns:cc="http://creativecommons.org/ns#"
   xmlns:rdf="http://www.w3.org/1999/02/22-rdf-syntax-ns#"
   xmlns:svg="http://www.w3.org/2000/svg"
   xmlns="http://www.w3.org/2000/svg"
   xmlns:sodipodi="http://sodipodi.sourceforge.net/DTD/sodipodi-0.dtd"
   xmlns:inkscape="http://www.inkscape.org/namespaces/inkscape"
   sodipodi:docname="size.svg"
   inkscape:version="1.0 (4035a4fb49, 2020-05-01)"
   id="svg3198"
   version="1.1"
   viewBox="0 0 86.682266 85.05854"
   height="85.05854mm"
   width="86.682266mm">
  <defs
     id="defs3192" />
  <sodipodi:namedview
     inkscape:window-maximized="0"
     inkscape:window-y="94"
     inkscape:window-x="26"
     inkscape:window-height="1030"
     inkscape:window-width="1424"
     showgrid="false"
     inkscape:document-rotation="0"
     inkscape:current-layer="layer1"
     inkscape:document-units="mm"
     inkscape:cy="383.41662"
     inkscape:cx="249.52332"
     inkscape:zoom="0.35"
     inkscape:pageshadow="2"
     inkscape:pageopacity="0.0"
     borderopacity="1.0"
     bordercolor="#666666"
     pagecolor="#ffffff"
     id="base" />
  <metadata
     id="metadata3195">
    <rdf:RDF>
      <cc:Work
         rdf:about="">
        <dc:format>image/svg+xml</dc:format>
        <dc:type
           rdf:resource="http://purl.org/dc/dcmitype/StillImage" />
        <dc:title></dc:title>
      </cc:Work>
    </rdf:RDF>
  </metadata>
  <g
     transform="translate(-39.813622,-46.721018)"
     id="layer1"
     inkscape:groupmode="layer"
     inkscape:label="Layer 1">
    <g
       transform="matrix(2.0686041,0,0,2.0686041,-1877.3066,-608.26884)"
       id="g187">
      <path
         class="st13"
         d="m 929.17,349.08 c 0,-2.38 0.01,-4.76 -0.01,-7.13 0,-0.45 0.13,-0.76 0.44,-1.06 2.98,-2.95 5.96,-5.91 8.93,-8.87 2.14,-2.13 4.27,-4.26 6.4,-6.39 0.79,-0.79 1.59,-1.58 2.36,-2.39 0.32,-0.34 0.57,-0.3 0.88,0.01 3.02,3.02 6.04,6.04 9.06,9.06 2.85,2.85 5.71,5.69 8.57,8.52 0.36,0.35 0.51,0.71 0.51,1.21 -0.02,4.74 -0.01,9.47 -0.01,14.21 0,0.99 -0.45,1.46 -1.45,1.46 -3.48,0 -6.97,-0.01 -10.45,-0.01 -0.35,0 -0.7,0.03 -1.04,0.05 -0.39,0.02 -0.62,-0.07 -0.62,-0.54 0.02,-3.8 0.03,-7.59 0.04,-11.39 0,-0.83 -0.68,-1.5 -1.52,-1.5 -2.34,-0.01 -4.68,-0.01 -7.02,0 -0.9,0 -1.53,0.69 -1.53,1.6 0.01,3.39 0,6.78 0.01,10.17 0,0.35 0.04,0.7 0.05,1.05 0.01,0.42 -0.2,0.6 -0.61,0.59 -3.06,-0.02 -6.12,-0.04 -9.17,-0.05 -0.85,0 -1.7,0.01 -2.54,0.01 -0.77,0 -1.27,-0.51 -1.27,-1.29 -0.02,-2.46 -0.02,-4.89 -0.01,-7.32 0,0 0,0 0,0 z m 21.06,-15.21 c 0,0 0,0.01 0,0.01 0.46,0 0.92,0 1.38,0 0.47,0 0.63,-0.22 0.47,-0.66 -0.55,-1.46 -1.48,-2.55 -2.99,-3.09 -0.56,-0.2 -0.77,-0.09 -0.77,0.5 -0.01,0.88 0.01,1.76 0,2.65 -0.01,0.44 0.19,0.6 0.6,0.59 0.43,0 0.87,0 1.31,0 z m -5.07,0 c 0.5,0 1,0.03 1.49,-0.02 0.18,-0.02 0.48,-0.24 0.48,-0.37 0.04,-1.01 0.04,-2.02 0,-3.03 -0.01,-0.14 -0.33,-0.42 -0.44,-0.39 -0.44,0.11 -0.89,0.26 -1.26,0.5 -0.95,0.64 -1.6,1.55 -2.02,2.61 -0.18,0.46 -0.03,0.68 0.48,0.69 0.43,0.02 0.85,0.01 1.27,0.01 z m -9.67,10.37 c -0.01,0 -0.01,0 -0.02,0 0,-0.33 0.06,-0.68 -0.02,-0.99 -0.06,-0.21 -0.29,-0.51 -0.47,-0.53 -0.51,-0.06 -1.03,-0.05 -1.54,0.03 -0.62,0.09 -1.08,0.28 -1.11,1.13 -0.02,0.5 -0.01,0.99 0,1.49 0,0.35 0.17,0.54 0.55,0.53 0.63,-0.01 1.25,0 1.88,-0.01 0.5,0 0.74,-0.27 0.74,-0.76 -0.01,-0.3 -0.01,-0.6 -0.01,-0.89 z m 21.79,1.66 c 0.26,0 0.52,-0.01 0.77,0 0.65,0.03 0.86,-0.16 0.86,-0.82 0,-0.46 -0.03,-0.92 -0.03,-1.38 -0.01,-0.99 -0.02,-1.01 -1.03,-0.99 -0.17,0 -0.33,0 -0.5,0 -1.22,-0.01 -1.7,0.51 -1.61,1.72 0.11,1.46 0.11,1.46 1.54,1.47 z m 2.77,-1.69 c 0,0 -0.01,0 0,0 0,0.31 -0.01,0.62 0,0.94 0.02,0.58 0.2,0.76 0.77,0.76 0.4,0 0.81,0 1.21,0 1.09,0 1.09,0.01 1.16,-1.11 0.01,-0.18 0.04,-0.37 0.04,-0.55 -0.02,-1.06 -0.53,-1.55 -1.58,-1.55 -0.33,0 -0.66,0.01 -0.99,-0.01 -0.43,-0.03 -0.61,0.17 -0.61,0.58 0,0.31 0,0.62 0,0.94 z m -9.85,-9.01 c 0,-0.01 0,-0.01 0,0 -0.46,0 -0.92,0 -1.38,0 -0.34,0 -0.5,0.14 -0.5,0.5 0.01,0.83 0,1.66 0.01,2.48 0.01,0.44 0.25,0.61 0.65,0.47 1.45,-0.52 2.45,-1.5 2.98,-2.95 0.12,-0.34 -0.06,-0.49 -0.38,-0.49 -0.46,-0.02 -0.92,-0.01 -1.38,-0.01 z m -13.6,9.03 c 0,0.31 0.01,0.62 0,0.94 -0.02,0.45 0.16,0.69 0.64,0.68 0.37,-0.01 0.73,-0.01 1.1,0 1.34,0.03 1.34,0.04 1.42,-1.26 0,-0.02 0,-0.04 0.01,-0.05 0.04,-1.44 -0.54,-1.84 -1.65,-1.81 -1.73,0.03 -1.49,-0.16 -1.52,1.5 z m 10.54,-7.29 c 0.01,0 0.01,0 0,0 0.01,-0.4 0,-0.81 0.01,-1.21 0.01,-0.37 -0.15,-0.55 -0.52,-0.54 -0.92,0.01 -1.84,0.01 -2.76,0.02 -0.39,0 -0.5,0.18 -0.35,0.53 0.58,1.39 1.51,2.41 2.98,2.88 0.43,0.14 0.62,0.02 0.64,-0.45 0.02,-0.42 0,-0.83 0,-1.23 z m -11.68,11.72 c -0.01,0 -0.01,0 0,0 0,-0.26 0,-0.52 0,-0.77 0.01,-0.66 -0.12,-0.82 -0.79,-0.84 -0.62,-0.02 -1.25,-0.02 -1.87,0.03 -0.17,0.01 -0.43,0.25 -0.45,0.41 -0.05,0.51 -0.06,1.03 0,1.54 0.09,0.75 0.45,1.04 1.21,1.1 0.38,0.03 0.77,0.03 1.16,0.05 0.56,0.03 0.76,-0.16 0.75,-0.74 -0.02,-0.27 -0.01,-0.52 -0.01,-0.78 z m 24.58,-0.04 c 0,0 0,0 0,0 0,0.28 0.04,0.56 -0.01,0.83 -0.09,0.5 0.15,0.68 0.59,0.69 0.46,0.01 0.92,0.02 1.38,0 0.68,-0.03 1.06,-0.36 1.14,-1.04 0.06,-0.52 0.03,-1.06 0.01,-1.59 -0.02,-0.34 -0.26,-0.45 -0.58,-0.44 -0.59,0.01 -1.18,0.02 -1.77,0.02 -0.67,0.01 -0.79,0.13 -0.76,0.82 0,0.23 0,0.47 0,0.71 z m -2.7,-1.49 c 0,-0.01 0,-0.01 0,-0.02 -0.18,0 -0.37,0 -0.55,0 -1.04,-0.03 -1.04,-0.03 -1.04,1 0,0.26 -0.02,0.52 0.01,0.77 0.14,0.97 0.49,1.25 1.47,1.26 0.33,0 0.66,-0.01 0.99,0.03 0.49,0.05 0.68,-0.2 0.7,-0.63 0.02,-0.61 0.01,-1.21 0,-1.82 -0.01,-0.45 -0.23,-0.67 -0.7,-0.63 -0.29,0.02 -0.59,0.02 -0.88,0.04 z m -20.73,1.54 c 0,0 -0.01,0 -0.01,0 0,0.29 0.02,0.59 0,0.88 -0.03,0.43 0.18,0.6 0.59,0.6 0.44,0 0.88,0.01 1.32,-0.01 0.63,-0.02 1.02,-0.29 1.13,-0.91 0.1,-0.57 0.1,-1.16 0.1,-1.74 0,-0.34 -0.26,-0.45 -0.58,-0.44 -0.44,0.02 -0.88,0.05 -1.32,0.05 -1.22,0 -1.22,0 -1.23,1.18 0,0.13 0,0.26 0,0.39 z"
         id="path181" />
      <path
         class="st13"
         d="m 926.77,337.37 c 0.1,-0.17 0.2,-0.45 0.39,-0.65 1.1,-1.12 2.22,-2.21 3.32,-3.32 2.44,-2.45 4.88,-4.91 7.32,-7.36 1.74,-1.74 3.5,-3.48 5.25,-5.21 1.25,-1.24 2.5,-2.49 3.77,-3.72 0.65,-0.63 1.18,-0.64 1.83,0 2.15,2.11 4.28,4.25 6.42,6.38 1.4,1.38 2.82,2.75 4.22,4.14 1.47,1.47 2.92,2.96 4.39,4.44 1.46,1.46 2.93,2.9 4.39,4.35 0.55,0.54 0.76,1.13 0.48,1.9 -0.2,0.54 -0.26,1.14 -0.45,1.69 -0.15,0.46 -0.44,0.47 -0.78,0.13 -1.38,-1.38 -2.79,-2.73 -4.17,-4.11 -4.54,-4.53 -9.07,-9.06 -13.61,-13.59 -0.48,-0.48 -0.97,-0.96 -1.44,-1.45 -0.28,-0.29 -0.47,-0.29 -0.77,0.01 -1.77,1.8 -3.56,3.58 -5.34,5.36 -2.19,2.19 -4.37,4.38 -6.56,6.57 -2.37,2.37 -4.74,4.74 -7.13,7.1 -0.56,0.55 -0.81,0.52 -1.04,-0.21 -0.22,-0.76 -0.31,-1.55 -0.49,-2.45 z"
         id="path183" />
      <path
         class="st13"
         d="m 950.08,351.86 c 0,-0.41 0.08,-0.67 0.52,-0.64 0.47,0.03 0.93,0.35 0.79,0.64 -0.14,0.28 -0.47,0.58 -0.77,0.64 -0.44,0.09 -0.56,-0.29 -0.54,-0.64 z"
         id="path185" />
    </g>
  </g>
</svg>
