<?xml version="1.0" encoding="UTF-8" standalone="no"?>
<svg
   xmlns:dc="http://purl.org/dc/elements/1.1/"
   xmlns:cc="http://creativecommons.org/ns#"
   xmlns:rdf="http://www.w3.org/1999/02/22-rdf-syntax-ns#"
   xmlns:svg="http://www.w3.org/2000/svg"
   xmlns="http://www.w3.org/2000/svg"
   xmlns:sodipodi="http://sodipodi.sourceforge.net/DTD/sodipodi-0.dtd"
   xmlns:inkscape="http://www.inkscape.org/namespaces/inkscape"
   sodipodi:docname="sleeps.svg"
   inkscape:version="1.0 (4035a4fb49, 2020-05-01)"
   id="svg2617"
   version="1.1"
   viewBox="0 0 91.441231 55.666023"
   height="55.666023mm"
   width="91.441231mm">
  <defs
     id="defs2611" />
  <sodipodi:namedview
     inkscape:window-maximized="0"
     inkscape:window-y="71"
     inkscape:window-x="174"
     inkscape:window-height="1030"
     inkscape:window-width="1424"
     showgrid="false"
     inkscape:document-rotation="0"
     inkscape:current-layer="layer1"
     inkscape:document-units="mm"
     inkscape:cy="313.01155"
     inkscape:cx="-32.912093"
     inkscape:zoom="0.35"
     inkscape:pageshadow="2"
     inkscape:pageopacity="0.0"
     borderopacity="1.0"
     bordercolor="#666666"
     pagecolor="#ffffff"
     id="base" />
  <metadata
     id="metadata2614">
    <rdf:RDF>
      <cc:Work
         rdf:about="">
        <dc:format>image/svg+xml</dc:format>
        <dc:type
           rdf:resource="http://purl.org/dc/dcmitype/StillImage" />
        <dc:title></dc:title>
      </cc:Work>
    </rdf:RDF>
  </metadata>
  <g
     transform="translate(-114.54132,-65.349026)"
     id="layer1"
     inkscape:groupmode="layer"
     inkscape:label="Layer 1">
    <g
       transform="matrix(2.1391012,0,0,2.1391012,-1547.797,-638.78835)"
       id="g159">
      <path
         class="st13"
         d="m 777.12,330.24 c 0.36,-0.83 1,-1.11 1.87,-1.06 0.72,0.04 1.45,0 2.17,0.01 1.1,0.01 1.64,0.55 1.64,1.65 0,4.06 0,8.13 0,12.19 0,0.17 0,0.33 0,0.57 0.19,0 0.37,0 0.54,0 11.55,0 23.1,0 34.65,0 0.15,0 0.31,0 0.46,0 0.82,0.03 1.41,0.59 1.41,1.4 0.01,2.92 0.01,5.84 0,8.77 0,0.77 -0.52,1.35 -1.28,1.39 -1.03,0.05 -2.06,0.05 -3.09,0 -0.8,-0.04 -1.3,-0.63 -1.3,-1.45 -0.01,-1.31 0,-2.62 0,-3.92 0,-0.15 0,-0.3 0,-0.48 -10.47,0 -20.9,0 -31.39,0 0,0.14 0,0.29 0,0.43 0,1.29 0,2.59 0,3.88 0,0.97 -0.54,1.54 -1.51,1.56 -0.88,0.02 -1.75,0 -2.63,0.01 -0.77,0.01 -1.23,-0.4 -1.54,-1.05 0,-7.98 0,-15.94 0,-23.9 z"
         id="path153" />
      <path
         class="st13"
         d="m 818.42,341.92 c -8.13,0 -16.21,0 -24.27,0 -0.05,-0.89 -0.03,-1.78 -0.17,-2.65 -0.14,-0.85 -0.44,-1.68 -0.67,-2.55 0.1,0 0.25,-0.02 0.39,-0.02 7.65,0 15.3,0 22.96,0 1.22,0 1.76,0.54 1.76,1.75 0,1.02 0,2.03 0,3.05 0,0.13 0,0.27 0,0.42 z"
         id="path155" />
      <path
         class="st13"
         d="m 784.48,333.26 c 4.29,-0.45 8.68,3.55 7.89,8.65 -2.62,0 -5.24,0 -7.89,0 0,-2.89 0,-5.77 0,-8.65 z"
         id="path157" />
    </g>
  </g>
</svg>
