<?xml version="1.0" encoding="utf-8"?>
<!-- Generator: Adobe Illustrator 23.0.3, SVG Export Plug-In . SVG Version: 6.00 Build 0)  -->
<svg version="1.1" id="Layer_1" xmlns="http://www.w3.org/2000/svg" xmlns:xlink="http://www.w3.org/1999/xlink" x="0px" y="0px"
	 viewBox="0 0 73 71.5" style="enable-background:new 0 0 73 71.5;" xml:space="preserve">
<style type="text/css">
	.st0{fill:#1D3B60;}
</style>
<g>
	<path class="st0" d="M14.12,20.38c0.36-0.83,1-1.11,1.87-1.06c0.72,0.04,1.45,0,2.17,0.01c1.1,0.01,1.64,0.55,1.64,1.65
		c0,4.06,0,8.13,0,12.19c0,0.17,0,0.33,0,0.57c0.19,0,0.37,0,0.54,0c11.55,0,23.1,0,34.65,0c0.15,0,0.31,0,0.46,0
		c0.82,0.03,1.41,0.59,1.41,1.4c0.01,2.92,0.01,5.84,0,8.77c0,0.77-0.52,1.35-1.28,1.39c-1.03,0.05-2.06,0.05-3.09,0
		c-0.8-0.04-1.3-0.63-1.3-1.45c-0.01-1.31,0-2.62,0-3.92c0-0.15,0-0.3,0-0.48c-10.47,0-20.9,0-31.39,0c0,0.14,0,0.29,0,0.43
		c0,1.29,0,2.59,0,3.88c0,0.97-0.54,1.54-1.51,1.56c-0.88,0.02-1.75,0-2.63,0.01c-0.77,0.01-1.23-0.4-1.54-1.05
		C14.12,36.3,14.12,28.34,14.12,20.38z"/>
	<path class="st0" d="M55.42,32.06c-8.13,0-16.21,0-24.27,0c-0.05-0.89-0.03-1.78-0.17-2.65c-0.14-0.85-0.44-1.68-0.67-2.55
		c0.1,0,0.25-0.02,0.39-0.02c7.65,0,15.3,0,22.96,0c1.22,0,1.76,0.54,1.76,1.75c0,1.02,0,2.03,0,3.05
		C55.42,31.77,55.42,31.9,55.42,32.06z"/>
	<path class="st0" d="M21.48,23.39c4.29-0.45,8.68,3.55,7.89,8.65c-2.62,0-5.24,0-7.89,0C21.48,29.16,21.48,26.27,21.48,23.39z"/>
</g>
</svg>
