<?xml version="1.0" encoding="utf-8"?>
<!-- Generator: Adobe Illustrator 23.0.3, SVG Export Plug-In . SVG Version: 6.00 Build 0)  -->
<svg version="1.1" id="Layer_1" xmlns="http://www.w3.org/2000/svg" xmlns:xlink="http://www.w3.org/1999/xlink" x="0px" y="0px"
	 viewBox="0 0 73 71.5" style="enable-background:new 0 0 73 71.5;" xml:space="preserve">
<style type="text/css">
	.st0{fill:#4C336D;}
</style>
<g>
	<path class="st0" d="M29.03,19.36c0.25,0,0.47,0,0.69,0c3.43,0,6.86,0,10.29,0.01c0.24,0,0.3-0.06,0.3-0.3
		c0-0.77-0.05-1.56,0.07-2.32c0.44-2.98,2.12-5,4.92-6.08c1.14-0.44,2.33-0.46,3.53-0.4c0.79,0.04,1.34,0.7,1.32,1.51
		c-0.02,0.75-0.64,1.36-1.41,1.39c-0.54,0.02-1.09-0.01-1.63,0.06c-2.16,0.27-3.86,2.18-3.88,4.38c-0.02,1.21,0,2.42,0,3.63
		c0,4.51,0,9.02,0,13.53c0,0.08,0,0.15,0,0.27c0.41-0.22,0.79-0.41,1.16-0.61c1.79-0.96,3.64-1.1,5.53-0.36
		c0.69,0.27,1.33,0.66,1.98,1c0.58,0.3,1.14,0.63,1.81,0.73c0.89,0.12,1.7-0.11,2.47-0.55c0.22-0.13,0.44-0.24,0.67-0.35
		c0.39-0.18,0.75,0.03,0.76,0.46c0.01,0.7,0,1.39,0,2.09c0,0.25-0.13,0.41-0.35,0.52c-2.09,1.05-4.17,1.04-6.24-0.06
		c-0.58-0.31-1.15-0.62-1.73-0.93c-1.19-0.63-2.37-0.61-3.55,0.02c-0.77,0.41-1.53,0.85-2.34,1.2c-1.94,0.82-3.86,0.71-5.72-0.28
		c-0.63-0.33-1.25-0.68-1.88-1c-1.08-0.54-2.17-0.53-3.26,0.01c-0.89,0.44-1.75,0.96-2.66,1.34c-1.56,0.65-3.16,0.67-4.73,0.02
		c-0.86-0.36-1.67-0.81-2.49-1.26c-1.23-0.67-2.45-0.66-3.68,0c-0.82,0.44-1.63,0.91-2.49,1.26c-1.78,0.71-3.55,0.61-5.28-0.22
		c-0.28-0.13-0.41-0.34-0.4-0.66c0.01-0.62,0-1.23,0-1.85c0-0.56,0.39-0.79,0.89-0.54c0.4,0.2,0.79,0.44,1.21,0.6
		c0.92,0.36,1.85,0.31,2.73-0.13c0.81-0.4,1.58-0.86,2.4-1.23c1.99-0.91,3.96-0.85,5.9,0.17c0.62,0.33,1.24,0.66,1.86,0.99
		c0.09,0.05,0.18,0.09,0.32,0.15c0-0.12,0-0.2,0-0.28c0-3.88,0-7.76,0-11.64c0-1.96,0-3.91,0-5.87c0.01-3.21,1.9-5.93,4.9-7.06
		c0.78-0.29,1.6-0.43,2.43-0.44c0.41-0.01,0.82-0.02,1.23,0.02c0.76,0.07,1.31,0.73,1.27,1.51c-0.03,0.74-0.64,1.36-1.39,1.38
		c-0.34,0.01-0.68,0-1.02,0c-2.49,0.01-4.48,1.99-4.51,4.48C29.03,18.21,29.03,18.77,29.03,19.36z M29.05,22.29
		c0,1.83,0,3.64,0,5.47c3.75,0,7.49,0,11.24,0c0-1.83,0-3.65,0-5.47C36.54,22.29,32.81,22.29,29.05,22.29z M40.29,35.77
		c0-1.7,0-3.38,0-5.08c-3.76,0-7.5,0-11.24,0c0,1.59,0,3.16,0,4.75c0.08-0.04,0.13-0.06,0.19-0.09c0.81-0.42,1.6-0.88,2.44-1.24
		c1.54-0.66,3.14-0.72,4.7-0.1c0.93,0.37,1.8,0.89,2.7,1.35C39.46,35.56,39.84,35.73,40.29,35.77z"/>
	<path class="st0" d="M57.6,43.3c0,0.34,0,0.68,0,1.02c0,0.24-0.1,0.41-0.31,0.51c-2.02,1.03-4.05,1.07-6.09,0.05
		c-0.7-0.35-1.37-0.75-2.07-1.09c-1.06-0.53-2.13-0.52-3.19,0c-0.82,0.41-1.61,0.88-2.45,1.25c-1.96,0.87-3.91,0.77-5.81-0.23
		c-0.68-0.36-1.35-0.76-2.05-1.08c-1.15-0.52-2.27-0.39-3.36,0.21c-0.78,0.43-1.56,0.87-2.39,1.2c-1.85,0.74-3.69,0.63-5.47-0.29
		c-0.57-0.3-1.15-0.6-1.71-0.92c-1.26-0.72-2.52-0.69-3.79,0c-0.82,0.45-1.65,0.92-2.52,1.26c-1.76,0.68-3.51,0.57-5.21-0.26
		c-0.27-0.13-0.39-0.33-0.39-0.64c0.01-0.62,0-1.25,0-1.87c0-0.54,0.4-0.77,0.88-0.53c0.55,0.28,1.06,0.62,1.68,0.74
		c0.85,0.17,1.66,0.05,2.43-0.35c0.88-0.46,1.75-0.96,2.67-1.33c1.63-0.67,3.29-0.62,4.91,0.08c0.81,0.36,1.59,0.81,2.37,1.23
		c1.12,0.6,2.25,0.61,3.38,0.04c0.85-0.43,1.66-0.92,2.53-1.28c1.95-0.82,3.86-0.68,5.72,0.32c0.67,0.36,1.33,0.74,2.01,1.06
		c1.04,0.48,2.08,0.43,3.1-0.1c0.9-0.46,1.77-0.98,2.71-1.35c1.8-0.72,3.6-0.6,5.33,0.29c0.65,0.34,1.3,0.69,1.94,1.03
		c1.11,0.59,2.24,0.6,3.36,0.03c0.33-0.17,0.66-0.35,0.99-0.51c0.4-0.2,0.76,0.02,0.78,0.47c0,0.01,0,0.02,0,0.02
		C57.61,42.62,57.61,42.96,57.6,43.3C57.6,43.3,57.6,43.3,57.6,43.3z"/>
	<path class="st0" d="M57.6,50.26c0,0.34,0,0.68,0,1.02c0,0.24-0.1,0.42-0.33,0.53c-2.13,1.09-4.24,1.05-6.34-0.09
		c-0.57-0.31-1.14-0.62-1.71-0.92c-1.13-0.58-2.26-0.58-3.38,0c-0.7,0.36-1.39,0.75-2.1,1.09c-2.08,1-4.13,0.93-6.15-0.17
		c-0.61-0.33-1.22-0.67-1.84-0.97c-1.07-0.53-2.15-0.51-3.21,0.02c-0.83,0.41-1.62,0.89-2.47,1.26c-1.96,0.85-3.9,0.73-5.79-0.28
		c-0.57-0.31-1.14-0.61-1.71-0.92c-1.17-0.63-2.34-0.62-3.51-0.01c-0.83,0.43-1.64,0.91-2.51,1.27c-1.81,0.75-3.62,0.65-5.38-0.21
		c-0.25-0.12-0.37-0.32-0.37-0.61c0.01-0.64,0-1.28,0-1.92c0-0.52,0.41-0.75,0.88-0.5c0.59,0.31,1.16,0.67,1.84,0.78
		c0.79,0.12,1.54,0,2.25-0.37c0.82-0.42,1.62-0.89,2.46-1.25c1.9-0.82,3.8-0.73,5.64,0.23c0.65,0.34,1.29,0.7,1.94,1.03
		c1.1,0.56,2.2,0.56,3.29,0c0.82-0.42,1.62-0.89,2.47-1.25c1.9-0.83,3.79-0.73,5.64,0.22c0.65,0.33,1.28,0.69,1.92,1.02
		c1.09,0.57,2.2,0.58,3.3,0.03c0.83-0.42,1.64-0.89,2.49-1.27c1.92-0.84,3.82-0.74,5.68,0.23c0.78,0.41,1.54,0.86,2.35,1.2
		c0.92,0.4,1.87,0.31,2.77-0.13c0.36-0.17,0.7-0.37,1.05-0.54c0.44-0.22,0.8,0,0.81,0.49c0,0.01,0,0.02,0,0.02
		C57.61,49.61,57.61,49.94,57.6,50.26C57.6,50.26,57.6,50.26,57.6,50.26z"/>
</g>
</svg>
