<?xml version="1.0" encoding="UTF-8" standalone="no"?>
<svg
   xmlns:dc="http://purl.org/dc/elements/1.1/"
   xmlns:cc="http://creativecommons.org/ns#"
   xmlns:rdf="http://www.w3.org/1999/02/22-rdf-syntax-ns#"
   xmlns:svg="http://www.w3.org/2000/svg"
   xmlns="http://www.w3.org/2000/svg"
   xmlns:sodipodi="http://sodipodi.sourceforge.net/DTD/sodipodi-0.dtd"
   xmlns:inkscape="http://www.inkscape.org/namespaces/inkscape"
   inkscape:version="1.0 (4035a4fb49, 2020-05-01)"
   height="42.327579"
   width="47"
   sodipodi:docname="Swimming-Pool-Accom.svg"
   xml:space="preserve"
   viewBox="0 0 47.000001 42.32758"
   y="0px"
   x="0px"
   id="Layer_1"
   version="1.1"><metadata
   id="metadata17"><rdf:RDF><cc:Work
       rdf:about=""><dc:format>image/svg+xml</dc:format><dc:type
         rdf:resource="http://purl.org/dc/dcmitype/StillImage" /></cc:Work></rdf:RDF></metadata><defs
   id="defs15" /><sodipodi:namedview
   inkscape:current-layer="Layer_1"
   inkscape:window-maximized="1"
   inkscape:window-y="-9"
   inkscape:window-x="-9"
   inkscape:cy="19.386068"
   inkscape:cx="23.55"
   inkscape:zoom="13.322633"
   showgrid="false"
   id="namedview13"
   inkscape:window-height="1001"
   inkscape:window-width="1920"
   inkscape:pageshadow="2"
   inkscape:pageopacity="0"
   guidetolerance="10"
   gridtolerance="10"
   objecttolerance="10"
   borderopacity="1"
   bordercolor="#666666"
   pagecolor="#ffffff" />
<style
   id="style2"
   type="text/css">
	.st0{fill:#1D3B60;}
</style>
<g
   transform="translate(-7.6,-11.763932)"
   id="g10">
	<path
   id="path4"
   d="m 25.9,20.9 c 0.2,0 0.5,0 0.7,0 3.4,0 6.9,0 10.3,0 0.2,0 0.3,-0.1 0.3,-0.3 0,-0.8 0,-1.6 0.1,-2.3 0.4,-3 2.1,-5 4.9,-6.1 1.1,-0.4 2.3,-0.5 3.5,-0.4 0.8,0 1.3,0.7 1.3,1.5 0,0.8 -0.6,1.4 -1.4,1.4 -0.5,0 -1.1,0 -1.6,0.1 -2.2,0.3 -3.9,2.2 -3.9,4.4 0,1.2 0,2.4 0,3.6 0,4.5 0,9 0,13.5 0,0.1 0,0.2 0,0.3 0.4,-0.2 0.8,-0.4 1.2,-0.6 1.8,-1 3.6,-1.1 5.5,-0.4 0.7,0.3 1.3,0.7 2,1 0.6,0.3 1.1,0.6 1.8,0.7 0.9,0.1 1.7,-0.1 2.5,-0.5 0.2,-0.1 0.4,-0.2 0.7,-0.3 0.4,-0.2 0.8,0 0.8,0.5 0,0.7 0,1.4 0,2.1 0,0.2 -0.1,0.4 -0.3,0.5 -2.1,1.1 -4.2,1 -6.2,-0.1 -0.6,-0.3 -1.2,-0.6 -1.7,-0.9 -1.2,-0.6 -2.4,-0.6 -3.5,0 -0.8,0.4 -1.5,0.9 -2.3,1.2 -1.9,0.8 -3.9,0.7 -5.7,-0.3 -0.6,-0.3 -1.2,-0.7 -1.9,-1 -1.1,-0.5 -2.2,-0.5 -3.3,0 -0.9,0.4 -1.7,1 -2.7,1.3 -1.6,0.6 -3.2,0.7 -4.7,0 -0.9,-0.4 -1.7,-0.8 -2.5,-1.3 -1.2,-0.7 -2.4,-0.7 -3.7,0 -0.8,0.4 -1.6,0.9 -2.5,1.3 C 11.8,40.5 10,40.4 8.3,39.6 8,39.5 7.9,39.3 7.9,38.9 c 0,-0.6 0,-1.2 0,-1.8 0,-0.6 0.4,-0.8 0.9,-0.5 0.4,0.2 0.8,0.4 1.2,0.6 0.9,0.4 1.8,0.3 2.7,-0.1 0.8,-0.4 1.6,-0.9 2.4,-1.2 2,-0.9 4,-0.9 5.9,0.2 0.6,0.3 1.2,0.7 1.9,1 0.1,0 0.2,0.1 0.3,0.2 0,-0.1 0,-0.2 0,-0.3 0,-3.9 0,-7.8 0,-11.6 0,-2 0,-3.9 0,-5.9 0,-3.2 1.9,-5.9 4.9,-7.1 0.8,-0.3 1.6,-0.4 2.4,-0.4 0.4,0 0.8,0 1.2,0 0.8,0.1 1.3,0.7 1.3,1.5 0,0.7 -0.6,1.4 -1.4,1.4 -0.3,0 -0.7,0 -1,0 -2.5,0 -4.5,2 -4.5,4.5 -0.2,0.3 -0.2,0.9 -0.2,1.5 z m 0,2.9 c 0,1.8 0,3.6 0,5.5 3.8,0 7.5,0 11.2,0 0,-1.8 0,-3.6 0,-5.5 -3.7,0 -7.4,0 -11.2,0 z m 11.2,13.5 c 0,-1.7 0,-3.4 0,-5.1 -3.8,0 -7.5,0 -11.2,0 0,1.6 0,3.2 0,4.7 0.1,0 0.1,-0.1 0.2,-0.1 0.8,-0.4 1.6,-0.9 2.4,-1.2 1.5,-0.7 3.1,-0.7 4.7,-0.1 0.9,0.4 1.8,0.9 2.7,1.4 0.4,0.2 0.8,0.3 1.2,0.4 z"
   class="st0" />
	<path
   id="path6"
   d="m 54.5,44.8 c 0,0.3 0,0.7 0,1 0,0.2 -0.1,0.4 -0.3,0.5 -2,1 -4.1,1.1 -6.1,0.1 -0.7,-0.3 -1.4,-0.7 -2.1,-1.1 -1.1,-0.5 -2.1,-0.5 -3.2,0 -0.8,0.4 -1.6,0.9 -2.4,1.2 -2,0.9 -3.9,0.8 -5.8,-0.2 -0.7,-0.4 -1.4,-0.8 -2.1,-1.1 -1.1,-0.5 -2.3,-0.4 -3.4,0.2 -0.8,0.4 -1.6,0.9 -2.4,1.2 -1.9,0.7 -3.7,0.6 -5.5,-0.3 -0.6,-0.3 -1.1,-0.6 -1.7,-0.9 -1.3,-0.7 -2.5,-0.7 -3.8,0 -0.8,0.4 -1.6,0.9 -2.5,1.3 C 11.4,47.4 9.7,47.3 8,46.4 7.7,46.3 7.6,46.1 7.6,45.8 c 0,-0.6 0,-1.2 0,-1.9 0,-0.5 0.4,-0.8 0.9,-0.5 0.5,0.3 1.1,0.6 1.7,0.7 0.9,0.2 1.7,0 2.4,-0.4 0.9,-0.5 1.7,-1 2.7,-1.3 1.6,-0.7 3.3,-0.6 4.9,0.1 0.8,0.4 1.6,0.8 2.4,1.2 1.1,0.6 2.2,0.6 3.4,0 0.8,-0.4 1.7,-0.9 2.5,-1.3 1.9,-0.8 3.9,-0.7 5.7,0.3 0.7,0.4 1.3,0.7 2,1.1 1,0.5 2.1,0.4 3.1,-0.1 0.9,-0.5 1.8,-1 2.7,-1.4 1.8,-0.7 3.6,-0.6 5.3,0.3 0.7,0.3 1.3,0.7 1.9,1 1.1,0.6 2.2,0.6 3.4,0 0.3,-0.2 0.7,-0.3 1,-0.5 0.4,-0.2 0.8,0 0.8,0.5 0,0 0,0 0,0 0.1,0.5 0.1,0.9 0.1,1.2 0,0 0,0 0,0 z"
   class="st0" />
	<path
   id="path8"
   d="m 54.5,51.8 c 0,0.3 0,0.7 0,1 0,0.2 -0.1,0.4 -0.3,0.5 -2.1,1.1 -4.2,1 -6.3,-0.1 -0.6,-0.3 -1.1,-0.6 -1.7,-0.9 -1.1,-0.6 -2.3,-0.6 -3.4,0 -0.7,0.4 -1.4,0.8 -2.1,1.1 -2.1,1 -4.1,0.9 -6.2,-0.2 -0.6,-0.3 -1.2,-0.7 -1.8,-1 -1.1,-0.5 -2.1,-0.5 -3.2,0 -0.8,0.4 -1.6,0.9 -2.5,1.3 -2,0.8 -3.9,0.7 -5.8,-0.3 -0.6,-0.3 -1.1,-0.6 -1.7,-0.9 -1.2,-0.6 -2.3,-0.6 -3.5,0 -0.8,0.4 -1.6,0.9 -2.5,1.3 -1.8,0.7 -3.6,0.6 -5.4,-0.2 -0.3,-0.1 -0.4,-0.3 -0.4,-0.6 0,-0.6 0,-1.3 0,-1.9 0,-0.5 0.4,-0.7 0.9,-0.5 0.6,0.3 1.2,0.7 1.8,0.8 0.8,0.1 1.5,0 2.2,-0.4 0.8,-0.4 1.6,-0.9 2.5,-1.3 1.9,-0.8 3.8,-0.7 5.6,0.2 0.7,0.3 1.3,0.7 1.9,1 1.1,0.6 2.2,0.6 3.3,0 0.8,-0.4 1.6,-0.9 2.5,-1.3 1.9,-0.8 3.8,-0.7 5.6,0.2 0.6,0.3 1.3,0.7 1.9,1 1.1,0.6 2.2,0.6 3.3,0 0.8,-0.4 1.6,-0.9 2.5,-1.3 1.9,-0.8 3.8,-0.7 5.7,0.2 0.8,0.4 1.5,0.9 2.4,1.2 0.9,0.4 1.9,0.3 2.8,-0.1 0.4,-0.2 0.7,-0.4 1.1,-0.5 0.4,-0.2 0.8,0 0.8,0.5 0,0 0,0 0,0 0,0.5 0,0.8 0,1.2 0,0 0,0 0,0 z"
   class="st0" />
</g>
</svg>
