<?xml version="1.0" encoding="utf-8"?>
<!-- Generator: Adobe Illustrator 23.0.3, SVG Export Plug-In . SVG Version: 6.00 Build 0)  -->
<svg version="1.1" id="Layer_1" xmlns="http://www.w3.org/2000/svg" xmlns:xlink="http://www.w3.org/1999/xlink" x="0px" y="0px"
	 viewBox="0 0 73 71.5" style="enable-background:new 0 0 73 71.5;" xml:space="preserve">
<style type="text/css">
	.st0{fill:#405437;}
</style>
<g>
	<path class="st0" d="M31.66,52.05c0.15,0.6,0.52,1.09,1.08,1.42c1.58,0.92,3.56-0.23,3.56-2.08c0-3.1,0-6.2-0.01-9.3
		c0-4.21,0-8.41,0-12.62c0-0.08,0.01-0.15,0.02-0.29c0.08,0.15,0.12,0.23,0.17,0.32c0.95,1.83,1.91,3.67,2.86,5.5
		c0.21,0.41,0.49,0.74,0.9,0.96c0.86,0.47,1.81,0.08,2.07-0.84c0.11-0.39,0.09-0.78-0.06-1.16c-0.19-0.51-0.39-1.03-0.59-1.54
		c-1.14-2.92-2.28-5.83-3.42-8.74c-0.35-0.89-0.7-1.79-1.05-2.68c-0.44-1.12-1.2-1.62-2.39-1.62c-0.88,0-1.77-0.03-2.65-0.03
		c-1.64,0.01-3.28,0.01-4.92,0.05c-0.94,0.02-1.59,0.54-1.99,1.37c-0.32,0.67-0.49,1.38-0.53,2.11c-0.08,1.34-0.12,2.67-0.14,4.01
		c-0.03,1.48-0.05,2.97-0.01,4.45c0.03,0.94,0.17,1.88,0.55,2.76c0.3,0.7,0.73,1.3,1.47,1.58c0.31,0.12,0.37,0.28,0.37,0.58
		c-0.01,1.99-0.01,3.98-0.01,5.98c0,1.18,0,2.35,0,3.53c0,1.9-0.01,3.79,0.01,5.69c0.01,1.04,0.53,1.79,1.5,2.16
		c0.96,0.36,1.84,0.17,2.55-0.57C31.29,52.76,31.46,52.38,31.66,52.05z M40.95,39.99c-0.39,0-0.76,0-1.12,0
		c-0.66,0-0.96,0.3-0.96,0.96c0,1.14,0.01,2.28,0.01,3.42c0,2.83-0.01,5.66-0.01,8.49c0,0.62,0.31,0.93,0.93,0.93
		c1.1,0,2.2,0,3.29-0.01c0.54,0,0.86-0.33,0.86-0.87c0-0.5-0.01-1-0.01-1.49c0-3.5,0.01-7,0.01-10.5c0-0.61-0.31-0.92-0.92-0.92
		c-0.38,0-0.77,0-1.17,0c0-0.39,0.01-0.75,0-1.11c-0.01-0.19-0.03-0.39-0.11-0.55c-0.06-0.13-0.23-0.29-0.34-0.28
		c-0.13,0.01-0.3,0.16-0.36,0.29c-0.08,0.17-0.1,0.38-0.11,0.57C40.94,39.27,40.95,39.62,40.95,39.99z M31.62,11.93
		c-1.95,0-3.5,1.55-3.5,3.5c0,1.94,1.55,3.49,3.48,3.49c1.94,0,3.51-1.55,3.51-3.49C35.11,13.49,33.56,11.93,31.62,11.93z"/>
	<path class="st0" d="M31.66,52.05c-0.21,0.32-0.38,0.71-0.65,1c-0.71,0.74-1.59,0.93-2.55,0.57c-0.97-0.37-1.49-1.12-1.5-2.16
		c-0.03-1.9-0.01-3.79-0.01-5.69c0-1.18,0-2.35,0-3.53c0-1.99,0-3.98,0.01-5.98c0-0.3-0.06-0.46-0.37-0.58
		c-0.74-0.28-1.16-0.88-1.47-1.58c-0.38-0.88-0.52-1.82-0.55-2.76c-0.04-1.48-0.02-2.97,0.01-4.45c0.02-1.34,0.07-2.68,0.14-4.01
		c0.04-0.73,0.21-1.44,0.53-2.11c0.4-0.83,1.05-1.35,1.99-1.37c1.64-0.04,3.28-0.04,4.92-0.05c0.88,0,1.77,0.03,2.65,0.03
		c1.19,0,1.95,0.5,2.39,1.62c0.35,0.89,0.7,1.79,1.05,2.68c1.14,2.91,2.28,5.83,3.42,8.74c0.2,0.51,0.39,1.02,0.59,1.54
		c0.14,0.38,0.17,0.77,0.06,1.16c-0.26,0.92-1.21,1.31-2.07,0.84c-0.41-0.22-0.69-0.56-0.9-0.96c-0.95-1.84-1.91-3.67-2.86-5.5
		c-0.04-0.08-0.09-0.17-0.17-0.32c-0.01,0.14-0.02,0.22-0.02,0.29c0,4.21,0,8.41,0,12.62c0,3.1,0.01,6.2,0.01,9.3
		c0,1.85-1.98,3-3.56,2.08C32.18,53.14,31.81,52.65,31.66,52.05z"/>
	<path class="st0" d="M40.95,39.99c0-0.37-0.01-0.72,0-1.06c0.01-0.19,0.02-0.4,0.11-0.57c0.06-0.13,0.23-0.28,0.36-0.29
		c0.11-0.01,0.28,0.16,0.34,0.28c0.08,0.16,0.1,0.36,0.11,0.55c0.02,0.36,0,0.72,0,1.11c0.4,0,0.78,0,1.17,0
		c0.61,0,0.92,0.31,0.92,0.92c0,3.5-0.01,7-0.01,10.5c0,0.5,0.01,1,0.01,1.49c0,0.54-0.32,0.87-0.86,0.87
		c-1.1,0.01-2.2,0.01-3.29,0.01c-0.62,0-0.93-0.31-0.93-0.93c0-2.83,0.01-5.66,0.01-8.49c0-1.14-0.01-2.28-0.01-3.42
		c0-0.66,0.3-0.96,0.96-0.96C40.19,39.99,40.56,39.99,40.95,39.99z"/>
	<path class="st0" d="M31.62,11.93c1.94,0,3.5,1.57,3.49,3.51c0,1.93-1.57,3.49-3.51,3.49c-1.93,0-3.48-1.56-3.48-3.49
		C28.12,13.48,29.67,11.93,31.62,11.93z"/>
</g>
</svg>
