<?xml version="1.0" encoding="UTF-8" standalone="no"?>
<svg
   xmlns:dc="http://purl.org/dc/elements/1.1/"
   xmlns:cc="http://creativecommons.org/ns#"
   xmlns:rdf="http://www.w3.org/1999/02/22-rdf-syntax-ns#"
   xmlns:svg="http://www.w3.org/2000/svg"
   xmlns="http://www.w3.org/2000/svg"
   xmlns:sodipodi="http://sodipodi.sourceforge.net/DTD/sodipodi-0.dtd"
   xmlns:inkscape="http://www.inkscape.org/namespaces/inkscape"
   inkscape:version="1.0 (4035a4fb49, 2020-05-01)"
   height="31.303768"
   width="41.777687"
   sodipodi:docname="Wifi-Accom.svg"
   xml:space="preserve"
   viewBox="0 0 41.777688 31.303769"
   y="0px"
   x="0px"
   id="Layer_1"
   version="1.1"><metadata
   id="metadata17"><rdf:RDF><cc:Work
       rdf:about=""><dc:format>image/svg+xml</dc:format><dc:type
         rdf:resource="http://purl.org/dc/dcmitype/StillImage" /></cc:Work></rdf:RDF></metadata><defs
   id="defs15" /><sodipodi:namedview
   inkscape:current-layer="Layer_1"
   inkscape:window-maximized="1"
   inkscape:window-y="-9"
   inkscape:window-x="-9"
   inkscape:cy="15.65"
   inkscape:cx="20.977687"
   inkscape:zoom="13.322633"
   showgrid="false"
   id="namedview13"
   inkscape:window-height="1001"
   inkscape:window-width="1920"
   inkscape:pageshadow="2"
   inkscape:pageopacity="0"
   guidetolerance="10"
   gridtolerance="10"
   objecttolerance="10"
   borderopacity="1"
   bordercolor="#666666"
   pagecolor="#ffffff" />
<style
   id="style2"
   type="text/css">
	.st0{fill:#1D3B60;}
</style>
<g
   transform="translate(-10.172312,-15.5)"
   id="g10">
	<path
   id="path4"
   d="m 30.9,15.5 c 3.9,0 7.1,0.6 10.2,1.8 2.8,1.1 5.4,2.6 7.6,4.6 0.9,0.8 1.7,1.6 2.5,2.4 1,1.1 1,2.7 0,3.8 -1,1 -2.7,1.1 -3.8,0.2 -0.8,-0.7 -1.6,-1.6 -2.5,-2.3 -2.1,-1.8 -4.6,-3.2 -7.3,-4 -4,-1.2 -8,-1.3 -12,-0.1 -2.4,0.7 -4.6,1.8 -6.6,3.2 -1.4,1.1 -2.7,2.3 -3.9,3.6 -0.5,0.5 -1.1,0.8 -1.8,0.9 -1,0.1 -2.2,-0.4 -2.7,-1.3 C 10,27.2 10,26 10.8,25.2 c 1.9,-2.1 4,-4 6.3,-5.5 2.1,-1.3 4.3,-2.4 6.7,-3 2.6,-0.8 5.1,-1.2 7.1,-1.2 z"
   class="st0" />
	<path
   id="path6"
   d="m 32.1,25.6 c 2.3,0.1 4.4,0.7 6.5,1.6 2,0.9 3.6,2.3 5.1,3.9 0.5,0.5 1,1 1.1,1.8 0.3,1.2 -0.2,2.7 -1.3,3.3 -1.2,0.7 -2.6,0.6 -3.6,-0.2 -1,-0.8 -1.8,-1.8 -2.9,-2.5 -2.3,-1.6 -4.9,-2.1 -7.7,-1.4 -2.1,0.5 -3.8,1.6 -5.2,3.1 -0.6,0.6 -1.2,1.2 -1.9,1.6 -1.1,0.7 -2.7,0.4 -3.6,-0.6 -0.9,-1.1 -1.1,-2.7 -0.2,-3.8 0.6,-0.8 1.3,-1.4 2,-2.1 0.9,-0.9 2,-1.7 3.1,-2.4 1.8,-1.1 3.8,-1.8 5.9,-2.1 0.9,-0.2 1.8,-0.2 2.7,-0.2 z"
   class="st0" />
	<path
   id="path8"
   d="M 36.1,42.2 C 36,45 33.5,46.9 31,46.8 c -2.9,-0.2 -4.8,-2.6 -4.6,-5.1 0.2,-2.9 2.6,-4.7 5,-4.6 3,0.1 4.8,2.6 4.7,5.1 z"
   class="st0" />
</g>
</svg>
