<?xml version="1.0" encoding="utf-8"?>
<!-- Generator: Adobe Illustrator 23.0.3, SVG Export Plug-In . SVG Version: 6.00 Build 0)  -->
<svg version="1.1" id="Layer_1" xmlns="http://www.w3.org/2000/svg" xmlns:xlink="http://www.w3.org/1999/xlink" x="0px" y="0px"
	 viewBox="0 0 73 71.5" style="enable-background:new 0 0 73 71.5;" xml:space="preserve">
<style type="text/css">
	.st0{fill:#405437;}
</style>
<g>
	<path class="st0" d="M35.52,16.61c3.91,0.01,7.1,0.61,10.19,1.8c2.81,1.09,5.36,2.6,7.62,4.58c0.88,0.76,1.71,1.58,2.52,2.41
		c1.05,1.07,1.02,2.75-0.03,3.84c-1,1.04-2.68,1.13-3.77,0.17c-0.84-0.74-1.6-1.58-2.45-2.3c-2.15-1.83-4.57-3.16-7.27-4
		c-3.98-1.23-7.98-1.27-11.98-0.15c-2.39,0.67-4.59,1.77-6.61,3.24c-1.45,1.05-2.67,2.33-3.93,3.58c-0.49,0.49-1.06,0.79-1.75,0.87
		c-1.01,0.12-2.17-0.44-2.65-1.31c-0.62-1.11-0.58-2.28,0.19-3.14c1.88-2.09,3.95-3.96,6.33-5.48c2.1-1.33,4.34-2.35,6.72-3.04
		C31.08,16.97,33.57,16.59,35.52,16.61z"/>
	<path class="st0" d="M36.75,26.67c2.28,0.1,4.43,0.66,6.46,1.64c1.96,0.94,3.63,2.28,5.11,3.87c0.48,0.52,0.95,1.03,1.15,1.75
		c0.33,1.21-0.21,2.66-1.27,3.31c-1.15,0.71-2.61,0.62-3.57-0.22c-0.96-0.84-1.84-1.79-2.88-2.5c-2.34-1.61-4.95-2.07-7.74-1.43
		c-2.09,0.48-3.76,1.63-5.23,3.14c-0.58,0.6-1.2,1.21-1.9,1.65c-1.14,0.7-2.75,0.36-3.61-0.63c-0.95-1.09-1.1-2.66-0.24-3.76
		c0.59-0.76,1.3-1.44,2-2.11c0.94-0.91,1.95-1.72,3.08-2.39c1.83-1.1,3.8-1.81,5.91-2.1C34.92,26.75,35.84,26.73,36.75,26.67z"/>
	<path class="st0" d="M40.73,43.29c-0.11,2.84-2.57,4.77-5.08,4.63c-2.89-0.16-4.76-2.64-4.59-5.11c0.19-2.91,2.6-4.66,4.97-4.57
		C39.02,38.35,40.86,40.83,40.73,43.29z"/>
</g>
</svg>
