<?xml version="1.0" encoding="utf-8"?>
<!-- Generator: Adobe Illustrator 23.0.3, SVG Export Plug-In . SVG Version: 6.00 Build 0)  -->
<svg version="1.1" id="Layer_1" xmlns="http://www.w3.org/2000/svg" xmlns:xlink="http://www.w3.org/1999/xlink" x="0px" y="0px"
	 viewBox="0 0 1350.75 16071.34" style="enable-background:new 0 0 1350.75 16071.34;" xml:space="preserve">
<style type="text/css">
	.st0{fill:#CADCE0;}
	.st1{opacity:0.6;}
	.st2{fill:#E6EDEE;}
	.st3{fill:#C5D8DD;}
	.st4{clip-path:url(#SVGID_2_);fill:#FFFFFF;}
	.st5{clip-path:url(#SVGID_4_);fill:#DBEAEF;}
	.st6{clip-path:url(#SVGID_6_);fill:url(#More_mountains_1_);}
	.st7{clip-path:url(#SVGID_8_);}
	.st8{opacity:0.4;}
	.st9{fill:#FFFFFF;}
	.st10{opacity:0.08;}
	.st11{fill:#476169;}
	.st12{opacity:0.2;fill:#FFFFFF;enable-background:new    ;}
</style>
<g id="BACKGROUND">
	<rect x="2.61" y="2.12" class="st0" width="1349.17" height="16041.9"/>
	<g class="st1">
		<path class="st2" d="M256.63,73.36c0,0,3.75,0.73,19.14,12.19c8.73,6.5,12.73,12.51,6.38,17.7c-2.71,2.22-6.37,5.23-8.72,7.24
			c-6.87,5.89,6.78,15.42,17.68,20.62c10.9,5.2,22,17.87-5.59,29.37c-27.6,11.5-32.92,20.09-25.04,33.4
			c10.12,17.09,101.87,97.74,182.23,145.26l77.73,14.47c0,0-88.59-35.13-227.24-144.12c-16.25-12.77-33.7-27.89-21.62-36.33
			c12.08-8.45,38.09-16.51,34.53-31.6c-2.23-9.46-11.86-12.32-23.05-18.72c-7.96-4.55-11.23-9.3-0.76-17.48
			c8.94-6.99,4.43-13.88-10.22-23.6C261.57,74.76,256.63,73.36,256.63,73.36z"/>
		<path class="st2" d="M261.89,71.95c0,0,15.45,10.08,21.7,15.53s8.48,11.71,3.45,16.02c-5.03,4.31-12.12,9.38-5.73,14.19
			c6.4,4.81,14.19,7.82,20.86,13.29c7.94,6.5,11.85,15.27,3.08,24.18s-27.55,15.78-29.36,22.15c-3.09,10.85,26.95,28.38,62.02,53.8
			c23.53,17.06,166.66,96.03,166.66,96.03l8.19-25.97c1.65,0.23-20.12,0.25-170.03-82.56c-31.36-17.32-65.19-37.6-56.15-44.31
			c10.56-7.83,34.41-18.58,26.8-34.86c-5.1-10.92-26.09-18.98-31.01-23.27c-4.92-4.29,0.86-7.35,6.17-12.96s2.45-12.52-10.48-21.5
			C265.13,72.74,261.89,71.95,261.89,71.95z"/>
	</g>
	<path id="Mid_mountains_4_" class="st3" d="M2.62,366.63c17.72,23.29,152.11,180.9,355.53,104.45
		c163.43-61.43,176.37-28.89,404.05,40.16c207.26,62.86,413.69-148.67,489.03-310.76c37.12-79.87,99.5-90.88,99.5-90.88
		l2.05,15934.11H5.53C5.53,16043.71,1.24,364.81,2.62,366.63z"/>
	<g>
		<g>
			<defs>
				<rect id="SVGID_1_" x="1.6" y="1.61" width="1350.44" height="16032.49"/>
			</defs>
			<clipPath id="SVGID_2_">
				<use xlink:href="#SVGID_1_"  style="overflow:visible;"/>
			</clipPath>
			<path id="Back_mountain_2_" class="st4" d="M1402.91,4.9c0,0-715.63,362.1-806.92,323.66S314.82,57.73,191.68,52
				c-82.73-3.85-442.87,327.8-442.87,327.8v355.53l1667.57-6.99C1416.38,728.34,1402.91,3.29,1402.91,4.9z"/>
		</g>
		<g>
			<defs>
				<rect id="SVGID_3_" x="1.6" y="1.61" width="1350.44" height="16032.49"/>
			</defs>
			<clipPath id="SVGID_4_">
				<use xlink:href="#SVGID_3_"  style="overflow:visible;"/>
			</clipPath>
			<path class="st5" d="M-68.71,221.31C139.09,44.3,185.7,52.35,185.7,52.35s-8.98,11.54-5.77,16.03
				c5.54,7.76,12.38,10.2,10.26,17.96c-1.92,7.05-26.3,6.41-16.68,21.16s56.44,43.61,58.36,64.78c1.92,21.16-10.9,42.33-54.51,78.24
				s-40.41,76.32-16.03,98.77c24.37,22.45,95.56,48.89,110.95,57.86c15.39,8.98,114.16,8.34,114.16,8.34h-599.59
				C-213.15,415.5-158.66,297.94-68.71,221.31z"/>
		</g>
		<g>
			<defs>
				<rect id="SVGID_5_" x="1.6" y="1.61" width="1350.44" height="16032.49"/>
			</defs>
			<clipPath id="SVGID_6_">
				<use xlink:href="#SVGID_5_"  style="overflow:visible;"/>
			</clipPath>
			
				<linearGradient id="More_mountains_1_" gradientUnits="userSpaceOnUse" x1="782.2197" y1="14986.9062" x2="782.2197" y2="15986.9082" gradientTransform="matrix(1 0 0 -1 0 16143.9746)">
				<stop  offset="0" style="stop-color:#C5D8DD"/>
				<stop  offset="4.425704e-03" style="stop-color:#C5D8DD"/>
				<stop  offset="0.6459" style="stop-color:#E4EEF2"/>
				<stop  offset="1" style="stop-color:#F0F8FD"/>
			</linearGradient>
			<path id="More_mountains_2_" class="st6" d="M-3.51,157.07c0,0-89.84,320.07,390.52,194.15
				c198.18-51.95,309.77-167.39,396.35-167.39c82.82,0,364.53,111.26,604.15,169.32c365.33,88.51,169.07,919.03-358.23,790.42
				C795,1086.43,726.16,826.78,472.14,855C137.86,892.14-5.51,735.33-5.51,735.33S-3.51,155.47-3.51,157.07z"/>
		</g>
	</g>
	<g>
		<g>
			<defs>
				<rect id="SVGID_7_" x="3.57" y="715" width="1349.14" height="15325.67"/>
			</defs>
			<clipPath id="SVGID_8_">
				<use xlink:href="#SVGID_7_"  style="overflow:visible;"/>
			</clipPath>
			<g class="st7">
				<g class="st8">
					<path class="st9" d="M198.92,797.57c0,0-12.22,2.38-62.3,39.65c-28.41,21.15-41.42,40.7-20.75,57.6
						c8.82,7.22,20.74,17.01,28.37,23.55c22.37,19.18-22.07,50.18-57.55,67.11s-71.61,58.16,18.2,95.57
						c89.81,37.42,107.14,65.37,81.48,108.69c-32.94,55.61-331.53,318.09-593.03,472.73l-252.95,47.09
						c0,0,288.3-114.32,739.53-469.02c52.88-41.57,109.66-90.75,70.35-118.25s-123.94-53.74-112.38-102.84
						c7.25-30.79,38.59-40.1,75.02-60.92c25.89-14.8,36.55-30.25,2.46-56.89c-29.09-22.74-14.42-45.19,33.26-76.81
						C182.84,802.14,198.92,797.57,198.92,797.57z"/>
					<path class="st9" d="M181.81,792.98c0,0-50.27,32.79-70.62,50.56s-27.6,38.1-11.24,52.13s39.45,30.51,18.63,46.17
						S72.4,967.3,50.7,985.08c-25.82,21.16-38.56,49.69-10.03,78.7c28.52,29,89.66,51.36,95.56,72.09
						c10.05,35.31-87.71,92.35-201.85,175.1c-76.56,55.51-542.35,312.51-542.35,312.51l-26.64-84.52
						c-5.35,0.76,65.48,0.81,553.34-268.68c102.06-56.38,212.17-122.35,182.73-144.19c-34.37-25.5-111.97-60.46-87.23-113.45
						c16.59-35.55,84.89-61.77,100.92-75.73c16.01-13.95-2.79-23.92-20.09-42.16s-7.99-40.74,34.11-69.96
						S181.81,792.98,181.81,792.98z"/>
				</g>
				<g class="st10">
					<path class="st11" d="M1159.45,1142.48c0,0,14.65,2.85,74.71,47.55c34.08,25.36,49.67,48.81,24.89,69.07
						c-10.58,8.65-24.87,20.39-34.02,28.25c-26.83,23.01,26.46,60.17,69.02,80.48c42.55,20.3,85.88,69.74-21.82,114.61
						s-128.49,78.39-97.71,130.35c39.5,66.69,397.59,381.47,711.18,566.91l303.34,56.47c0,0-345.74-137.1-886.86-562.47
						c-63.42-49.85-131.5-108.83-84.36-141.8s148.64-64.45,134.77-123.33c-8.7-36.92-46.28-48.09-89.97-73.06
						c-31.05-17.75-43.83-36.28-2.96-68.23c34.89-27.27,17.3-54.19-39.89-92.11C1178.74,1147.97,1159.45,1142.48,1159.45,1142.48z"
						/>
					<path class="st11" d="M1179.98,1136.98c0,0,60.28,39.32,84.68,60.63s33.1,45.69,13.47,62.52
						c-19.63,16.83-47.31,36.59-22.35,55.37s55.38,30.53,81.4,51.85c30.97,25.38,46.24,59.59,12.03,94.38s-107.52,61.59-114.6,86.46
						c-12.05,42.35,105.19,110.74,242.06,209.98c91.81,66.57,650.41,374.77,650.41,374.77l31.95-101.36
						c6.42,0.91-78.53,0.98-663.58-322.21c-122.39-67.61-254.44-146.73-219.14-172.92c41.22-30.58,134.28-72.51,104.61-136.06
						c-19.9-42.63-101.81-74.08-121.02-90.81c-19.2-16.72,3.35-28.68,24.09-50.56s9.58-48.85-40.91-83.89
						C1192.62,1140.08,1179.98,1136.98,1179.98,1136.98z"/>
				</g>
			</g>
		</g>
	</g>
</g>
<g id="white">
	<rect x="3.57" y="0.71" class="st12" width="1340" height="16043.25"/>
</g>
</svg>
