<?xml version="1.0" encoding="UTF-8" standalone="no"?>
<svg
   xmlns:dc="http://purl.org/dc/elements/1.1/"
   xmlns:cc="http://creativecommons.org/ns#"
   xmlns:rdf="http://www.w3.org/1999/02/22-rdf-syntax-ns#"
   xmlns:svg="http://www.w3.org/2000/svg"
   xmlns="http://www.w3.org/2000/svg"
   xmlns:sodipodi="http://sodipodi.sourceforge.net/DTD/sodipodi-0.dtd"
   xmlns:inkscape="http://www.inkscape.org/namespaces/inkscape"
   inkscape:version="1.0 (4035a4fb49, 2020-05-01)"
   height="68.921684"
   width="308.08453"
   sodipodi:docname="Extras-logo.svg"
   xml:space="preserve"
   viewBox="0 0 308.08453 68.921684"
   y="0px"
   x="0px"
   id="Layer_1"
   version="1.1"><metadata
   id="metadata115"><rdf:RDF><cc:Work
       rdf:about=""><dc:format>image/svg+xml</dc:format><dc:type
         rdf:resource="http://purl.org/dc/dcmitype/StillImage" /></cc:Work></rdf:RDF></metadata><defs
   id="defs113" /><sodipodi:namedview
   inkscape:current-layer="Layer_1"
   inkscape:window-maximized="1"
   inkscape:window-y="-9"
   inkscape:window-x="-9"
   inkscape:cy="33.721683"
   inkscape:cx="153.85771"
   inkscape:zoom="2.0133333"
   showgrid="false"
   id="namedview111"
   inkscape:window-height="1001"
   inkscape:window-width="1920"
   inkscape:pageshadow="2"
   inkscape:pageopacity="0"
   guidetolerance="10"
   gridtolerance="10"
   objecttolerance="10"
   borderopacity="1"
   bordercolor="#666666"
   pagecolor="#ffffff" />
<style
   id="style2"
   type="text/css">
	.st0{fill-rule:evenodd;clip-rule:evenodd;fill:#161F48;}
</style>
<g
   transform="translate(-146.14229,-116.27832)"
   id="g108">
	<g
   id="SLOGAN">
		<path
   id="path4"
   d="m 155.54,163.68 c 0.52,-0.09 1.25,-0.1 1.54,0.2 0.25,0.27 0.37,1.24 0.08,1.7 -0.29,0.45 -1.64,0.61 -2.14,0.16 -0.37,-0.33 -0.35,-1.37 -0.12,-1.74 0.12,-0.21 0.36,-0.27 0.64,-0.32 z"
   class="st0" />
		<path
   id="path6"
   d="m 188.92,163.68 c 0.52,-0.09 1.25,-0.1 1.54,0.2 0.25,0.27 0.37,1.24 0.08,1.7 -0.29,0.45 -1.64,0.61 -2.14,0.16 -0.37,-0.33 -0.35,-1.37 -0.12,-1.74 0.12,-0.21 0.36,-0.27 0.64,-0.32 z"
   class="st0" />
		<path
   id="path8"
   d="m 207.82,163.68 c 0.52,-0.09 1.25,-0.1 1.54,0.2 0.25,0.27 0.37,1.24 0.08,1.7 -0.29,0.45 -1.64,0.61 -2.14,0.16 -0.37,-0.33 -0.35,-1.37 -0.12,-1.74 0.12,-0.21 0.35,-0.27 0.64,-0.32 z"
   class="st0" />
		<path
   id="path10"
   d="m 347,163.68 c 0.52,-0.09 1.25,-0.1 1.54,0.2 0.25,0.27 0.37,1.24 0.08,1.7 -0.29,0.45 -1.64,0.61 -2.14,0.16 -0.37,-0.33 -0.35,-1.37 -0.12,-1.74 0.12,-0.21 0.35,-0.27 0.64,-0.32 z"
   class="st0" />
		<path
   id="path12"
   d="m 379.26,163.68 c 0.52,-0.09 1.25,-0.1 1.54,0.2 0.25,0.27 0.37,1.24 0.08,1.7 -0.29,0.45 -1.64,0.61 -2.14,0.16 -0.37,-0.33 -0.35,-1.37 -0.12,-1.74 0.12,-0.21 0.36,-0.27 0.64,-0.32 z"
   class="st0" />
		<path
   id="path14"
   d="m 197.81,163.6 c 0.15,0.42 0.2,1.25 -0.04,1.62 -0.52,-0.06 -0.97,-0.29 -1.42,-0.12 -0.62,0.23 -0.45,1.11 -0.49,1.94 0.52,0.03 1.18,-0.08 1.58,0.08 0.23,0.37 0.23,1.33 0,1.7 -0.43,0.09 -1.04,0.01 -1.54,0.04 -0.12,2.04 0.04,4.36 -0.08,6.39 -0.41,0.32 -1.68,0.27 -2.14,0.04 -0.09,-2.06 -0.01,-4.3 -0.04,-6.43 -0.36,0 -0.73,0 -1.09,0 -0.29,-0.33 -0.28,-1.36 -0.04,-1.74 0.26,-0.13 0.72,-0.06 1.09,-0.08 -0.04,-1.99 0.46,-3.58 2.23,-3.76 0.65,-0.08 1.52,-0.01 1.98,0.32 z"
   class="st0" />
		<path
   id="path16"
   d="m 302.39,163.6 c 0.15,0.42 0.2,1.25 -0.04,1.62 -0.53,-0.06 -0.97,-0.29 -1.42,-0.12 -0.62,0.23 -0.45,1.11 -0.49,1.94 0.52,0.03 1.18,-0.08 1.58,0.08 0.23,0.37 0.23,1.33 0,1.7 -0.43,0.09 -1.04,0.01 -1.54,0.04 -0.12,2.04 0.04,4.36 -0.08,6.39 -0.41,0.32 -1.68,0.27 -2.14,0.04 -0.09,-2.06 -0.01,-4.3 -0.04,-6.43 -0.36,0 -0.73,0 -1.09,0 -0.29,-0.33 -0.28,-1.36 -0.04,-1.74 0.26,-0.13 0.72,-0.06 1.09,-0.08 -0.04,-1.99 0.46,-3.58 2.23,-3.76 0.66,-0.08 1.52,-0.01 1.98,0.32 z"
   class="st0" />
		<path
   id="path18"
   d="m 186.32,163.52 c 0.13,3.74 0.14,8.04 0,11.77 -0.45,0.25 -1.65,0.25 -2.1,0 -0.07,-3.83 -0.07,-7.94 0,-11.77 0.54,-0.25 1.55,-0.25 2.1,0 z"
   class="st0" />
		<path
   id="path20"
   d="m 339.83,163.52 c 0.09,2.21 0.01,4.6 0.04,6.88 0.53,-0.58 1.24,-1.6 1.86,-2.43 0.21,-0.28 0.43,-0.68 0.65,-0.81 0.52,-0.3 1.71,-0.18 2.23,0.12 -0.12,0.78 -0.73,1.26 -1.17,1.74 -0.46,0.5 -0.9,1.01 -1.34,1.54 0.51,0.77 0.96,1.54 1.46,2.31 0.47,0.73 1.14,1.41 1.34,2.39 -0.5,0.22 -1.72,0.39 -2.22,0.12 -0.24,-0.13 -0.53,-0.74 -0.73,-1.05 -0.66,-1.05 -1.45,-2.32 -2.06,-3.24 -0.03,1.39 0.05,2.89 -0.04,4.21 -0.45,0.25 -1.65,0.25 -2.1,0 -0.07,-3.83 -0.07,-7.94 0,-11.77 0.53,-0.26 1.54,-0.26 2.08,-0.01 z"
   class="st0" />
		<path
   id="path22"
   d="m 356.84,163.52 c 0.18,1.29 0.03,2.91 0.08,4.33 0.4,-0.22 0.77,-0.62 1.25,-0.81 1.16,-0.46 2.61,-0.08 3.24,0.69 1.28,1.57 0.47,5.02 0.65,7.57 -0.45,0.24 -1.65,0.25 -2.1,0 -0.5,-1.68 0.7,-5.92 -0.89,-6.43 -1,-0.32 -1.71,0.54 -2.14,1.13 -0.05,1.74 0.11,3.69 -0.08,5.3 -0.45,0.25 -1.65,0.25 -2.1,0 -0.07,-3.83 -0.07,-7.94 0,-11.77 0.53,-0.26 1.55,-0.26 2.09,-0.01 z"
   class="st0" />
		<path
   id="path24"
   d="m 376.26,163.52 c 0.13,3.74 0.13,8.04 0,11.77 -0.45,0.25 -1.65,0.25 -2.1,0 -0.07,-3.83 -0.07,-7.94 0,-11.77 0.55,-0.25 1.56,-0.25 2.1,0 z"
   class="st0" />
		<path
   id="path26"
   d="m 390.55,163.56 c 0.04,3.79 0.12,8.01 -0.04,11.77 -0.38,0.19 -1.36,0.18 -1.74,0 -0.15,-0.19 -0.06,-0.62 -0.08,-0.93 -0.59,0.4 -1.24,1.11 -2.18,1.21 -1.12,0.12 -2.04,-0.19 -2.63,-0.77 -1.98,-1.92 -1.42,-7.64 1.78,-7.97 1.36,-0.14 1.99,0.34 2.71,0.97 0.03,-1.42 -0.05,-2.94 0.04,-4.29 0.42,-0.3 1.71,-0.3 2.14,0.01 z m -4.25,5.22 c -1.83,0.31 -1.88,5.39 0.61,4.94 0.45,-0.08 1.35,-0.84 1.46,-1.25 0.19,-0.79 -0.01,-1.65 0,-2.51 -0.57,-0.58 -0.96,-1.37 -2.07,-1.18 z"
   class="st0" />
		<path
   id="path28"
   d="m 152.73,166.55 c -0.55,-0.01 -1.26,-0.64 -2.06,-0.73 -1.05,-0.12 -2.05,0.18 -1.94,1.3 0.08,0.84 1.2,1.21 1.94,1.54 1.3,0.57 2.71,1.33 2.87,2.99 0.26,2.67 -1.84,4.18 -4.77,3.97 -0.52,-0.04 -1.01,-0.16 -1.46,-0.32 -0.31,-0.12 -0.89,-0.33 -1.05,-0.69 -0.21,-0.44 -0.12,-1.33 0.12,-1.74 0.89,0.18 1.38,0.78 2.43,0.89 1.27,0.13 2.64,-0.32 2.31,-1.7 -0.19,-0.79 -1.24,-1.1 -1.94,-1.42 -1.2,-0.54 -2.34,-1.16 -2.71,-2.47 -0.66,-2.34 1.06,-3.97 3.03,-4.17 0.97,-0.09 1.59,0 2.39,0.28 0.34,0.12 0.78,0.23 0.93,0.53 0.21,0.42 0.09,1.35 -0.09,1.74 z"
   class="st0" />
		<path
   id="path30"
   d="m 322.83,165.13 c 0.17,0.49 0.04,1.28 0.08,1.9 0.61,0.04 1.38,-0.08 1.86,0.08 0.2,0.43 0.24,1.32 -0.04,1.7 -0.53,0.09 -1.23,0.01 -1.82,0.04 0.12,1.04 -0.15,3.03 0,4.09 0.13,0.9 0.94,0.86 1.86,0.61 0.16,0.42 0.28,1.22 0.04,1.62 -0.28,0.46 -1.44,0.47 -2.1,0.4 -2.79,-0.26 -1.87,-3.82 -2.02,-6.72 -0.35,-0.02 -0.81,0.05 -1.09,-0.04 -0.27,-0.4 -0.23,-1.25 -0.04,-1.7 0.26,-0.13 0.71,-0.07 1.09,-0.08 0.12,-0.54 -0.04,-1.36 0.08,-1.9 0.45,-0.24 1.64,-0.25 2.1,0 z"
   class="st0" />
		<path
   id="path32"
   d="m 399.45,175.33 c -0.37,0.19 -1.27,0.16 -1.7,0.04 -0.13,-0.15 -0.06,-0.5 -0.08,-0.77 -0.87,1.11 -3.5,1.47 -4.65,0.24 -0.62,-0.65 -0.91,-2.14 -0.28,-3.11 0.76,-1.17 2.48,-1.34 4.53,-1.3 0.37,-1.55 -0.64,-2.09 -2.14,-1.82 -0.78,0.14 -1.46,0.67 -2.02,0.69 -0.29,-0.26 -0.4,-1.01 -0.2,-1.42 0.34,-0.72 2.28,-1.01 3.2,-1.01 2.02,0 3.24,0.63 3.4,2.47 0.15,1.91 -0.11,3.99 -0.06,5.99 z m -4.65,-3.03 c -0.74,0.88 0.11,1.96 1.29,1.74 0.33,-0.06 1.09,-0.5 1.21,-0.93 0.11,-0.4 -0.08,-0.78 0,-1.25 -1.15,0.03 -2.02,-0.13 -2.5,0.44 z"
   class="st0" />
		<path
   id="path34"
   d="m 166.73,168.21 c 0.62,-0.44 1.23,-1.21 2.23,-1.34 4.23,-0.54 3.17,4.82 3.16,8.42 -0.45,0.25 -1.65,0.24 -2.1,0 -0.16,-1.39 0.07,-3.47 -0.04,-4.98 -0.05,-0.66 -0.3,-1.3 -0.77,-1.46 -1.02,-0.34 -1.65,0.61 -2.1,1.17 -0.03,1.74 0.05,3.59 -0.04,5.26 -0.45,0.25 -1.65,0.24 -2.1,0 -0.15,-1.36 0.06,-3.39 -0.04,-4.9 -0.05,-0.69 -0.27,-1.37 -0.77,-1.54 -1.01,-0.33 -1.65,0.6 -2.1,1.17 -0.03,1.74 0.05,3.59 -0.04,5.26 -0.45,0.25 -1.65,0.25 -2.1,0 -0.07,-2.6 -0.07,-5.49 0,-8.09 0.43,-0.26 1.3,-0.22 1.78,-0.04 0.13,0.22 0.07,0.63 0.08,0.97 0.52,-0.36 1.19,-1.14 2.14,-1.25 1.38,-0.16 2.33,0.4 2.81,1.35 z"
   class="st0" />
		<path
   id="path36"
   d="m 176.69,174.64 c -0.05,1.23 0.1,2.66 -0.08,3.76 -0.47,0.24 -1.63,0.24 -2.1,0 -0.07,-3.64 -0.07,-7.57 0,-11.21 0.33,-0.25 1.35,-0.22 1.74,-0.04 0.15,0.21 0.05,0.68 0.08,1.01 0.81,-0.63 1.56,-1.47 3.28,-1.29 3.26,0.33 3.39,6.21 1.42,8.01 -1.11,1 -3.36,0.99 -4.34,-0.24 z m 2.14,-0.97 c 1.66,-0.49 1.66,-5.31 -0.69,-4.9 -0.45,0.08 -1.35,0.8 -1.46,1.25 -0.17,0.74 -0.01,1.48 0,2.51 0.56,0.58 1.03,1.47 2.15,1.14 z"
   class="st0" />
		<path
   id="path38"
   d="m 219.5,175.29 c -0.45,0.24 -1.65,0.25 -2.1,0 -0.5,-1.68 0.71,-5.92 -0.89,-6.43 -1,-0.32 -1.71,0.54 -2.14,1.13 -0.05,1.74 0.11,3.69 -0.08,5.3 -0.45,0.25 -1.65,0.25 -2.1,0 -0.07,-2.6 -0.07,-5.49 0,-8.09 0.43,-0.26 1.3,-0.22 1.78,-0.04 0.13,0.22 0.07,0.63 0.08,0.97 0.33,-0.19 0.65,-0.59 1.01,-0.81 1.47,-0.88 3.43,-0.42 4.09,0.81 0.92,1.74 0.14,4.95 0.35,7.16 z"
   class="st0" />
		<path
   id="path40"
   d="m 245.85,166.91 c 1.96,-0.21 3.48,0.33 4.21,1.54 1.08,1.8 0.65,5.16 -0.85,6.35 -1.54,1.22 -4.79,1.13 -6.03,-0.45 -1.18,-1.5 -1,-4.63 -0.08,-5.95 0.57,-0.8 1.49,-1.35 2.75,-1.49 z m -0.12,6.84 c 0.57,0.21 1.23,0.14 1.66,-0.08 1.27,-0.65 1.54,-4.48 -0.24,-4.98 -0.29,-0.08 -0.84,-0.04 -1.05,0 -1.94,0.33 -1.96,4.48 -0.37,5.06 z"
   class="st0" />
		<path
   id="path42"
   d="m 267.05,169.1 c -0.48,0.06 -0.8,-0.2 -1.25,-0.12 -0.67,0.12 -0.98,0.88 -1.34,1.29 -0.03,1.65 0.05,3.4 -0.04,4.98 -0.41,0.31 -1.68,0.28 -2.14,0.04 -0.07,-2.6 -0.07,-5.49 0,-8.09 0.43,-0.26 1.3,-0.22 1.78,-0.04 0.13,0.23 0.07,0.66 0.08,1.01 0.39,-0.32 0.87,-1.17 1.66,-1.29 0.47,-0.08 1.14,-0.04 1.34,0.24 0.27,0.4 0.06,1.6 -0.09,1.98 z"
   class="st0" />
		<path
   id="path44"
   d="m 274.72,174.64 c -0.05,1.23 0.1,2.66 -0.08,3.76 -0.47,0.24 -1.63,0.24 -2.1,0 -0.07,-3.64 -0.07,-7.57 0,-11.21 0.33,-0.25 1.35,-0.22 1.74,-0.04 0.15,0.21 0.05,0.68 0.08,1.01 0.81,-0.63 1.56,-1.47 3.28,-1.29 3.26,0.33 3.39,6.21 1.42,8.01 -1.11,1 -3.36,0.99 -4.34,-0.24 z m 2.14,-0.97 c 1.66,-0.49 1.66,-5.31 -0.69,-4.9 -0.45,0.08 -1.35,0.8 -1.46,1.25 -0.17,0.74 0,1.56 0,2.51 0.56,0.58 1.03,1.47 2.15,1.14 z"
   class="st0" />
		<path
   id="path46"
   d="m 283.98,171.85 c 0.04,1.61 0.9,2.19 2.71,2.06 0.8,-0.06 1.52,-0.49 2.14,-0.45 0.27,0.34 0.21,1.14 0.04,1.42 -0.31,0.5 -1.53,0.67 -2.27,0.73 -3.28,0.24 -4.89,-1.28 -4.9,-4.25 -0.01,-2.43 1.17,-4.27 3.36,-4.49 2.37,-0.24 3.84,0.8 4.21,2.75 0.11,0.59 0.24,1.69 -0.08,2.02 -0.35,0.37 -1.76,0.2 -2.51,0.2 -0.98,0.01 -1.81,0.01 -2.7,0.01 z m 2.11,-3.4 c -1.36,-0.25 -2.05,0.7 -2.1,1.94 1.08,0 2.16,0 3.24,0 0,-1.02 -0.35,-1.79 -1.14,-1.94 z"
   class="st0" />
		<path
   id="path48"
   d="m 296.12,169.1 c -0.48,0.06 -0.8,-0.2 -1.25,-0.12 -0.67,0.12 -0.98,0.88 -1.34,1.29 -0.03,1.65 0.05,3.4 -0.04,4.98 -0.41,0.31 -1.68,0.28 -2.14,0.04 -0.07,-2.6 -0.07,-5.49 0,-8.09 0.43,-0.26 1.3,-0.22 1.78,-0.04 0.13,0.23 0.07,0.66 0.08,1.01 0.39,-0.32 0.87,-1.17 1.66,-1.29 0.47,-0.08 1.14,-0.04 1.34,0.24 0.27,0.4 0.06,1.6 -0.09,1.98 z"
   class="st0" />
		<path
   id="path50"
   d="m 305.39,171.85 c 0.04,1.61 0.9,2.19 2.71,2.06 0.8,-0.06 1.52,-0.49 2.14,-0.45 0.27,0.34 0.21,1.14 0.04,1.42 -0.31,0.5 -1.53,0.67 -2.27,0.73 -3.28,0.24 -4.89,-1.28 -4.9,-4.25 -0.01,-2.43 1.17,-4.27 3.36,-4.49 2.37,-0.24 3.84,0.8 4.21,2.75 0.11,0.59 0.23,1.69 -0.08,2.02 -0.35,0.37 -1.76,0.2 -2.51,0.2 -0.99,0.01 -1.82,0.01 -2.7,0.01 z m 2.1,-3.4 c -1.36,-0.25 -2.05,0.7 -2.1,1.94 1.08,0 2.16,0 3.24,0 0,-1.02 -0.35,-1.79 -1.14,-1.94 z"
   class="st0" />
		<path
   id="path52"
   d="m 318.29,169.42 c -0.89,-0.22 -1.46,-1.08 -2.67,-0.65 -1.66,0.59 -1.41,4.25 -0.16,4.86 0.49,0.24 1.17,0.15 1.58,0 0.54,-0.2 0.8,-0.61 1.38,-0.69 0.18,0.46 0.3,1.34 0.08,1.78 -0.24,0.47 -1.35,0.82 -2.02,0.89 -1.57,0.15 -2.76,-0.31 -3.44,-1.21 -1.23,-1.64 -1.05,-5.11 0.32,-6.51 0.71,-0.73 1.81,-1.15 3.28,-1.01 0.53,0.05 1.65,0.34 1.86,0.89 0.18,0.46 0.07,1.4 -0.21,1.65 z"
   class="st0" />
		<path
   id="path54"
   d="m 335.34,168.98 c -0.5,0 -0.98,-0.45 -1.62,-0.53 -0.86,-0.11 -1.64,0.07 -1.62,0.81 0.02,0.97 2.25,1.26 2.91,1.78 0.95,0.75 1.26,2.68 0.2,3.72 -0.6,0.59 -1.83,0.96 -3.24,0.85 -0.6,-0.05 -1.55,-0.21 -1.86,-0.61 -0.26,-0.33 -0.22,-1.2 0,-1.66 0.74,0.08 1.09,0.56 1.9,0.65 0.91,0.1 1.77,-0.11 1.74,-0.89 -0.02,-0.61 -0.94,-0.93 -1.54,-1.17 -1.17,-0.47 -2.24,-1.01 -2.23,-2.55 0.01,-1.75 1.56,-2.67 3.68,-2.51 0.55,0.04 1.47,0.19 1.7,0.61 0.21,0.33 0.14,1.1 -0.02,1.5 z"
   class="st0" />
		<path
   id="path56"
   d="m 367.44,166.91 c 1.96,-0.21 3.48,0.33 4.21,1.54 1.08,1.8 0.65,5.16 -0.85,6.35 -1.54,1.22 -4.79,1.13 -6.03,-0.45 -1.17,-1.5 -1,-4.63 -0.08,-5.95 0.58,-0.8 1.5,-1.35 2.75,-1.49 z m -0.12,6.84 c 0.57,0.21 1.23,0.14 1.66,-0.08 1.27,-0.65 1.54,-4.48 -0.24,-4.98 -0.29,-0.08 -0.84,-0.04 -1.05,0 -1.94,0.33 -1.96,4.48 -0.37,5.06 z"
   class="st0" />
		<path
   id="path58"
   d="m 228.68,167.12 c 0.22,0.4 0.25,1.32 -0.08,1.62 -0.31,0 -0.62,0 -0.93,0 0.05,0.21 0.24,0.47 0.28,0.77 0.32,2.43 -2.23,3.64 -4.45,2.83 -0.18,0.16 -0.3,0.33 -0.24,0.65 0.11,0.6 1.55,0.49 2.47,0.53 1.72,0.07 3.19,0.63 2.99,2.59 -0.15,1.48 -1.65,2.35 -3.32,2.47 -1.63,0.12 -3.28,-0.1 -4.01,-0.89 -0.76,-0.83 -0.39,-2.59 0.65,-3.12 -1.08,-0.45 -0.81,-2.51 0.08,-2.95 -1.47,-1.87 -0.31,-4.47 2.02,-4.69 0.59,-0.06 1.16,0.07 1.78,0.12 0.93,0.07 1.87,-0.14 2.76,0.07 z m -5.06,3.44 c 0.26,0.37 0.99,0.61 1.62,0.41 0.94,-0.3 1.06,-2.15 0,-2.47 -0.25,-0.08 -0.75,-0.04 -0.93,0 -0.8,0.18 -1.2,1.31 -0.69,2.06 z m -0.48,5.9 c 0.35,0.96 3.05,0.73 3.32,-0.24 0.37,-1.37 -1.47,-1.11 -2.67,-1.13 -0.43,0.33 -0.85,0.83 -0.65,1.37 z"
   class="st0" />
		<path
   id="path60"
   d="m 157.47,167.2 c 0.07,2.6 0.07,5.49 0,8.09 -0.45,0.25 -1.65,0.25 -2.1,0 -0.07,-2.6 -0.07,-5.49 0,-8.09 0.54,-0.25 1.55,-0.25 2.1,0 z"
   class="st0" />
		<path
   id="path62"
   d="m 190.85,167.2 c 0.07,2.6 0.07,5.49 0,8.09 -0.45,0.25 -1.65,0.25 -2.1,0 -0.07,-2.6 -0.07,-5.49 0,-8.09 0.54,-0.25 1.56,-0.25 2.1,0 z"
   class="st0" />
		<path
   id="path64"
   d="m 202.26,172.7 c 0.71,-1.77 1.15,-3.82 1.86,-5.58 0.39,-0.05 1.79,-0.29 2.02,0.16 0.14,0.26 -0.19,1.05 -0.32,1.46 -0.91,2.74 -1.87,5.54 -2.83,8.25 -0.15,0.41 -0.3,1.14 -0.49,1.34 -0.3,0.32 -2.15,0.42 -2.35,0.04 -0.16,-0.31 0.36,-1.14 0.49,-1.46 0.23,-0.57 0.32,-0.99 0.57,-1.42 -0.49,-0.58 -0.73,-1.56 -1.05,-2.43 -0.47,-1.26 -0.95,-2.43 -1.46,-3.8 -0.15,-0.4 -0.72,-1.56 -0.57,-1.94 0.14,-0.33 1.66,-0.49 2.1,-0.2 0.23,0.15 0.44,0.96 0.57,1.34 0.49,1.38 1.02,2.89 1.46,4.24 z"
   class="st0" />
		<path
   id="path66"
   d="m 209.74,167.2 c 0.07,2.6 0.07,5.49 0,8.09 -0.45,0.25 -1.65,0.25 -2.1,0 -0.07,-2.6 -0.07,-5.49 0,-8.09 0.55,-0.25 1.56,-0.25 2.1,0 z"
   class="st0" />
		<path
   id="path68"
   d="m 237.48,172.7 c 0.71,-1.77 1.15,-3.82 1.86,-5.58 0.39,-0.05 1.79,-0.29 2.02,0.16 0.14,0.26 -0.19,1.05 -0.32,1.46 -0.91,2.74 -1.87,5.54 -2.83,8.25 -0.15,0.41 -0.3,1.14 -0.49,1.34 -0.3,0.32 -2.15,0.42 -2.35,0.04 -0.16,-0.31 0.36,-1.14 0.49,-1.46 0.23,-0.57 0.32,-0.99 0.57,-1.42 -0.49,-0.58 -0.73,-1.56 -1.05,-2.43 -0.47,-1.26 -0.95,-2.43 -1.46,-3.8 -0.15,-0.4 -0.72,-1.56 -0.57,-1.94 0.14,-0.33 1.66,-0.49 2.1,-0.2 0.23,0.15 0.44,0.96 0.57,1.34 0.49,1.38 1.01,2.89 1.46,4.24 z"
   class="st0" />
		<path
   id="path70"
   d="m 348.53,167.2 c 0.07,2.6 0.07,5.49 0,8.09 -0.45,0.25 -1.65,0.25 -2.1,0 -0.07,-2.6 -0.07,-5.49 0,-8.09 0.55,-0.25 1.56,-0.25 2.1,0 z"
   class="st0" />
		<path
   id="path72"
   d="m 380.8,167.2 c 0.07,2.6 0.07,5.49 0,8.09 -0.45,0.25 -1.65,0.25 -2.1,0 -0.07,-2.6 -0.07,-5.49 0,-8.09 0.54,-0.25 1.55,-0.25 2.1,0 z"
   class="st0" />
		<path
   id="path74"
   d="m 405.07,172.7 c 0.71,-1.77 1.15,-3.82 1.86,-5.58 0.39,-0.05 1.79,-0.29 2.02,0.16 0.14,0.26 -0.19,1.05 -0.32,1.46 -0.91,2.74 -1.87,5.54 -2.83,8.25 -0.15,0.41 -0.3,1.14 -0.49,1.34 -0.3,0.32 -2.15,0.42 -2.35,0.04 -0.16,-0.31 0.36,-1.14 0.49,-1.46 0.23,-0.57 0.32,-0.99 0.57,-1.42 -0.49,-0.58 -0.73,-1.56 -1.05,-2.43 -0.47,-1.26 -0.95,-2.43 -1.46,-3.8 -0.15,-0.4 -0.72,-1.56 -0.57,-1.94 0.14,-0.33 1.66,-0.49 2.1,-0.2 0.23,0.15 0.44,0.96 0.57,1.34 0.5,1.38 1.02,2.89 1.46,4.24 z"
   class="st0" />
		<path
   id="path76"
   d="m 254.63,167.2 c 0.37,1.63 -0.45,4.59 0.28,5.91 0.68,1.22 2.36,0.23 2.75,-0.61 0.05,-1.76 -0.1,-3.72 0.08,-5.34 0.52,-0.16 1.7,-0.25 2.1,0.08 0.07,2.59 0.07,5.46 0,8.05 -0.37,0.23 -1.45,0.26 -1.82,0 -0.09,-0.25 -0.02,-0.66 -0.04,-0.97 -0.73,1.01 -3.24,1.98 -4.65,0.65 -0.77,-0.73 -0.89,-2.02 -0.89,-3.48 0,-1.43 -0.07,-3.01 0.08,-4.29 0.46,-0.26 1.66,-0.24 2.11,0 z"
   class="st0" />
	</g>
	<g
   id="LOGO">
		<path
   id="path79"
   d="m 435.41,133.74 c 1.23,1.15 2.66,2.09 3.4,3.72 0.63,1.05 1.45,3.03 1.78,4.05 0.66,1.78 0.99,4.56 0.65,6.93 -0.38,2.66 -1.73,5.38 -2.4,6.55 -0.6,0.93 -1.35,1.81 -2.14,2.53 -0.83,0.75 -1.54,1.3 -2.62,1.92 -1.4,0.79 -3.09,1.23 -5.14,1.42 -0.92,0.08 -1.72,0.08 -2.67,0 -1.14,-0.09 -2.39,-0.31 -3.32,-0.61 -0.52,-0.17 -0.86,-0.33 -1.3,-0.49 -0.26,-0.1 -1.22,-0.69 -1.42,-0.69 -0.17,0 -0.7,0.52 -0.97,0.77 -0.58,0.54 -1.61,1.67 -0.93,2.75 0.26,0.4 0.45,0.72 1.1,1.09 1.18,0.47 2.75,0.32 4.49,0.24 3.58,-0.16 7.81,-0.18 11.17,0.04 2.51,0.16 4.57,0.93 5.91,2.35 0.93,0.99 1.79,2.26 2.09,3.89 0.1,0.55 0.29,1.34 0.34,1.94 0.07,0.82 0.05,2.31 0,2.91 -0.1,1.28 -0.23,2.42 -0.53,3.44 -0.19,0.65 -0.57,1.49 -0.88,2.11 -1.95,3.84 -6.61,4.59 -12.27,4.6 -2.32,0 -5,-0.02 -7.45,-0.1 -2.7,-0.09 -4.55,-0.38 -6.34,-1.07 -1.16,-0.45 -2.71,-1.36 -3.44,-2.27 -0.34,-0.42 -0.62,-0.69 -0.85,-1.42 -0.23,-0.61 -0.42,-1.05 -0.36,-1.86 0.07,-0.9 0.27,-1.37 0.65,-1.97 0.39,-0.6 0.82,-0.98 1.41,-1.39 0.76,-0.54 1.76,-1.08 2.51,-1.58 -1.69,-1.6 -3.02,-4.02 -2.99,-6.84 0.01,-0.89 0.2,-1.77 0.43,-2.57 0.35,-1.25 1.03,-2.29 1.72,-3.26 0.92,-1.3 2.24,-2.41 3.4,-3.48 -1.5,-1.35 -2.88,-3.1 -3.55,-5.23 -0.11,-0.36 -0.96,-2.96 -1.06,-4.07 -0.11,-1.23 -0.1,-2.54 0,-3.84 0.03,-0.45 0.3,-1.82 0.73,-3.12 0.24,-0.66 0.38,-1.03 0.65,-1.62 0.24,-0.52 0.95,-1.93 1.33,-2.55 0.94,-1.5 2.75,-3.04 3.64,-3.68 2.05,-1.4 3.55,-1.6 6.07,-1.82 2.56,-0.22 5.13,0.21 7,0.97 1.22,-1.9 2.65,-3.55 4.53,-4.81 0.62,-0.42 1.22,-0.73 1.92,-1.1 1.33,-0.7 2.92,-1.27 5.12,-1.09 1.36,0.12 2.7,0.47 3.61,0.95 1.21,0.64 2.48,2.44 2.62,4.11 0.29,3.33 -2.7,5.34 -6.11,4.37 -0.69,-0.2 -1.14,-0.59 -1.62,-0.97 -0.31,-0.24 -0.77,-0.74 -1.16,-1.01 -1.24,-0.85 -1.73,-1.62 -3.41,-1.67 -0.74,-0.02 -1.69,0.44 -2.18,0.89 -0.48,0.43 -0.84,1.05 -1.16,1.64 z m -8.98,2.87 c -1.6,0.83 -1.58,3.03 -1.58,5.42 0,2.63 0,5.69 0,8.34 0,2.68 0.01,4.55 1.62,5.34 1.43,0.71 3.28,0.11 3.84,-1.46 0.32,-0.87 0.16,-2.52 0.16,-4.01 0,-3.27 0,-5.03 0,-8.25 0,-1.29 0.19,-2.99 -0.2,-4.01 -0.4,-1.03 -1.59,-1.7 -2.67,-1.66 -0.39,0.02 -0.78,0.09 -1.17,0.29 z m -9.87,39.61 c -0.47,0.38 -1.01,0.92 -1.21,1.38 -0.72,1.56 0.31,2.86 1.25,3.52 0.88,0.61 2.14,0.96 3.48,1.25 1.32,0.29 2.77,0.34 4.29,0.32 3.44,-0.03 6.58,0.17 9.27,-0.24 2.11,-0.33 4.62,-0.93 5.3,-2.55 0.63,-1.5 -0.07,-2.95 -1.3,-3.36 -0.49,-0.17 -1.1,-0.23 -1.78,-0.24 -3.49,-0.08 -6.7,0.04 -10.15,0.04 -1.42,0 -2.85,0 -4.01,-0.2 -1.36,-0.23 -2.31,-0.64 -3.44,-1.01 -0.57,0.3 -1.19,0.67 -1.7,1.09 z"
   class="st0" />
		<path
   id="path81"
   d="m 395.3,129.12 c 0.25,0.02 0.4,0.11 0.47,0.49 0.17,1.35 0.02,3.27 0.1,4.97 0.54,-0.26 0.83,-0.63 1.32,-1 0.28,-0.21 0.71,-0.56 1.03,-0.78 0.62,-0.42 1.12,-0.73 1.94,-1.05 1.04,-0.41 2.16,-0.64 3.4,-0.69 2.12,-0.07 3.99,0.53 5.42,1.38 0.96,0.57 1.9,1.38 2.43,2.39 1.06,2.06 1.18,5.53 1.21,8.62 0.01,1.55 0.01,3.23 0,4.86 -0.02,1.67 -0.11,3.35 0,4.82 0.14,1.92 1.38,3.04 3.68,2.95 0,0.66 0,1.32 0,1.98 -3.72,0 -8.02,0 -11.94,0 -0.59,0 -1.22,0.09 -1.7,0 -0.48,-0.1 -0.93,-0.54 -1.05,-0.85 -0.19,-0.49 -0.08,-1.44 -0.08,-2.27 0,-3.86 0.04,-7.77 0.04,-11.49 0,-1.54 0.17,-3.14 0,-4.65 -0.2,-1.79 -2.31,-3.16 -4.13,-2.1 -1.01,0.58 -1.4,1.8 -1.5,3.44 -0.11,1.98 0,4.12 0,6.51 0,2.42 -0.15,4.43 0,6.51 0.15,2.01 1.43,3.03 3.68,2.95 0,0.66 0,1.32 0,1.98 -3.26,0 -6.88,0 -10.32,0 -1,0 -2.46,0.18 -3.36,-0.04 -0.4,-0.1 -0.82,-0.44 -0.97,-0.77 -0.33,-0.74 -0.12,-2.45 -0.12,-3.4 0,-3.48 0.03,-8.94 0.04,-10.36 0.11,-2.84 -0.16,-4.77 -1.7,-6.03 -0.8,-0.66 -2.19,-0.69 -2.55,-1.78 -0.17,-0.55 0.82,-0.61 1.29,-0.77 0.5,-0.17 1.01,-0.37 1.5,-0.57 0.72,-0.29 1.45,-0.53 2.1,-0.81 3.33,-1.44 5.71,-2.53 8.22,-3.86 0.52,-0.28 0.87,-0.52 1.28,-0.57 0.07,-0.01 0.21,0 0.27,-0.01 z"
   class="st0" />
		<path
   id="path83"
   d="m 365.69,131.67 c 3.22,0.08 7.16,-0.1 10.4,0 0.76,0.02 2.86,-0.14 3.33,0.22 0.65,0.5 0.39,1.48 0.39,2.49 0,4.93 0,9.65 0,14.49 0,1.8 -0.25,4.28 0.28,5.5 0.5,1.15 1.71,1.85 3.4,1.74 0,0.66 0,1.32 0,1.98 -3.27,0 -6.92,0 -10.4,0 -1.01,0 -2.45,0.21 -3.36,-0.08 -1.24,-0.39 -1.01,-1.61 -1.01,-3.36 0,-4.6 0.04,-8.95 0.04,-13.55 0,-2.43 0.19,-4.88 -0.57,-6.43 -0.71,-1.08 -1.44,-1.23 -2.55,-1.46 -0.04,-0.45 -0.05,-0.92 -0.04,-1.42 0.05,-0.03 0.04,-0.11 0.09,-0.12 z"
   class="st0" />
		<path
   id="path85"
   d="m 372.7,118.97 c 2.14,-0.35 3.84,0.64 4.77,1.58 0.92,0.92 1.77,2.47 1.58,4.53 -0.26,2.8 -2.77,5.13 -6.07,4.86 -2.74,-0.23 -4.73,-2.51 -4.94,-4.98 -0.17,-2.02 0.73,-3.47 1.5,-4.29 0.79,-0.84 1.81,-1.48 3.16,-1.7 z"
   class="st0" />
		<path
   id="path87"
   d="m 447.85,147.07 c 2.14,-0.35 3.84,0.64 4.77,1.58 0.92,0.92 1.77,2.47 1.58,4.53 -0.26,2.8 -2.77,5.13 -6.07,4.86 -2.74,-0.23 -4.73,-2.51 -4.94,-4.98 -0.17,-2.02 0.73,-3.47 1.5,-4.29 0.79,-0.84 1.81,-1.48 3.16,-1.7 z"
   class="st0" />
		<path
   id="path89"
   d="m 367.6,156.15 c 0,0.66 0,1.32 0,1.98 -3.27,0 -6.92,0 -10.4,0 -1.59,0 -3.83,0.33 -4.29,-0.85 -0.29,-0.76 -0.08,-2.8 -0.08,-3.8 0,-7.69 0,-15.34 0,-23.06 0,-1.27 -0.02,-2.43 -0.43,-3.38 -0.62,-1.46 -1.56,-2.57 -3.05,-3.25 -0.36,-0.17 -1.21,-0.03 -1.25,-0.82 0.04,-0.52 1.35,-0.55 2.02,-0.76 2.03,-0.64 3.9,-1.27 5.83,-2.06 0.89,-0.37 3.46,-1.39 3.78,-1.53 0.56,-0.24 1.17,-0.53 1.75,-0.84 0.27,-0.14 0.59,-0.31 0.87,-0.47 0.3,-0.17 0.88,-0.49 1.21,-0.45 0.49,0.07 0.36,1.35 0.36,1.94 0,8.44 0,16.92 0,25.29 0,1.55 0.07,3.12 0,4.61 -0.07,1.49 -0.11,3.05 0,4.49 0.14,1.95 1.51,3.09 3.68,2.96 z"
   class="st0" />
		<path
   id="path91"
   d="m 202.43,143.49 c -4.87,0.09 -10.13,0.05 -15.42,0.04 -0.04,1.64 0.3,3.07 0.73,4.29 0.26,0.74 0.68,1.55 1.17,2.32 0.74,1.16 1.55,1.75 2.64,2.54 1.2,0.87 2.8,1.6 4.61,1.78 1.31,0.13 2.68,0.08 3.68,-0.28 0.37,-0.13 0.68,-0.38 1.01,-0.57 0.32,-0.18 0.54,-0.71 1.09,-0.49 0.6,0.23 0.44,0.89 0.27,1.45 -0.23,0.74 -0.58,1.33 -1.17,1.91 -0.46,0.49 -0.95,0.97 -1.5,1.37 -0.19,0.14 -0.96,0.75 -1.66,1.12 -0.8,0.43 -2.18,1.09 -3.3,1.43 -0.87,0.27 -3.09,0.71 -5.28,0.51 -1.85,-0.17 -2.83,-0.43 -3.84,-0.79 -1.23,-0.44 -2.18,-0.94 -3.18,-1.66 -0.44,-0.32 -0.77,-0.58 -1.17,-0.93 -0.43,-0.37 -2.34,-2.68 -2.87,-3.68 -0.27,-0.5 -0.52,-1.14 -0.77,-1.74 -0.18,-0.42 -0.65,-2.01 -0.73,-2.43 -0.24,-1.24 -0.28,-3.36 -0.16,-4.86 0.03,-0.4 0.22,-1.39 0.24,-1.54 0.04,-0.27 0.15,-0.61 0.24,-0.93 0.17,-0.6 0.42,-1.42 0.69,-2.02 0.09,-0.19 0.32,-0.77 0.39,-0.9 0.48,-0.94 2.09,-3.38 3.05,-4.36 1.17,-1.19 2.87,-2.24 4.39,-2.91 0.55,-0.24 1.3,-0.49 1.88,-0.65 0.97,-0.28 1.73,-0.33 2.02,-0.36 0.7,-0.09 1.43,-0.04 2.1,0 0.63,0.04 2.05,0.3 2.86,0.53 0.39,0.11 0.93,0.32 1.11,0.39 0.91,0.37 1.59,0.79 2.43,1.39 1.45,1.1 2.07,1.77 3,3.35 0.5,0.87 0.67,1.16 0.93,1.79 0.41,0.99 0.62,2.03 0.65,3.44 0,0.47 0.07,1.02 -0.13,1.45 z m -9.75,-2.75 c 2.05,-0.87 1.37,-5.01 -0.16,-6.27 -0.25,-0.21 -0.67,-0.48 -0.93,-0.57 -0.75,-0.26 -1.82,-0.05 -2.31,0.16 -2.12,0.93 -2.26,3.99 -2.35,7.08 2.2,0.03 4.32,0.2 5.75,-0.4 z"
   class="st0" />
		<path
   id="path93"
   d="m 325.33,143.49 c -4.87,0.09 -10.13,0.05 -15.42,0.04 -0.04,1.64 0.3,3.07 0.73,4.29 0.26,0.74 0.68,1.55 1.17,2.32 0.74,1.16 1.55,1.75 2.64,2.54 1.2,0.87 2.8,1.6 4.61,1.78 1.31,0.13 2.68,0.08 3.68,-0.28 0.37,-0.13 0.68,-0.38 1.01,-0.57 0.32,-0.18 0.54,-0.71 1.09,-0.49 0.6,0.23 0.44,0.89 0.27,1.45 -0.23,0.74 -0.58,1.33 -1.17,1.91 -0.46,0.49 -0.95,0.97 -1.5,1.37 -0.19,0.14 -0.96,0.75 -1.66,1.12 -0.8,0.43 -2.18,1.09 -3.3,1.43 -0.87,0.27 -3.09,0.71 -5.28,0.51 -1.85,-0.17 -2.83,-0.43 -3.84,-0.79 -1.23,-0.44 -2.18,-0.94 -3.18,-1.66 -0.44,-0.32 -0.77,-0.58 -1.17,-0.93 -0.43,-0.37 -2.34,-2.68 -2.87,-3.68 -0.27,-0.5 -0.52,-1.14 -0.77,-1.74 -0.18,-0.42 -0.65,-2.01 -0.73,-2.43 -0.24,-1.24 -0.28,-3.36 -0.16,-4.86 0.03,-0.4 0.22,-1.39 0.24,-1.54 0.04,-0.27 0.15,-0.61 0.24,-0.93 0.17,-0.6 0.42,-1.42 0.69,-2.02 0.09,-0.19 0.32,-0.77 0.39,-0.9 0.48,-0.94 2.09,-3.38 3.05,-4.36 1.17,-1.19 2.87,-2.24 4.39,-2.91 0.55,-0.24 1.3,-0.49 1.88,-0.65 0.97,-0.28 1.73,-0.33 2.02,-0.36 0.7,-0.09 1.43,-0.04 2.1,0 0.63,0.04 2.05,0.3 2.86,0.53 0.39,0.11 0.93,0.32 1.11,0.39 0.91,0.37 1.59,0.79 2.43,1.39 1.45,1.1 2.07,1.77 3,3.35 0.5,0.87 0.67,1.16 0.93,1.79 0.41,0.99 0.62,2.03 0.65,3.44 0.01,0.47 0.08,1.02 -0.13,1.45 z m -9.75,-2.75 c 2.05,-0.87 1.37,-5.01 -0.16,-6.27 -0.25,-0.21 -0.67,-0.48 -0.93,-0.57 -0.75,-0.26 -1.82,-0.05 -2.31,0.16 -2.12,0.93 -2.26,3.99 -2.35,7.08 2.2,0.03 4.32,0.2 5.75,-0.4 z"
   class="st0" />
		<path
   id="path95"
   d="m 315.41,127.75 c -0.59,0.28 -1.04,0.5 -1.72,0.76 -0.29,-0.65 -0.54,-1.03 -0.94,-1.76 -0.14,-0.25 -0.28,-0.54 -0.41,-0.77 -0.12,-0.21 -0.3,-0.47 -0.45,-0.74 -0.83,-1.55 -2.75,-3.35 -3.28,-3.72 -0.37,-0.26 -0.65,-0.44 -1.18,-0.76 -0.36,-0.21 -0.89,-0.5 -1.69,-0.58 -0.68,-0.07 -1.66,-0.04 -2.43,-0.04 -2.28,0 -4.43,0.02 -6.8,0.04 -0.09,3.75 -0.01,7.67 -0.04,11.49 1.86,0 3.72,0 5.58,0 0,0.96 0,1.91 0,2.87 -1.86,0 -3.72,0 -5.58,0 0,4.49 0,9.66 0,14.24 0,1.62 -0.11,3.25 0.04,4.69 0.17,1.71 1.64,2.77 3.64,2.63 0,0.66 0,1.32 0,1.98 -6.14,0 -12.27,0 -18.41,0 0,-0.66 0,-1.32 0,-1.98 1.94,0.1 3.44,-0.81 3.64,-2.59 0.14,-1.25 0.04,-2.65 0.04,-4.01 0,-7.77 0,-16.17 0,-23.99 0,-1.51 0.19,-3.83 -0.28,-4.9 -0.52,-1.16 -1.68,-1.77 -3.4,-1.7 0,-0.66 0,-1.32 0,-1.98 8.06,0 16.72,0 24.92,0 1.17,0 2.4,0.12 3.52,0 0.58,-0.06 1.16,-0.32 1.74,-0.49 0.18,-0.05 0.43,-0.15 0.57,-0.16 0.62,-0.04 0.62,0.64 0.77,1.29 0.75,3.37 1.43,6.98 2.15,10.18 z"
   class="st0" />
		<path
   id="path97"
   d="m 248.54,116.89 c 0.36,0.15 0.3,0.82 0.3,1.27 0,7.39 -0.02,15.13 -0.02,22.54 2.51,-1.35 5.45,-3.14 8.12,-4.75 0.4,-0.24 1.09,-0.51 1.15,-0.83 0.14,-0.83 -1.08,-0.43 -1.62,-0.53 0,-0.98 0,-1.97 0,-2.95 3.33,0 6.66,0 9.99,0 0,0.84 0,1.98 0,2.95 -0.51,0 -1.03,0 -1.54,0 -2.35,1.45 -4.69,2.91 -7.04,4.37 1.98,3.6 3.93,7.69 6.07,11.37 0.73,1.26 1.32,2.57 2.06,3.72 0.3,0.47 0.74,0.96 1.13,1.25 0.81,0.59 2.13,0.73 3.24,0.97 0.12,0.52 0.07,1.22 0.12,1.82 -5.83,0 -11.65,0 -17.48,0 0.01,-0.69 -0.07,-1.28 -0.04,-1.98 0.76,0.06 1.21,-0.27 1.3,-0.81 0.09,-0.55 -0.31,-1.14 -0.53,-1.58 -1.55,-3.14 -3.45,-6.53 -4.94,-9.55 0,3.26 0,6.5 0,9.91 0,0.88 0.2,2.47 -0.08,3.2 -0.47,1.21 -2.71,0.85 -4.49,0.85 -3.27,0 -6.99,0 -10.2,0 0,-0.66 0,-1.32 0,-1.98 1.68,0.1 2.98,-0.59 3.44,-1.78 0.46,-1.19 0.28,-3.6 0.28,-5.22 0,-4.84 -0.04,-10.24 -0.04,-15.54 0,-2.66 0.32,-5.37 -0.65,-7.08 -0.74,-1.32 -1.58,-2.22 -2.99,-2.83 -0.4,-0.17 -1.05,-0.07 -1.07,-0.74 -0.01,-0.45 1.05,-0.49 1.59,-0.64 1.19,-0.31 2.37,-0.76 3.56,-1.17 1.17,-0.4 2.34,-0.82 3.44,-1.29 1.38,-0.6 2.82,-1.09 4.17,-1.78 0.73,-0.38 1.57,-0.78 2.35,-1.17 0.08,-0.05 0.25,-0.13 0.42,-0.02 z"
   class="st0" />
		<path
   id="path99"
   d="m 219.45,156.56 c -0.33,0.33 -0.58,0.66 -1,1.1 -0.89,1.04 -2.05,1.63 -2.69,2 -0.23,0.13 -1.01,0.48 -1.49,0.66 -0.26,0.1 -0.47,0.17 -0.69,0.24 -2.52,0.85 -6.39,0.24 -8.05,-0.97 -1.74,-1.27 -2.91,-3.46 -2.63,-6.64 0.08,-0.93 0.74,-2.58 1.24,-3.42 0.52,-0.88 1.17,-1.33 1.5,-1.63 0.33,-0.3 1.08,-0.84 1.41,-1.06 0.42,-0.29 2.71,-1.59 3.62,-2.02 0.92,-0.43 1.89,-0.86 2.81,-1.31 1.81,-0.89 3.64,-1.61 5.49,-2.41 -0.13,-1.62 0.08,-3.29 -0.12,-4.69 -0.25,-1.73 -1.62,-2.85 -3.48,-2.63 -1.51,0.18 -2.59,1.4 -2.47,3.28 0.09,1.41 0.33,2.56 -0.24,4.17 -0.49,1.06 -0.7,1.29 -1.37,1.82 -0.46,0.36 -0.66,0.44 -1.27,0.67 -0.44,0.17 -0.96,0.34 -1.81,0.22 -1.63,-0.22 -2.82,-1.28 -3.2,-2.75 -0.27,-1.06 0.01,-2.33 0.24,-3.12 0.27,-0.89 0.46,-1.48 1.21,-2.47 0.47,-0.61 0.71,-0.84 1.1,-1.16 0.77,-0.62 1.36,-1.03 2.34,-1.6 0.93,-0.53 2.06,-0.94 3.01,-1.17 0.41,-0.1 0.77,-0.11 1.03,-0.16 0.72,-0.14 1.7,-0.19 2.47,-0.24 0.74,-0.05 1.56,0.03 2.31,0.08 2.31,0.16 4.6,0.65 6.23,1.5 0.85,0.44 1.24,0.6 1.92,1.14 0.37,0.3 0.81,0.65 1.11,1 0.56,0.64 0.94,1.13 1.38,2.14 0.59,1.55 0.57,2.96 0.62,4.66 0.1,3.13 0.01,7.55 0.04,10.82 0.01,1.2 -0.42,3.59 1.52,3.62 0.26,0 0.61,-0.21 0.89,-0.16 0.77,0.13 1,1.17 0.23,1.97 -1.19,1.29 -2.73,2.15 -4.64,2.64 -1.56,0.4 -3.25,0.19 -4.57,-0.28 -1.66,-0.6 -3.23,-2.32 -4,-3.84 z m -1.69,-12.04 c -0.19,0.15 -0.61,0.43 -0.83,0.61 -1.73,1.44 -2.62,4.84 -2.29,7.9 0.11,1.04 0.66,1.96 1.42,2.31 0.9,0.42 1.98,-0.08 2.35,-0.65 0.85,-1.33 0.57,-3.97 0.57,-6.15 0,-1.62 -0.01,-3.28 -0.08,-4.78 0,-0.02 -0.01,-0.05 -0.04,-0.04 -0.39,0.34 -0.71,0.48 -1.1,0.8 z"
   class="st0" />
		<path
   id="path101"
   d="m 351.87,143.49 c -4.87,0.09 -10.13,0.05 -15.42,0.04 -0.04,1.64 0.3,3.07 0.73,4.29 0.26,0.74 0.68,1.55 1.17,2.32 0.74,1.16 1.55,1.75 2.64,2.54 1.2,0.87 2.8,1.6 4.61,1.78 1.31,0.13 2.68,0.08 3.68,-0.28 0.37,-0.13 0.68,-0.38 1.01,-0.57 0.32,-0.18 0.54,-0.71 1.09,-0.49 0.6,0.23 0.44,0.89 0.27,1.45 -0.23,0.74 -0.58,1.33 -1.17,1.91 -0.46,0.49 -0.95,0.97 -1.5,1.37 -0.19,0.14 -0.96,0.75 -1.66,1.12 -0.8,0.43 -2.18,1.09 -3.3,1.43 -0.87,0.27 -3.09,0.71 -5.28,0.51 -1.85,-0.17 -2.83,-0.43 -3.84,-0.79 -1.23,-0.44 -2.18,-0.94 -3.18,-1.66 -0.44,-0.32 -0.77,-0.58 -1.17,-0.93 -0.43,-0.37 -2.34,-2.68 -2.87,-3.68 -0.27,-0.5 -0.52,-1.14 -0.77,-1.74 -0.18,-0.42 -0.65,-2.01 -0.73,-2.43 -0.24,-1.24 -0.28,-3.36 -0.16,-4.86 0.03,-0.4 0.22,-1.39 0.24,-1.54 0.04,-0.27 0.15,-0.61 0.24,-0.93 0.17,-0.6 0.42,-1.42 0.69,-2.02 0.09,-0.19 0.32,-0.77 0.39,-0.9 0.48,-0.94 2.09,-3.38 3.05,-4.36 1.17,-1.19 2.87,-2.24 4.39,-2.91 0.55,-0.24 1.3,-0.49 1.88,-0.65 0.97,-0.28 1.73,-0.33 2.02,-0.36 0.7,-0.09 1.43,-0.04 2.1,0 0.63,0.04 2.05,0.3 2.86,0.53 0.39,0.11 0.93,0.32 1.11,0.39 0.91,0.37 1.59,0.79 2.43,1.39 1.45,1.1 2.07,1.77 3,3.35 0.5,0.87 0.67,1.16 0.93,1.79 0.41,0.99 0.62,2.03 0.65,3.44 0,0.47 0.07,1.02 -0.13,1.45 z m -9.75,-2.75 c 2.05,-0.87 1.37,-5.01 -0.16,-6.27 -0.25,-0.21 -0.67,-0.48 -0.93,-0.57 -0.75,-0.26 -1.82,-0.05 -2.31,0.16 -2.12,0.93 -2.26,3.99 -2.35,7.08 2.19,0.03 4.32,0.2 5.75,-0.4 z"
   class="st0" />
		<path
   id="path103"
   d="m 146.5,116.97 c 5.94,0 12.97,0 19.26,0 1.34,0 2.68,-0.1 3.84,0 2.28,0.2 4.11,0.94 5.62,2.06 0.25,0.19 0.53,0.42 0.76,0.65 0.73,0.7 1.29,1.23 1.99,2.39 0.41,0.76 0.52,1.13 0.77,1.7 0.27,0.62 0.42,1.28 0.61,1.94 0.18,0.64 0.3,1.2 0.4,1.82 0.19,1.13 0.21,2.23 0.2,3.48 -0.01,0.86 -0.11,2.11 -0.34,3.01 -0.25,1.01 -0.46,1.78 -0.8,2.65 -0.16,0.41 -0.61,1.37 -0.89,1.82 -0.16,0.26 -0.39,0.56 -0.64,0.87 -1.78,2.17 -4.35,4.07 -8.06,4.19 -2.44,0.08 -5.16,0.03 -8.05,0 0,1.4 0,3.19 0,4.98 0,1.79 -0.11,3.65 0.04,5.02 0.19,1.71 1.6,2.69 3.64,2.59 0,0.66 0,1.32 0,1.98 -6.14,0 -12.27,0 -18.41,0 0,-0.66 0,-1.32 0,-1.98 1.87,0.11 3.43,-0.79 3.64,-2.55 0.15,-1.24 0.04,-2.66 0.04,-4.01 0,-7.85 0,-16.09 0,-24.08 0,-1.63 0.2,-3.89 -0.36,-4.98 -0.55,-1.07 -1.63,-1.66 -3.32,-1.58 0,-0.62 0,-1.24 0,-1.86 0.02,-0.05 0.02,-0.11 0.06,-0.11 z m 14.73,2.63 c -0.07,6.89 -0.07,14.42 0,21.44 2.2,0.13 3.78,-0.51 4.94,-1.46 2.22,-1.83 2.51,-5.37 2.51,-9.35 0,-4.12 -0.32,-7.69 -2.59,-9.39 -1.25,-0.93 -2.66,-1.48 -4.82,-1.38 -0.04,0.02 -0.04,0.08 -0.04,0.14 z"
   class="st0" />
		<path
   id="path105"
   d="M 354.45,126.12"
   class="st0" />
	</g>
</g>
</svg>
