<?xml version="1.0" encoding="UTF-8" standalone="no"?>
<svg
   xmlns:dc="http://purl.org/dc/elements/1.1/"
   xmlns:cc="http://creativecommons.org/ns#"
   xmlns:rdf="http://www.w3.org/1999/02/22-rdf-syntax-ns#"
   xmlns:svg="http://www.w3.org/2000/svg"
   xmlns="http://www.w3.org/2000/svg"
   xmlns:sodipodi="http://sodipodi.sourceforge.net/DTD/sodipodi-0.dtd"
   xmlns:inkscape="http://www.inkscape.org/namespaces/inkscape"
   inkscape:version="1.0 (4035a4fb49, 2020-05-01)"
   height="176.64598"
   width="788.80237"
   sodipodi:docname="peakpack-logo.svg"
   xml:space="preserve"
   viewBox="0 0 788.80235 176.64597"
   y="0px"
   x="0px"
   id="Layer_1"
   version="1.1"><metadata
   id="metadata113"><rdf:RDF><cc:Work
       rdf:about=""><dc:format>image/svg+xml</dc:format><dc:type
         rdf:resource="http://purl.org/dc/dcmitype/StillImage" /></cc:Work></rdf:RDF></metadata><defs
   id="defs111" /><sodipodi:namedview
   inkscape:current-layer="Layer_1"
   inkscape:window-maximized="1"
   inkscape:window-y="-9"
   inkscape:window-x="-9"
   inkscape:cy="83.864945"
   inkscape:cx="387.19521"
   inkscape:zoom="1.3943018"
   showgrid="false"
   id="namedview109"
   inkscape:window-height="1001"
   inkscape:window-width="1920"
   inkscape:pageshadow="2"
   inkscape:pageopacity="0"
   guidetolerance="10"
   gridtolerance="10"
   objecttolerance="10"
   borderopacity="1"
   bordercolor="#666666"
   pagecolor="#ffffff" />
<style
   id="style2"
   type="text/css">
	.st0{fill-rule:evenodd;clip-rule:evenodd;fill:#1D3B60;}
</style>
<g
   transform="translate(-33.749796,-213.77507)"
   id="SLOGAN">
	<path
   id="path4"
   d="m 57.02,335.23 c 1.32,-0.24 3.2,-0.27 3.94,0.52 0.65,0.69 0.96,3.18 0.21,4.36 -0.74,1.16 -4.21,1.55 -5.5,0.42 -0.94,-0.84 -0.91,-3.51 -0.31,-4.46 0.34,-0.55 0.94,-0.71 1.66,-0.84 z"
   class="st0" />
	<path
   id="path6"
   d="m 142.57,335.23 c 1.32,-0.24 3.2,-0.27 3.94,0.52 0.65,0.69 0.96,3.18 0.21,4.36 -0.74,1.16 -4.21,1.55 -5.5,0.42 -0.94,-0.84 -0.91,-3.51 -0.31,-4.46 0.34,-0.55 0.94,-0.71 1.66,-0.84 z"
   class="st0" />
	<path
   id="path8"
   d="m 191,335.23 c 1.32,-0.24 3.2,-0.27 3.94,0.52 0.65,0.69 0.96,3.18 0.21,4.36 -0.74,1.16 -4.21,1.55 -5.5,0.42 -0.94,-0.84 -0.91,-3.51 -0.31,-4.46 0.34,-0.55 0.94,-0.71 1.66,-0.84 z"
   class="st0" />
	<path
   id="path10"
   d="m 547.71,335.23 c 1.32,-0.24 3.2,-0.27 3.94,0.52 0.65,0.69 0.96,3.18 0.21,4.36 -0.74,1.16 -4.21,1.55 -5.5,0.42 -0.94,-0.84 -0.91,-3.51 -0.31,-4.46 0.34,-0.55 0.94,-0.71 1.66,-0.84 z"
   class="st0" />
	<path
   id="path12"
   d="m 630.4,335.23 c 1.32,-0.24 3.2,-0.27 3.94,0.52 0.65,0.69 0.96,3.18 0.21,4.36 -0.74,1.16 -4.21,1.55 -5.5,0.42 -0.94,-0.84 -0.91,-3.51 -0.31,-4.46 0.34,-0.55 0.94,-0.71 1.66,-0.84 z"
   class="st0" />
	<path
   id="path14"
   d="m 165.35,335.02 c 0.4,1.08 0.51,3.21 -0.1,4.15 -1.34,-0.15 -2.49,-0.74 -3.63,-0.31 -1.59,0.59 -1.16,2.84 -1.24,4.98 1.34,0.08 3.03,-0.19 4.04,0.21 0.6,0.94 0.6,3.42 0,4.35 -1.11,0.24 -2.66,0.04 -3.94,0.1 -0.31,5.22 0.1,11.16 -0.21,16.38 -1.04,0.81 -4.3,0.7 -5.5,0.11 -0.24,-5.29 -0.04,-11.03 -0.1,-16.49 -0.93,0 -1.87,0 -2.8,0 -0.74,-0.84 -0.72,-3.49 -0.1,-4.46 0.66,-0.34 1.84,-0.17 2.8,-0.21 -0.12,-5.1 1.18,-9.18 5.7,-9.64 1.68,-0.17 3.9,0 5.08,0.83 z"
   class="st0" />
	<path
   id="path16"
   d="m 433.4,335.02 c 0.4,1.08 0.51,3.21 -0.1,4.15 -1.35,-0.15 -2.49,-0.74 -3.63,-0.31 -1.59,0.59 -1.16,2.84 -1.24,4.98 1.33,0.08 3.03,-0.19 4.04,0.21 0.6,0.94 0.6,3.42 0,4.35 -1.11,0.24 -2.66,0.04 -3.94,0.1 -0.31,5.22 0.1,11.16 -0.21,16.38 -1.04,0.81 -4.3,0.7 -5.5,0.11 -0.24,-5.29 -0.04,-11.03 -0.1,-16.49 -0.93,0 -1.87,0 -2.8,0 -0.73,-0.84 -0.72,-3.49 -0.1,-4.46 0.66,-0.34 1.84,-0.17 2.8,-0.21 -0.12,-5.1 1.18,-9.18 5.7,-9.64 1.68,-0.17 3.89,0 5.08,0.83 z"
   class="st0" />
	<path
   id="path18"
   d="m 135.9,334.81 c 0.34,9.58 0.35,20.6 0,30.18 -1.15,0.63 -4.24,0.63 -5.39,0 -0.17,-9.82 -0.17,-20.36 0,-30.18 1.4,-0.63 4,-0.63 5.39,0 z"
   class="st0" />
	<path
   id="path20"
   d="m 529.36,334.81 c 0.24,5.67 0.04,11.79 0.1,17.63 1.36,-1.48 3.19,-4.11 4.77,-6.22 0.55,-0.73 1.09,-1.74 1.66,-2.07 1.34,-0.77 4.37,-0.46 5.71,0.31 -0.32,1.99 -1.87,3.22 -3.01,4.46 -1.18,1.29 -2.31,2.58 -3.42,3.94 1.32,1.98 2.47,3.95 3.73,5.91 1.21,1.88 2.93,3.62 3.42,6.12 -1.27,0.57 -4.4,0.99 -5.7,0.31 -0.63,-0.32 -1.36,-1.89 -1.87,-2.7 -1.68,-2.68 -3.73,-5.95 -5.29,-8.3 -0.07,3.56 0.14,7.4 -0.1,10.79 -1.15,0.63 -4.24,0.63 -5.39,0 -0.17,-9.82 -0.17,-20.36 0,-30.18 1.4,-0.63 3.99,-0.63 5.39,0 z"
   class="st0" />
	<path
   id="path22"
   d="m 572.95,334.81 c 0.47,3.3 0.08,7.46 0.21,11.1 1.02,-0.57 1.96,-1.58 3.22,-2.07 2.98,-1.17 6.69,-0.2 8.3,1.76 3.29,4.02 1.2,12.86 1.66,19.39 -1.16,0.61 -4.24,0.65 -5.39,0 -1.27,-4.3 1.81,-15.17 -2.28,-16.49 -2.57,-0.83 -4.38,1.38 -5.5,2.9 -0.13,4.46 0.27,9.46 -0.21,13.58 -1.15,0.63 -4.24,0.63 -5.39,0 -0.17,-9.82 -0.17,-20.36 0,-30.18 1.39,-0.62 3.99,-0.62 5.38,0.01 z"
   class="st0" />
	<path
   id="path24"
   d="m 622.73,334.81 c 0.34,9.58 0.35,20.6 0,30.18 -1.15,0.63 -4.24,0.63 -5.39,0 -0.17,-9.82 -0.17,-20.36 0,-30.18 1.39,-0.63 3.99,-0.63 5.39,0 z"
   class="st0" />
	<path
   id="path26"
   d="m 659.33,334.92 c 0.11,9.72 0.31,20.52 -0.1,30.18 -0.98,0.49 -3.47,0.47 -4.46,0 -0.38,-0.49 -0.14,-1.58 -0.21,-2.38 -1.5,1.03 -3.17,2.84 -5.6,3.11 -2.87,0.32 -5.22,-0.49 -6.74,-1.97 -5.07,-4.93 -3.65,-19.58 4.56,-20.43 3.48,-0.36 5.1,0.87 6.95,2.49 0.07,-3.63 -0.14,-7.53 0.1,-10.99 1.1,-0.78 4.41,-0.78 5.5,-0.01 z m -10.89,13.38 c -4.69,0.8 -4.82,13.82 1.56,12.65 1.16,-0.21 3.47,-2.15 3.73,-3.21 0.49,-2.02 -0.04,-4.22 0,-6.43 -1.44,-1.47 -2.45,-3.5 -5.29,-3.01 z"
   class="st0" />
	<path
   id="path28"
   d="m 49.83,342.59 c -1.42,-0.04 -3.24,-1.64 -5.29,-1.87 -2.68,-0.3 -5.26,0.45 -4.98,3.32 0.21,2.14 3.08,3.11 4.98,3.94 3.34,1.46 6.95,3.4 7.36,7.67 0.67,6.84 -4.71,10.7 -12.24,10.16 -1.34,-0.09 -2.58,-0.41 -3.73,-0.83 -0.8,-0.29 -2.27,-0.85 -2.7,-1.76 -0.53,-1.14 -0.31,-3.4 0.31,-4.46 2.28,0.46 3.54,2 6.22,2.28 3.24,0.33 6.75,-0.82 5.91,-4.36 -0.48,-2.02 -3.19,-2.83 -4.98,-3.63 -3.09,-1.38 -6,-2.98 -6.95,-6.33 -1.7,-6 2.73,-10.19 7.78,-10.68 2.47,-0.24 4.07,0 6.12,0.73 0.87,0.3 2,0.59 2.38,1.35 0.56,1.09 0.26,3.48 -0.19,4.47 z"
   class="st0" />
	<path
   id="path30"
   d="m 485.76,338.96 c 0.42,1.27 0.11,3.28 0.21,4.87 1.57,0.09 3.53,-0.21 4.77,0.21 0.52,1.1 0.62,3.39 -0.1,4.35 -1.35,0.24 -3.14,0.04 -4.67,0.1 0.3,2.66 -0.39,7.76 0,10.47 0.33,2.31 2.41,2.2 4.77,1.55 0.42,1.06 0.72,3.12 0.1,4.15 -0.71,1.19 -3.68,1.2 -5.39,1.04 -7.14,-0.67 -4.8,-9.8 -5.18,-17.21 -0.91,-0.06 -2.06,0.13 -2.8,-0.1 -0.7,-1.02 -0.6,-3.2 -0.1,-4.35 0.68,-0.33 1.83,-0.18 2.8,-0.21 0.3,-1.39 -0.09,-3.48 0.21,-4.87 1.16,-0.62 4.22,-0.64 5.38,0 z"
   class="st0" />
	<path
   id="path32"
   d="m 682.15,365.09 c -0.96,0.49 -3.25,0.41 -4.35,0.11 -0.35,-0.38 -0.17,-1.29 -0.21,-1.97 -2.22,2.85 -8.96,3.76 -11.92,0.62 -1.58,-1.67 -2.34,-5.49 -0.73,-7.98 1.94,-3.01 6.36,-3.44 11.62,-3.32 0.95,-3.99 -1.63,-5.36 -5.5,-4.66 -2.01,0.36 -3.75,1.73 -5.19,1.76 -0.75,-0.66 -1.02,-2.58 -0.52,-3.63 0.88,-1.84 5.84,-2.59 8.19,-2.59 5.17,0 8.3,1.61 8.71,6.33 0.43,4.87 -0.23,10.21 -0.1,15.33 z m -11.93,-7.77 c -1.89,2.24 0.27,5.02 3.32,4.46 0.85,-0.15 2.8,-1.27 3.11,-2.38 0.28,-1.03 -0.21,-2 0,-3.21 -2.97,0.09 -5.19,-0.33 -6.43,1.13 z"
   class="st0" />
	<path
   id="path34"
   d="m 85.71,346.85 c 1.6,-1.14 3.15,-3.1 5.7,-3.42 10.85,-1.37 8.13,12.36 8.09,21.57 -1.15,0.65 -4.23,0.61 -5.39,0 -0.4,-3.55 0.17,-8.89 -0.1,-12.75 -0.12,-1.68 -0.77,-3.34 -1.97,-3.73 -2.62,-0.86 -4.22,1.56 -5.39,3.01 -0.07,4.46 0.14,9.2 -0.1,13.48 -1.16,0.64 -4.22,0.62 -5.39,0 -0.38,-3.48 0.16,-8.7 -0.1,-12.55 -0.12,-1.76 -0.7,-3.52 -1.97,-3.94 -2.59,-0.86 -4.24,1.53 -5.39,3.01 -0.07,4.46 0.14,9.2 -0.1,13.48 -1.15,0.63 -4.24,0.63 -5.39,0 -0.17,-6.67 -0.17,-14.07 0,-20.74 1.1,-0.67 3.33,-0.56 4.56,-0.1 0.33,0.57 0.17,1.62 0.21,2.49 1.33,-0.92 3.06,-2.91 5.5,-3.22 3.57,-0.46 5.99,0.98 7.23,3.41 z"
   class="st0" />
	<path
   id="path36"
   d="m 111.22,363.33 c -0.12,3.16 0.26,6.83 -0.21,9.64 -1.2,0.62 -4.19,0.62 -5.39,0 -0.17,-9.33 -0.17,-19.39 0,-28.73 0.86,-0.64 3.46,-0.56 4.46,-0.1 0.39,0.55 0.13,1.73 0.21,2.59 2.07,-1.62 4,-3.77 8.4,-3.32 8.35,0.86 8.69,15.91 3.63,20.53 -2.8,2.57 -8.59,2.54 -11.1,-0.61 z m 5.49,-2.49 c 4.26,-1.26 4.26,-13.6 -1.76,-12.55 -1.16,0.2 -3.47,2.04 -3.73,3.21 -0.43,1.89 -0.02,3.8 0,6.43 1.42,1.48 2.61,3.76 5.49,2.91 z"
   class="st0" />
	<path
   id="path38"
   d="m 220.94,364.99 c -1.16,0.61 -4.24,0.65 -5.39,0 -1.27,-4.3 1.81,-15.17 -2.28,-16.49 -2.57,-0.83 -4.38,1.38 -5.5,2.9 -0.13,4.46 0.27,9.46 -0.21,13.58 -1.15,0.63 -4.24,0.63 -5.39,0 -0.17,-6.67 -0.17,-14.07 0,-20.74 1.1,-0.67 3.33,-0.56 4.56,-0.1 0.33,0.57 0.17,1.62 0.21,2.49 0.85,-0.48 1.66,-1.52 2.59,-2.08 3.76,-2.26 8.78,-1.07 10.47,2.08 2.41,4.48 0.41,12.69 0.94,18.36 z"
   class="st0" />
	<path
   id="path40"
   d="m 288.48,343.52 c 5.03,-0.54 8.93,0.84 10.79,3.94 2.77,4.6 1.66,13.22 -2.18,16.28 -3.94,3.14 -12.29,2.89 -15.45,-1.14 -3.01,-3.84 -2.57,-11.88 -0.21,-15.24 1.47,-2.09 3.83,-3.49 7.05,-3.84 z m -0.31,17.53 c 1.45,0.53 3.16,0.35 4.25,-0.21 3.26,-1.66 3.95,-11.48 -0.62,-12.75 -0.74,-0.21 -2.14,-0.09 -2.7,0 -4.96,0.83 -5.01,11.46 -0.93,12.96 z"
   class="st0" />
	<path
   id="path42"
   d="m 342.82,349.13 c -1.23,0.16 -2.05,-0.52 -3.21,-0.31 -1.71,0.3 -2.51,2.25 -3.42,3.32 -0.07,4.22 0.13,8.71 -0.1,12.75 -1.04,0.8 -4.3,0.72 -5.5,0.11 -0.17,-6.67 -0.17,-14.07 0,-20.74 1.1,-0.67 3.33,-0.56 4.56,-0.1 0.34,0.59 0.17,1.7 0.21,2.59 1,-0.82 2.23,-2.99 4.25,-3.32 1.2,-0.2 2.92,-0.1 3.42,0.62 0.72,1.03 0.17,4.11 -0.21,5.08 z"
   class="st0" />
	<path
   id="path44"
   d="m 362.46,363.33 c -0.12,3.16 0.26,6.83 -0.21,9.64 -1.2,0.62 -4.19,0.62 -5.39,0 -0.17,-9.33 -0.17,-19.39 0,-28.73 0.86,-0.64 3.46,-0.56 4.46,-0.1 0.39,0.55 0.13,1.73 0.21,2.59 2.07,-1.62 4,-3.77 8.4,-3.32 8.35,0.86 8.69,15.91 3.63,20.53 -2.8,2.57 -8.59,2.54 -11.1,-0.61 z m 5.5,-2.49 c 4.27,-1.26 4.26,-13.6 -1.76,-12.55 -1.16,0.2 -3.47,2.04 -3.73,3.21 -0.43,1.89 0,4 0,6.43 1.42,1.48 2.61,3.76 5.49,2.91 z"
   class="st0" />
	<path
   id="path46"
   d="m 386.21,356.18 c 0.09,4.13 2.3,5.62 6.95,5.29 2.04,-0.15 3.89,-1.26 5.5,-1.14 0.7,0.88 0.54,2.92 0.1,3.63 -0.79,1.29 -3.92,1.73 -5.81,1.87 -8.41,0.61 -12.53,-3.29 -12.55,-10.89 -0.02,-6.24 3.01,-10.93 8.61,-11.51 6.07,-0.63 9.85,2.05 10.78,7.05 0.28,1.51 0.6,4.33 -0.21,5.19 -0.9,0.95 -4.52,0.52 -6.43,0.52 -2.54,-0.01 -4.68,-0.01 -6.94,-0.01 z m 5.39,-8.71 c -3.48,-0.64 -5.25,1.8 -5.39,4.98 2.76,0 5.53,0 8.3,0 0.01,-2.63 -0.88,-4.61 -2.91,-4.98 z"
   class="st0" />
	<path
   id="path48"
   d="m 417.32,349.13 c -1.22,0.16 -2.05,-0.52 -3.21,-0.31 -1.71,0.3 -2.51,2.25 -3.42,3.32 -0.07,4.22 0.13,8.71 -0.1,12.75 -1.05,0.8 -4.31,0.72 -5.5,0.11 -0.17,-6.67 -0.17,-14.07 0,-20.74 1.1,-0.67 3.33,-0.56 4.56,-0.1 0.34,0.59 0.17,1.7 0.21,2.59 1,-0.82 2.23,-2.99 4.25,-3.32 1.21,-0.2 2.92,-0.1 3.42,0.62 0.72,1.03 0.16,4.11 -0.21,5.08 z"
   class="st0" />
	<path
   id="path50"
   d="m 441.07,356.18 c 0.09,4.13 2.3,5.62 6.95,5.29 2.04,-0.15 3.89,-1.26 5.5,-1.14 0.7,0.88 0.54,2.92 0.1,3.63 -0.8,1.29 -3.92,1.73 -5.81,1.87 -8.41,0.61 -12.53,-3.29 -12.55,-10.89 -0.02,-6.24 3,-10.93 8.61,-11.51 6.07,-0.63 9.85,2.05 10.79,7.05 0.28,1.51 0.6,4.33 -0.21,5.19 -0.9,0.95 -4.52,0.52 -6.43,0.52 -2.55,-0.01 -4.69,-0.01 -6.95,-0.01 z m 5.39,-8.71 c -3.48,-0.64 -5.25,1.8 -5.39,4.98 2.77,0 5.53,0 8.3,0 0.01,-2.63 -0.88,-4.61 -2.91,-4.98 z"
   class="st0" />
	<path
   id="path52"
   d="m 474.15,349.96 c -2.29,-0.57 -3.74,-2.77 -6.84,-1.66 -4.25,1.52 -3.6,10.9 -0.42,12.44 1.25,0.6 3,0.38 4.05,0 1.39,-0.5 2.04,-1.56 3.53,-1.76 0.46,1.18 0.77,3.44 0.21,4.56 -0.61,1.22 -3.46,2.11 -5.18,2.28 -4.03,0.39 -7.07,-0.8 -8.81,-3.11 -3.16,-4.2 -2.68,-13.09 0.83,-16.7 1.83,-1.88 4.65,-2.96 8.4,-2.59 1.37,0.13 4.22,0.88 4.77,2.28 0.44,1.19 0.16,3.6 -0.54,4.26 z"
   class="st0" />
	<path
   id="path54"
   d="m 517.85,348.81 c -1.27,0 -2.51,-1.14 -4.15,-1.35 -2.2,-0.28 -4.19,0.17 -4.15,2.07 0.06,2.48 5.76,3.23 7.47,4.56 2.44,1.91 3.23,6.87 0.52,9.54 -1.53,1.5 -4.69,2.45 -8.3,2.18 -1.55,-0.12 -3.98,-0.55 -4.77,-1.56 -0.67,-0.86 -0.56,-3.08 0,-4.25 1.9,0.21 2.8,1.43 4.87,1.66 2.33,0.26 4.53,-0.29 4.46,-2.28 -0.05,-1.57 -2.4,-2.39 -3.94,-3.01 -3,-1.2 -5.74,-2.58 -5.7,-6.53 0.04,-4.49 4,-6.84 9.44,-6.43 1.4,0.1 3.76,0.5 4.35,1.55 0.47,0.85 0.3,2.82 -0.1,3.85 z"
   class="st0" />
	<path
   id="path56"
   d="m 600.12,343.52 c 5.03,-0.54 8.92,0.84 10.78,3.94 2.77,4.6 1.67,13.22 -2.18,16.28 -3.94,3.14 -12.29,2.89 -15.45,-1.14 -3.01,-3.84 -2.57,-11.88 -0.21,-15.24 1.48,-2.09 3.84,-3.49 7.06,-3.84 z m -0.31,17.53 c 1.45,0.53 3.16,0.35 4.25,-0.21 3.26,-1.66 3.95,-11.48 -0.62,-12.75 -0.74,-0.21 -2.14,-0.09 -2.7,0 -4.96,0.83 -5.02,11.46 -0.93,12.96 z"
   class="st0" />
	<path
   id="path58"
   d="m 244.48,344.05 c 0.56,1.03 0.64,3.37 -0.21,4.15 -0.79,0 -1.59,0 -2.39,0 0.13,0.55 0.62,1.22 0.73,1.97 0.83,6.23 -5.71,9.32 -11.41,7.26 -0.46,0.4 -0.77,0.85 -0.62,1.66 0.29,1.53 3.97,1.26 6.33,1.35 4.4,0.17 8.19,1.61 7.67,6.64 -0.39,3.78 -4.23,6.01 -8.5,6.33 -4.17,0.3 -8.41,-0.26 -10.27,-2.28 -1.95,-2.13 -1,-6.63 1.66,-7.99 -2.78,-1.14 -2.07,-6.42 0.21,-7.57 -3.78,-4.79 -0.8,-11.44 5.19,-12.03 1.5,-0.15 2.98,0.17 4.56,0.31 2.34,0.2 4.75,-0.34 7.05,0.2 z m -12.97,8.81 c 0.65,0.95 2.55,1.55 4.15,1.04 2.42,-0.78 2.71,-5.5 0,-6.33 -0.64,-0.2 -1.93,-0.11 -2.39,0 -2.04,0.47 -3.07,3.38 -1.76,5.29 z M 230.27,368 c 0.91,2.46 7.82,1.87 8.5,-0.62 0.96,-3.52 -3.77,-2.83 -6.84,-2.9 -1.09,0.84 -2.18,2.12 -1.66,3.52 z"
   class="st0" />
	<path
   id="path60"
   d="m 61.96,344.25 c 0.17,6.67 0.17,14.07 0,20.74 -1.15,0.63 -4.24,0.63 -5.39,0 -0.17,-6.67 -0.17,-14.07 0,-20.74 1.4,-0.63 4,-0.63 5.39,0 z"
   class="st0" />
	<path
   id="path62"
   d="m 147.51,344.25 c 0.17,6.67 0.17,14.07 0,20.74 -1.15,0.63 -4.24,0.63 -5.39,0 -0.17,-6.67 -0.17,-14.07 0,-20.74 1.4,-0.63 4,-0.63 5.39,0 z"
   class="st0" />
	<path
   id="path64"
   d="m 176.76,358.36 c 1.81,-4.55 2.94,-9.78 4.77,-14.31 0.99,-0.12 4.59,-0.74 5.18,0.41 0.35,0.67 -0.49,2.7 -0.83,3.73 -2.33,7.03 -4.79,14.19 -7.26,21.16 -0.37,1.06 -0.77,2.93 -1.24,3.42 -0.78,0.81 -5.5,1.09 -6.02,0.1 -0.41,-0.8 0.92,-2.92 1.24,-3.73 0.59,-1.46 0.83,-2.53 1.45,-3.63 -1.26,-1.49 -1.87,-4 -2.7,-6.22 -1.2,-3.24 -2.42,-6.24 -3.73,-9.75 -0.39,-1.03 -1.85,-4 -1.45,-4.98 0.35,-0.86 4.25,-1.25 5.39,-0.52 0.6,0.39 1.12,2.47 1.45,3.42 1.27,3.56 2.61,7.44 3.75,10.9 z"
   class="st0" />
	<path
   id="path66"
   d="m 195.94,344.25 c 0.17,6.67 0.17,14.07 0,20.74 -1.15,0.63 -4.24,0.63 -5.39,0 -0.17,-6.67 -0.17,-14.07 0,-20.74 1.4,-0.63 4,-0.63 5.39,0 z"
   class="st0" />
	<path
   id="path68"
   d="m 267.02,358.36 c 1.81,-4.55 2.94,-9.78 4.77,-14.31 0.99,-0.12 4.59,-0.74 5.18,0.41 0.35,0.67 -0.49,2.7 -0.83,3.73 -2.33,7.03 -4.79,14.19 -7.26,21.16 -0.37,1.06 -0.77,2.93 -1.24,3.42 -0.78,0.81 -5.5,1.09 -6.02,0.1 -0.41,-0.8 0.92,-2.92 1.24,-3.73 0.59,-1.46 0.83,-2.53 1.45,-3.63 -1.26,-1.49 -1.87,-4 -2.7,-6.22 -1.2,-3.24 -2.42,-6.24 -3.73,-9.75 -0.39,-1.03 -1.85,-4 -1.45,-4.98 0.35,-0.86 4.25,-1.25 5.39,-0.52 0.6,0.39 1.12,2.47 1.45,3.42 1.27,3.56 2.61,7.44 3.75,10.9 z"
   class="st0" />
	<path
   id="path70"
   d="m 551.65,344.25 c 0.17,6.67 0.17,14.07 0,20.74 -1.15,0.63 -4.24,0.63 -5.39,0 -0.17,-6.67 -0.17,-14.07 0,-20.74 1.4,-0.63 4,-0.63 5.39,0 z"
   class="st0" />
	<path
   id="path72"
   d="m 634.34,344.25 c 0.17,6.67 0.17,14.07 0,20.74 -1.15,0.63 -4.24,0.63 -5.39,0 -0.17,-6.67 -0.17,-14.07 0,-20.74 1.4,-0.63 4,-0.63 5.39,0 z"
   class="st0" />
	<path
   id="path74"
   d="m 696.56,358.36 c 1.81,-4.55 2.94,-9.78 4.77,-14.31 0.99,-0.12 4.59,-0.74 5.19,0.41 0.35,0.67 -0.49,2.7 -0.83,3.73 -2.33,7.03 -4.79,14.19 -7.26,21.16 -0.37,1.06 -0.78,2.93 -1.24,3.42 -0.78,0.81 -5.5,1.09 -6.01,0.1 -0.42,-0.8 0.92,-2.92 1.24,-3.73 0.58,-1.46 0.83,-2.53 1.45,-3.63 -1.26,-1.49 -1.87,-4 -2.7,-6.22 -1.2,-3.24 -2.42,-6.24 -3.74,-9.75 -0.38,-1.03 -1.85,-4 -1.45,-4.98 0.35,-0.85 4.25,-1.25 5.39,-0.52 0.6,0.39 1.12,2.47 1.45,3.42 1.26,3.56 2.6,7.44 3.74,10.9 z"
   class="st0" />
	<path
   id="path76"
   d="m 310.99,344.25 c 0.94,4.19 -1.16,11.75 0.73,15.14 1.73,3.12 6.04,0.59 7.05,-1.56 0.13,-4.5 -0.27,-9.53 0.21,-13.69 1.33,-0.41 4.36,-0.63 5.39,0.21 0.17,6.64 0.17,14 0,20.64 -0.95,0.59 -3.73,0.65 -4.67,0 -0.23,-0.64 -0.04,-1.69 -0.1,-2.49 -1.88,2.59 -8.3,5.09 -11.93,1.66 -1.98,-1.87 -2.28,-5.17 -2.28,-8.92 0,-3.65 -0.17,-7.72 0.21,-10.99 1.15,-0.65 4.23,-0.61 5.39,0 z"
   class="st0" />
</g>
<g
   transform="translate(-33.749796,-213.77507)"
   id="LOGO">
	<path
   id="path79"
   d="m 774.32,258.49 c 3.14,2.94 6.82,5.35 8.71,9.54 1.6,2.7 3.73,7.77 4.56,10.37 1.7,4.55 2.53,11.68 1.67,17.77 -0.97,6.81 -4.44,13.78 -6.16,16.78 -1.53,2.38 -3.46,4.64 -5.49,6.48 -2.13,1.92 -3.96,3.34 -6.72,4.91 -3.59,2.04 -7.92,3.16 -13.17,3.63 -2.35,0.21 -4.41,0.2 -6.85,0 -2.91,-0.24 -6.12,-0.79 -8.5,-1.55 -1.34,-0.43 -2.22,-0.84 -3.32,-1.24 -0.66,-0.24 -3.12,-1.76 -3.63,-1.76 -0.44,0 -1.79,1.33 -2.49,1.97 -1.5,1.38 -4.13,4.29 -2.39,7.05 0.65,1.04 1.14,1.84 2.81,2.8 3.03,1.2 7.04,0.83 11.5,0.63 9.19,-0.42 20.01,-0.46 28.62,0.1 6.43,0.42 11.72,2.39 15.14,6.02 2.39,2.53 4.6,5.8 5.36,9.96 0.26,1.41 0.74,3.44 0.86,4.97 0.18,2.11 0.12,5.92 0,7.47 -0.26,3.29 -0.58,6.2 -1.35,8.82 -0.49,1.66 -1.46,3.82 -2.27,5.41 -4.99,9.84 -16.93,11.77 -31.44,11.8 -5.95,0.01 -12.81,-0.05 -19.1,-0.26 -6.91,-0.23 -11.65,-0.97 -16.26,-2.75 -2.96,-1.14 -6.94,-3.49 -8.81,-5.81 -0.88,-1.08 -1.59,-1.78 -2.18,-3.63 -0.58,-1.56 -1.07,-2.7 -0.92,-4.77 0.18,-2.31 0.69,-3.52 1.67,-5.04 0.99,-1.54 2.1,-2.5 3.6,-3.56 1.95,-1.37 4.52,-2.76 6.43,-4.04 -4.32,-4.11 -7.75,-10.31 -7.67,-17.53 0.02,-2.27 0.52,-4.53 1.1,-6.58 0.9,-3.2 2.64,-5.87 4.4,-8.36 2.35,-3.33 5.75,-6.18 8.71,-8.92 -3.84,-3.47 -7.38,-7.95 -9.11,-13.41 -0.29,-0.92 -2.46,-7.57 -2.71,-10.44 -0.28,-3.14 -0.25,-6.52 0,-9.85 0.08,-1.14 0.78,-4.67 1.87,-7.99 0.62,-1.7 0.97,-2.64 1.66,-4.15 0.61,-1.33 2.43,-4.95 3.42,-6.53 2.4,-3.83 7.06,-7.8 9.33,-9.44 5.25,-3.58 9.11,-4.1 15.56,-4.67 6.56,-0.57 13.15,0.53 17.94,2.49 3.12,-4.87 6.8,-9.09 11.62,-12.34 1.59,-1.07 3.12,-1.87 4.92,-2.82 3.41,-1.79 7.49,-3.26 13.12,-2.78 3.5,0.3 6.92,1.2 9.25,2.44 3.1,1.65 6.34,6.26 6.72,10.52 0.74,8.54 -6.92,13.68 -15.66,11.2 -1.77,-0.5 -2.93,-1.52 -4.15,-2.49 -0.79,-0.63 -1.97,-1.89 -2.97,-2.58 -3.17,-2.19 -4.42,-4.15 -8.75,-4.27 -1.91,-0.05 -4.34,1.14 -5.6,2.28 -1.15,1.06 -2.06,2.65 -2.88,4.15 z m -23.02,7.36 c -4.1,2.12 -4.04,7.76 -4.04,13.9 0,6.75 0,14.57 0,21.36 0,6.86 0.03,11.65 4.15,13.69 3.66,1.81 8.4,0.29 9.85,-3.73 0.81,-2.24 0.41,-6.45 0.41,-10.27 0,-8.39 0,-12.89 0,-21.16 0,-3.31 0.49,-7.67 -0.52,-10.27 -1.03,-2.63 -4.08,-4.37 -6.84,-4.25 -1.02,0.05 -2.01,0.21 -3.01,0.73 z m -25.31,101.53 c -1.2,0.97 -2.58,2.36 -3.11,3.53 -1.83,4.01 0.79,7.33 3.21,9.02 2.25,1.57 5.48,2.47 8.92,3.21 3.38,0.73 7.11,0.87 10.99,0.83 8.82,-0.08 16.86,0.45 23.75,-0.62 5.42,-0.84 11.84,-2.39 13.59,-6.53 1.62,-3.84 -0.19,-7.55 -3.32,-8.61 -1.25,-0.42 -2.81,-0.58 -4.56,-0.62 -8.94,-0.22 -17.17,0.1 -26.01,0.1 -3.63,0 -7.3,0 -10.28,-0.51 -3.5,-0.6 -5.93,-1.64 -8.82,-2.59 -1.45,0.76 -3.03,1.71 -4.36,2.79 z"
   class="st0" />
	<path
   id="path81"
   d="m 671.51,246.67 c 0.65,0.04 1.03,0.27 1.2,1.25 0.44,3.46 0.05,8.39 0.25,12.75 1.37,-0.67 2.12,-1.62 3.37,-2.57 0.71,-0.55 1.82,-1.44 2.64,-1.99 1.6,-1.08 2.87,-1.87 4.98,-2.7 2.66,-1.05 5.52,-1.65 8.71,-1.76 5.44,-0.19 10.22,1.36 13.9,3.53 2.46,1.45 4.88,3.52 6.22,6.12 2.73,5.29 3.04,14.18 3.11,22.09 0.04,3.97 0.04,8.27 0,12.44 -0.04,4.28 -0.27,8.6 0,12.34 0.36,4.93 3.54,7.8 9.44,7.57 0,1.69 0,3.39 0,5.08 -9.54,0 -20.54,0 -30.59,0 -1.52,0 -3.13,0.24 -4.36,0 -1.23,-0.25 -2.39,-1.39 -2.7,-2.18 -0.48,-1.25 -0.21,-3.7 -0.21,-5.81 0,-9.89 0.11,-19.91 0.11,-29.45 0,-3.94 0.43,-8.05 0,-11.93 -0.52,-4.6 -5.93,-8.1 -10.58,-5.39 -2.58,1.5 -3.6,4.62 -3.84,8.81 -0.29,5.07 0,10.55 0,16.7 0,6.19 -0.39,11.35 0,16.7 0.37,5.14 3.67,7.77 9.44,7.57 0,1.69 0,3.39 0,5.08 -8.36,0 -17.63,0 -26.45,0 -2.58,0 -6.3,0.46 -8.61,-0.1 -1.01,-0.25 -2.11,-1.13 -2.49,-1.97 -0.85,-1.88 -0.31,-6.29 -0.31,-8.71 0,-8.93 0.08,-22.92 0.1,-26.55 0.28,-7.28 -0.42,-12.22 -4.36,-15.45 -2.05,-1.68 -5.6,-1.76 -6.53,-4.56 -0.43,-1.4 2.1,-1.56 3.32,-1.97 1.29,-0.43 2.59,-0.95 3.84,-1.45 1.83,-0.73 3.72,-1.35 5.39,-2.07 8.53,-3.68 14.64,-6.48 21.07,-9.9 1.33,-0.71 2.22,-1.34 3.28,-1.47 0.15,-0.05 0.51,-0.03 0.66,-0.05 z"
   class="st0" />
	<path
   id="path83"
   d="m 595.64,253.2 c 8.26,0.2 18.35,-0.26 26.65,0 1.94,0.06 7.33,-0.37 8.53,0.56 1.67,1.29 1.01,3.79 1.01,6.38 0,12.63 -0.01,24.74 0,37.13 0,4.6 -0.63,10.96 0.72,14.1 1.27,2.94 4.37,4.75 8.71,4.46 0,1.69 0,3.39 0,5.08 -8.39,0 -17.73,0 -26.65,0 -2.59,0 -6.27,0.53 -8.61,-0.21 -3.18,-1 -2.59,-4.12 -2.59,-8.61 0,-11.78 0.1,-22.93 0.1,-34.74 0,-6.23 0.48,-12.5 -1.45,-16.49 -1.83,-2.78 -3.7,-3.15 -6.53,-3.73 -0.1,-1.14 -0.13,-2.36 -0.1,-3.63 0.09,-0.07 0.06,-0.27 0.21,-0.3 z"
   class="st0" />
	<path
   id="path85"
   d="m 613.58,220.64 c 5.48,-0.89 9.83,1.64 12.24,4.04 2.36,2.36 4.54,6.33 4.04,11.62 -0.67,7.17 -7.09,13.16 -15.56,12.44 -7.03,-0.59 -12.12,-6.44 -12.65,-12.76 -0.44,-5.18 1.88,-8.9 3.84,-10.99 2.02,-2.15 4.63,-3.79 8.09,-4.35 z"
   class="st0" />
	<path
   id="path87"
   d="m 806.2,292.67 c 5.48,-0.89 9.83,1.64 12.24,4.04 2.36,2.36 4.54,6.33 4.04,11.62 -0.67,7.17 -7.09,13.16 -15.56,12.44 -7.03,-0.59 -12.12,-6.44 -12.65,-12.76 -0.44,-5.18 1.88,-8.9 3.84,-10.99 2.02,-2.15 4.64,-3.79 8.09,-4.35 z"
   class="st0" />
	<path
   id="path89"
   d="m 600.51,315.94 c 0,1.69 0,3.39 0,5.08 -8.39,0 -17.73,0 -26.65,0 -4.07,0 -9.82,0.85 -10.99,-2.18 -0.75,-1.96 -0.21,-7.18 -0.21,-9.75 0,-19.7 0,-39.32 0,-59.11 0,-3.26 -0.06,-6.23 -1.09,-8.67 -1.59,-3.75 -4,-6.58 -7.83,-8.33 -0.93,-0.42 -3.1,-0.08 -3.2,-2.11 0.09,-1.34 3.47,-1.4 5.17,-1.94 5.2,-1.65 10.01,-3.26 14.93,-5.29 2.29,-0.94 8.87,-3.56 9.68,-3.91 1.45,-0.63 3,-1.36 4.48,-2.14 0.69,-0.37 1.5,-0.8 2.22,-1.21 0.76,-0.43 2.26,-1.26 3.11,-1.14 1.25,0.17 0.93,3.45 0.93,4.98 0,21.62 0,43.38 0,64.81 0,3.98 0.17,7.99 0,11.82 -0.17,3.83 -0.27,7.81 0,11.51 0.38,4.99 3.89,7.91 9.45,7.58 z"
   class="st0" />
	<path
   id="path91"
   d="m 177.2,283.48 c -12.49,0.24 -25.97,0.13 -39.51,0.1 -0.1,4.21 0.77,7.88 1.87,10.99 0.67,1.89 1.73,3.97 2.99,5.94 1.9,2.98 3.97,4.49 6.76,6.51 3.08,2.22 7.16,4.1 11.82,4.56 3.36,0.33 6.87,0.21 9.44,-0.73 0.94,-0.34 1.74,-0.97 2.59,-1.45 0.83,-0.47 1.39,-1.83 2.8,-1.24 1.53,0.6 1.13,2.29 0.68,3.73 -0.58,1.89 -1.49,3.42 -3,4.91 -1.17,1.26 -2.44,2.48 -3.84,3.5 -0.48,0.35 -2.45,1.92 -4.25,2.88 -2.06,1.09 -5.59,2.78 -8.47,3.66 -2.23,0.68 -7.93,1.82 -13.53,1.31 -4.74,-0.43 -7.24,-1.1 -9.84,-2.03 -3.16,-1.13 -5.6,-2.4 -8.14,-4.26 -1.12,-0.82 -1.98,-1.49 -3.01,-2.39 -1.09,-0.96 -6,-6.86 -7.36,-9.44 -0.68,-1.29 -1.32,-2.93 -1.97,-4.46 -0.46,-1.08 -1.66,-5.16 -1.87,-6.22 -0.62,-3.18 -0.71,-8.61 -0.41,-12.45 0.08,-1.02 0.57,-3.55 0.62,-3.94 0.09,-0.68 0.4,-1.57 0.62,-2.38 0.43,-1.54 1.07,-3.64 1.76,-5.19 0.22,-0.49 0.83,-1.97 1.01,-2.32 1.22,-2.42 5.35,-8.67 7.81,-11.17 3.01,-3.05 7.36,-5.74 11.26,-7.46 1.4,-0.62 3.33,-1.24 4.82,-1.67 2.49,-0.71 4.44,-0.84 5.18,-0.93 1.8,-0.22 3.68,-0.11 5.39,0 1.6,0.1 5.24,0.77 7.32,1.35 1,0.28 2.37,0.81 2.84,1 2.33,0.95 4.06,2.03 6.22,3.56 3.72,2.81 5.29,4.53 7.69,8.6 1.28,2.22 1.72,2.98 2.37,4.58 1.04,2.54 1.59,5.19 1.66,8.82 0.01,1.22 0.19,2.63 -0.32,3.73 z m -25,-7.05 c 5.26,-2.23 3.52,-12.85 -0.41,-16.07 -0.64,-0.53 -1.73,-1.22 -2.38,-1.45 -1.92,-0.67 -4.67,-0.13 -5.91,0.42 -5.44,2.39 -5.78,10.24 -6.01,18.15 5.61,0.07 11.05,0.5 14.71,-1.05 z"
   class="st0" />
	<path
   id="path93"
   d="m 492.2,283.48 c -12.49,0.24 -25.97,0.13 -39.51,0.1 -0.1,4.21 0.77,7.88 1.87,10.99 0.67,1.89 1.73,3.97 2.99,5.94 1.9,2.98 3.97,4.49 6.76,6.51 3.08,2.22 7.16,4.1 11.82,4.56 3.36,0.33 6.87,0.21 9.44,-0.73 0.94,-0.34 1.74,-0.97 2.59,-1.45 0.83,-0.47 1.39,-1.83 2.8,-1.24 1.53,0.6 1.12,2.29 0.68,3.73 -0.58,1.89 -1.49,3.42 -3,4.91 -1.17,1.26 -2.44,2.48 -3.84,3.5 -0.48,0.35 -2.45,1.92 -4.25,2.88 -2.06,1.09 -5.59,2.78 -8.47,3.66 -2.23,0.68 -7.93,1.82 -13.53,1.31 -4.74,-0.43 -7.24,-1.1 -9.84,-2.03 -3.16,-1.13 -5.6,-2.4 -8.14,-4.26 -1.12,-0.82 -1.98,-1.49 -3.01,-2.39 -1.09,-0.96 -6,-6.86 -7.36,-9.44 -0.68,-1.29 -1.32,-2.93 -1.97,-4.46 -0.46,-1.08 -1.66,-5.16 -1.87,-6.22 -0.62,-3.18 -0.71,-8.61 -0.41,-12.45 0.08,-1.02 0.57,-3.55 0.62,-3.94 0.09,-0.68 0.4,-1.57 0.62,-2.38 0.43,-1.54 1.07,-3.64 1.76,-5.19 0.22,-0.49 0.83,-1.97 1.01,-2.32 1.22,-2.42 5.35,-8.67 7.81,-11.17 3.01,-3.05 7.36,-5.74 11.26,-7.46 1.4,-0.62 3.33,-1.24 4.82,-1.67 2.49,-0.71 4.44,-0.84 5.18,-0.93 1.8,-0.22 3.67,-0.11 5.39,0 1.6,0.1 5.24,0.77 7.32,1.35 1,0.28 2.37,0.81 2.84,1 2.33,0.95 4.06,2.03 6.22,3.56 3.72,2.81 5.29,4.53 7.69,8.6 1.28,2.22 1.72,2.98 2.37,4.58 1.04,2.54 1.59,5.19 1.66,8.82 0.01,1.22 0.19,2.63 -0.32,3.73 z m -25,-7.05 c 5.26,-2.23 3.52,-12.85 -0.42,-16.07 -0.64,-0.53 -1.73,-1.22 -2.38,-1.45 -1.92,-0.67 -4.67,-0.13 -5.91,0.42 -5.44,2.39 -5.78,10.24 -6.01,18.15 5.62,0.07 11.06,0.5 14.72,-1.05 z"
   class="st0" />
	<path
   id="path95"
   d="m 466.76,243.14 c -1.51,0.72 -2.66,1.28 -4.41,1.94 -0.75,-1.66 -1.38,-2.65 -2.41,-4.5 -0.35,-0.64 -0.72,-1.38 -1.06,-1.97 -0.32,-0.54 -0.77,-1.21 -1.14,-1.9 -2.14,-3.98 -7.04,-8.58 -8.4,-9.54 -0.94,-0.67 -1.67,-1.13 -3.02,-1.94 -0.93,-0.55 -2.28,-1.28 -4.34,-1.49 -1.74,-0.17 -4.24,-0.11 -6.22,-0.11 -5.85,0 -11.34,0.06 -17.42,0.11 -0.24,9.61 -0.03,19.67 -0.1,29.45 4.77,0 9.54,0 14.31,0 0,2.45 0,4.91 0,7.36 -4.77,0 -9.54,0 -14.31,0 0,11.51 0,24.75 0,36.5 0,4.15 -0.28,8.33 0.1,12.03 0.45,4.37 4.19,7.09 9.33,6.74 0,1.69 0,3.39 0,5.08 -15.73,0 -31.46,0 -47.18,0 0,-1.69 0,-3.39 0,-5.08 4.97,0.26 8.82,-2.09 9.33,-6.64 0.36,-3.2 0.1,-6.78 0.1,-10.27 0,-19.92 0,-41.45 0,-61.5 0,-3.86 0.48,-9.82 -0.72,-12.55 -1.32,-2.98 -4.31,-4.53 -8.71,-4.35 0,-1.69 0,-3.39 0,-5.08 20.66,0 42.84,0 63.88,0 3,0 6.15,0.3 9.02,0 1.49,-0.16 2.96,-0.83 4.46,-1.24 0.45,-0.13 1.09,-0.39 1.45,-0.41 1.6,-0.11 1.6,1.64 1.97,3.32 1.91,8.6 3.64,17.86 5.49,26.04 z"
   class="st0" />
	<path
   id="path97"
   d="m 295.37,215.31 c 0.92,0.39 0.77,2.1 0.77,3.25 0,18.95 -0.06,38.78 -0.06,57.76 6.42,-3.45 13.97,-8.05 20.81,-12.19 1.04,-0.63 2.8,-1.31 2.93,-2.12 0.35,-2.13 -2.77,-1.11 -4.15,-1.35 0,-2.52 0,-5.05 0,-7.57 8.54,0 17.08,0 25.61,0 -0.01,2.15 0.01,5.09 0,7.57 -1.31,0 -2.63,0 -3.94,0 -6.03,3.71 -12.03,7.47 -18.05,11.2 5.08,9.22 10.07,19.71 15.56,29.14 1.88,3.23 3.38,6.59 5.29,9.54 0.77,1.2 1.88,2.47 2.9,3.21 2.08,1.52 5.46,1.87 8.3,2.49 0.32,1.34 0.18,3.14 0.31,4.66 -14.93,0 -29.87,0 -44.8,0 0.03,-1.76 -0.18,-3.27 -0.1,-5.08 1.95,0.15 3.1,-0.7 3.32,-2.08 0.22,-1.42 -0.79,-2.91 -1.35,-4.04 -3.98,-8.05 -8.84,-16.73 -12.65,-24.47 0,8.36 0,16.67 0,25.41 0,2.26 0.52,6.32 -0.21,8.19 -1.19,3.09 -6.95,2.18 -11.51,2.18 -8.39,0 -17.92,0 -26.13,0 0,-1.69 0,-3.39 0,-5.08 4.31,0.25 7.63,-1.52 8.81,-4.56 1.19,-3.05 0.73,-9.23 0.73,-13.38 0,-12.42 -0.1,-26.24 -0.1,-39.82 0,-6.83 0.81,-13.76 -1.66,-18.15 -1.9,-3.37 -4.04,-5.7 -7.67,-7.26 -1.01,-0.43 -2.69,-0.18 -2.74,-1.9 -0.02,-1.14 2.68,-1.27 4.08,-1.63 3.05,-0.79 6.06,-1.96 9.12,-3.01 3.01,-1.03 5.99,-2.1 8.82,-3.32 3.54,-1.53 7.22,-2.79 10.68,-4.56 1.88,-0.96 4.02,-1.99 6.02,-3.01 0.19,-0.08 0.64,-0.28 1.06,-0.02 z"
   class="st0" />
	<path
   id="path99"
   d="m 220.82,316.98 c -0.84,0.86 -1.49,1.68 -2.56,2.82 -2.28,2.67 -5.25,4.17 -6.91,5.12 -0.59,0.34 -2.59,1.22 -3.81,1.7 -0.65,0.26 -1.21,0.44 -1.76,0.62 -6.46,2.17 -16.39,0.62 -20.64,-2.49 -4.45,-3.26 -7.45,-8.87 -6.74,-17.01 0.21,-2.39 1.89,-6.62 3.17,-8.76 1.34,-2.25 2.99,-3.4 3.84,-4.19 0.84,-0.77 2.77,-2.14 3.62,-2.72 1.08,-0.73 6.96,-4.08 9.27,-5.17 2.35,-1.11 4.85,-2.21 7.19,-3.36 4.64,-2.27 9.33,-4.13 14.07,-6.18 -0.32,-4.16 0.2,-8.44 -0.31,-12.03 -0.63,-4.43 -4.15,-7.3 -8.92,-6.74 -3.86,0.45 -6.65,3.6 -6.33,8.4 0.24,3.61 0.83,6.55 -0.62,10.68 -1.26,2.72 -1.8,3.32 -3.51,4.65 -1.19,0.93 -1.69,1.12 -3.25,1.72 -1.13,0.43 -2.47,0.88 -4.64,0.58 -4.18,-0.57 -7.22,-3.27 -8.19,-7.05 -0.7,-2.71 0.02,-5.96 0.62,-7.98 0.68,-2.28 1.17,-3.81 3.11,-6.33 1.2,-1.56 1.83,-2.16 2.82,-2.96 1.97,-1.59 3.48,-2.65 5.99,-4.09 2.39,-1.37 5.29,-2.41 7.73,-3.01 1.05,-0.26 1.96,-0.28 2.64,-0.42 1.84,-0.37 4.35,-0.49 6.33,-0.62 1.9,-0.13 4.01,0.08 5.91,0.21 5.93,0.4 11.79,1.67 15.97,3.84 2.17,1.13 3.19,1.54 4.93,2.93 0.96,0.77 2.07,1.66 2.85,2.56 1.42,1.65 2.4,2.9 3.53,5.5 1.5,3.97 1.45,7.58 1.6,11.94 0.27,8.03 0.02,19.36 0.11,27.73 0.03,3.08 -1.07,9.21 3.9,9.27 0.68,0.01 1.55,-0.54 2.28,-0.41 1.98,0.34 2.57,3.01 0.59,5.05 -3.06,3.3 -7,5.52 -11.89,6.77 -3.99,1.02 -8.32,0.49 -11.72,-0.73 -4.29,-1.52 -8.29,-5.93 -10.27,-9.84 z m -4.34,-30.84 c -0.48,0.4 -1.56,1.09 -2.12,1.56 -4.42,3.69 -6.71,12.39 -5.87,20.25 0.28,2.66 1.68,5.01 3.63,5.91 2.31,1.07 5.08,-0.21 6.01,-1.66 2.19,-3.4 1.45,-10.17 1.45,-15.76 0,-4.16 -0.02,-8.42 -0.2,-12.25 -0.01,-0.06 -0.02,-0.12 -0.1,-0.1 -0.98,0.85 -1.8,1.21 -2.8,2.05 z"
   class="st0" />
	<path
   id="path101"
   d="m 560.2,283.48 c -12.49,0.24 -25.97,0.13 -39.51,0.1 -0.1,4.21 0.77,7.88 1.87,10.99 0.67,1.89 1.73,3.97 2.99,5.94 1.9,2.98 3.97,4.49 6.76,6.51 3.08,2.22 7.16,4.1 11.82,4.56 3.36,0.33 6.87,0.21 9.44,-0.73 0.94,-0.34 1.74,-0.97 2.59,-1.45 0.83,-0.47 1.39,-1.83 2.8,-1.24 1.53,0.6 1.12,2.29 0.68,3.73 -0.58,1.89 -1.49,3.42 -3,4.91 -1.17,1.26 -2.44,2.48 -3.84,3.5 -0.48,0.35 -2.45,1.92 -4.25,2.88 -2.06,1.09 -5.59,2.78 -8.47,3.66 -2.23,0.68 -7.93,1.82 -13.53,1.31 -4.74,-0.43 -7.24,-1.1 -9.84,-2.03 -3.16,-1.13 -5.6,-2.4 -8.14,-4.26 -1.12,-0.82 -1.98,-1.49 -3.01,-2.39 -1.09,-0.96 -6,-6.86 -7.36,-9.44 -0.68,-1.29 -1.32,-2.93 -1.97,-4.46 -0.46,-1.08 -1.66,-5.16 -1.87,-6.22 -0.62,-3.18 -0.71,-8.61 -0.41,-12.45 0.08,-1.02 0.57,-3.55 0.62,-3.94 0.09,-0.68 0.4,-1.57 0.62,-2.38 0.43,-1.54 1.07,-3.64 1.76,-5.19 0.22,-0.49 0.83,-1.97 1.01,-2.32 1.22,-2.42 5.35,-8.67 7.81,-11.17 3.01,-3.05 7.36,-5.74 11.26,-7.46 1.4,-0.62 3.33,-1.24 4.82,-1.67 2.49,-0.71 4.44,-0.84 5.18,-0.93 1.8,-0.22 3.67,-0.11 5.39,0 1.6,0.1 5.24,0.77 7.32,1.35 1,0.28 2.37,0.81 2.84,1 2.33,0.95 4.06,2.03 6.22,3.56 3.72,2.81 5.29,4.53 7.69,8.6 1.28,2.22 1.72,2.98 2.37,4.58 1.04,2.54 1.59,5.19 1.66,8.82 0.01,1.22 0.19,2.63 -0.32,3.73 z m -25,-7.05 c 5.26,-2.23 3.52,-12.85 -0.41,-16.07 -0.64,-0.53 -1.73,-1.22 -2.38,-1.45 -1.92,-0.67 -4.67,-0.13 -5.91,0.42 -5.44,2.39 -5.78,10.24 -6.01,18.15 5.61,0.07 11.05,0.5 14.71,-1.05 z"
   class="st0" />
	<path
   id="path103"
   d="m 33.86,215.51 c 15.23,0 33.25,0 49.36,0 3.43,0 6.87,-0.26 9.85,0 5.85,0.5 10.54,2.41 14.42,5.29 0.64,0.48 1.35,1.07 1.95,1.65 1.86,1.8 3.31,3.16 5.1,6.12 1.06,1.94 1.33,2.89 1.97,4.36 0.69,1.58 1.08,3.28 1.56,4.98 0.46,1.64 0.77,3.08 1.04,4.67 0.48,2.89 0.55,5.72 0.52,8.92 -0.02,2.21 -0.28,5.41 -0.87,7.72 -0.65,2.59 -1.19,4.56 -2.04,6.79 -0.4,1.05 -1.56,3.5 -2.28,4.67 -0.41,0.66 -1,1.45 -1.64,2.23 -4.56,5.56 -11.16,10.44 -20.65,10.74 -6.25,0.2 -13.21,0.08 -20.64,0 0.01,3.6 0,8.17 0,12.76 0,4.59 -0.29,9.34 0.1,12.86 0.49,4.38 4.11,6.91 9.33,6.64 0,1.69 0,3.39 0,5.08 -15.73,0 -31.46,0 -47.19,0 0,-1.69 0,-3.39 0,-5.08 4.79,0.28 8.79,-2.03 9.33,-6.53 0.38,-3.18 0.1,-6.8 0.1,-10.27 0,-20.12 0,-41.25 0,-61.7 0,-4.19 0.51,-9.98 -0.93,-12.75 -1.42,-2.74 -4.18,-4.26 -8.5,-4.04 0,-1.59 0,-3.18 0,-4.77 0,-0.18 -0.01,-0.32 0.11,-0.34 z m 37.75,6.74 c -0.17,17.67 -0.17,36.95 0,54.96 5.64,0.34 9.69,-1.3 12.65,-3.73 5.7,-4.68 6.43,-13.77 6.43,-23.95 0,-10.55 -0.81,-19.7 -6.64,-24.06 -3.2,-2.39 -6.81,-3.8 -12.34,-3.53 -0.12,0.02 -0.11,0.16 -0.1,0.31 z"
   class="st0" />
	<path
   id="path105"
   d="M 566.8,238.98"
   class="st0" />
</g>
</svg>
