<?xml version="1.0" encoding="UTF-8" standalone="no"?>
<svg
   xmlns:dc="http://purl.org/dc/elements/1.1/"
   xmlns:cc="http://creativecommons.org/ns#"
   xmlns:rdf="http://www.w3.org/1999/02/22-rdf-syntax-ns#"
   xmlns:svg="http://www.w3.org/2000/svg"
   xmlns="http://www.w3.org/2000/svg"
   xmlns:sodipodi="http://sodipodi.sourceforge.net/DTD/sodipodi-0.dtd"
   xmlns:inkscape="http://www.inkscape.org/namespaces/inkscape"
   inkscape:version="1.0 (4035a4fb49, 2020-05-01)"
   height="73.599998"
   width="328.13708"
   sodipodi:docname="Peak-Package-logo.svg"
   xml:space="preserve"
   viewBox="0 0 328.13708 73.599998"
   y="0px"
   x="0px"
   id="Layer_1"
   version="1.1"><metadata
   id="metadata119"><rdf:RDF><cc:Work
       rdf:about=""><dc:format>image/svg+xml</dc:format><dc:type
         rdf:resource="http://purl.org/dc/dcmitype/StillImage" /></cc:Work></rdf:RDF></metadata><defs
   id="defs117" /><sodipodi:namedview
   inkscape:current-layer="Layer_1"
   inkscape:window-maximized="1"
   inkscape:window-y="-9"
   inkscape:window-x="-9"
   inkscape:cy="36.1"
   inkscape:cx="163.60902"
   inkscape:zoom="2.0133333"
   showgrid="false"
   id="namedview115"
   inkscape:window-height="1001"
   inkscape:window-width="1920"
   inkscape:pageshadow="2"
   inkscape:pageopacity="0"
   guidetolerance="10"
   gridtolerance="10"
   objecttolerance="10"
   borderopacity="1"
   bordercolor="#666666"
   pagecolor="#ffffff" />
<style
   id="style2"
   type="text/css">
	.st0{fill-rule:evenodd;clip-rule:evenodd;fill:#1D3B60;}
</style>
<g
   transform="translate(-136.39098,-113.9)"
   id="g112">
	<g
   id="SLOGAN_1_">
		<g
   id="g78">
			<path
   id="path4"
   d="m 146.4,164.5 c 0.5,-0.1 1.3,-0.1 1.6,0.2 0.3,0.3 0.4,1.3 0.1,1.8 -0.3,0.5 -1.7,0.6 -2.3,0.2 -0.4,-0.3 -0.4,-1.5 -0.1,-1.9 0.2,-0.2 0.4,-0.3 0.7,-0.3 z"
   class="st0" />
			<path
   id="path6"
   d="m 182,164.5 c 0.5,-0.1 1.3,-0.1 1.6,0.2 0.3,0.3 0.4,1.3 0.1,1.8 -0.3,0.5 -1.7,0.6 -2.3,0.2 -0.4,-0.3 -0.4,-1.5 -0.1,-1.9 0.1,-0.2 0.4,-0.3 0.7,-0.3 z"
   class="st0" />
			<path
   id="path8"
   d="m 202.1,164.5 c 0.5,-0.1 1.3,-0.1 1.6,0.2 0.3,0.3 0.4,1.3 0.1,1.8 -0.3,0.5 -1.7,0.6 -2.3,0.2 -0.4,-0.3 -0.4,-1.5 -0.1,-1.9 0.1,-0.2 0.4,-0.3 0.7,-0.3 z"
   class="st0" />
			<path
   id="path10"
   d="m 350.3,164.5 c 0.5,-0.1 1.3,-0.1 1.6,0.2 0.3,0.3 0.4,1.3 0.1,1.8 -0.3,0.5 -1.7,0.6 -2.3,0.2 -0.4,-0.3 -0.4,-1.5 -0.1,-1.9 0.1,-0.2 0.4,-0.3 0.7,-0.3 z"
   class="st0" />
			<path
   id="path12"
   d="m 384.6,164.5 c 0.5,-0.1 1.3,-0.1 1.6,0.2 0.3,0.3 0.4,1.3 0.1,1.8 -0.3,0.5 -1.7,0.6 -2.3,0.2 -0.4,-0.3 -0.4,-1.5 -0.1,-1.9 0.2,-0.2 0.4,-0.3 0.7,-0.3 z"
   class="st0" />
			<path
   id="path14"
   d="m 191.4,164.4 c 0.2,0.5 0.2,1.3 0,1.7 -0.6,-0.1 -1,-0.3 -1.5,-0.1 -0.7,0.2 -0.5,1.2 -0.5,2.1 0.6,0 1.3,-0.1 1.7,0.1 0.2,0.4 0.2,1.4 0,1.8 -0.5,0.1 -1.1,0 -1.6,0 -0.1,2.2 0,4.6 -0.1,6.8 -0.4,0.3 -1.8,0.3 -2.3,0 -0.1,-2.2 0,-4.6 0,-6.9 -0.4,0 -0.8,0 -1.2,0 -0.3,-0.3 -0.3,-1.4 0,-1.9 0.3,-0.1 0.8,-0.1 1.2,-0.1 0,-2.1 0.5,-3.8 2.4,-4 0.5,0.1 1.4,0.1 1.9,0.5 z"
   class="st0" />
			<path
   id="path16"
   d="m 302.8,164.4 c 0.2,0.5 0.2,1.3 0,1.7 -0.6,-0.1 -1,-0.3 -1.5,-0.1 -0.7,0.2 -0.5,1.2 -0.5,2.1 0.6,0 1.3,-0.1 1.7,0.1 0.2,0.4 0.2,1.4 0,1.8 -0.5,0.1 -1.1,0 -1.6,0 -0.1,2.2 0,4.6 -0.1,6.8 -0.4,0.3 -1.8,0.3 -2.3,0 -0.1,-2.2 0,-4.6 0,-6.9 -0.4,0 -0.8,0 -1.2,0 -0.3,-0.3 -0.3,-1.4 0,-1.9 0.3,-0.1 0.8,-0.1 1.2,-0.1 0,-2.1 0.5,-3.8 2.4,-4 0.5,0.1 1.4,0.1 1.9,0.5 z"
   class="st0" />
			<path
   id="path18"
   d="m 179.2,164.3 c 0.1,4 0.1,8.6 0,12.5 -0.5,0.3 -1.8,0.3 -2.2,0 -0.1,-4.1 -0.1,-8.5 0,-12.5 0.5,-0.3 1.6,-0.3 2.2,0 z"
   class="st0" />
			<path
   id="path20"
   d="m 342.7,164.3 c 0.1,2.4 0,4.9 0,7.3 0.6,-0.6 1.3,-1.7 2,-2.6 0.2,-0.3 0.5,-0.7 0.7,-0.9 0.6,-0.3 1.8,-0.2 2.4,0.1 -0.1,0.8 -0.8,1.3 -1.3,1.9 -0.5,0.5 -1,1.1 -1.4,1.6 0.5,0.8 1,1.6 1.6,2.5 0.5,0.8 1.2,1.5 1.4,2.5 -0.5,0.2 -1.8,0.4 -2.4,0.1 -0.3,-0.1 -0.6,-0.8 -0.8,-1.1 -0.7,-1.1 -1.5,-2.5 -2.2,-3.4 0,1.5 0.1,3.1 0,4.5 -0.5,0.3 -1.8,0.3 -2.2,0 -0.1,-4.1 -0.1,-8.5 0,-12.5 0.5,-0.3 1.6,-0.3 2.2,0 z"
   class="st0" />
			<path
   id="path22"
   d="m 360.8,164.3 c 0.2,1.4 0,3.1 0.1,4.6 0.4,-0.2 0.8,-0.7 1.3,-0.9 1.2,-0.5 2.8,-0.1 3.4,0.7 1.4,1.7 0.5,5.3 0.7,8.1 -0.5,0.3 -1.8,0.3 -2.2,0 -0.5,-1.8 0.8,-6.3 -0.9,-6.9 -1.1,-0.3 -1.8,0.6 -2.3,1.2 -0.1,1.9 0.1,3.9 -0.1,5.6 -0.5,0.3 -1.8,0.3 -2.2,0 -0.1,-4.1 -0.1,-8.5 0,-12.5 0.5,-0.2 1.6,-0.2 2.2,0.1 z"
   class="st0" />
			<path
   id="path24"
   d="m 381.5,164.3 c 0.1,4 0.1,8.6 0,12.5 -0.5,0.3 -1.8,0.3 -2.2,0 -0.1,-4.1 -0.1,-8.5 0,-12.5 0.5,-0.3 1.6,-0.3 2.2,0 z"
   class="st0" />
			<path
   id="path26"
   d="m 396.7,164.3 c 0,4 0.1,8.5 0,12.5 -0.4,0.2 -1.4,0.2 -1.9,0 -0.2,-0.2 -0.1,-0.7 -0.1,-1 -0.6,0.4 -1.3,1.2 -2.3,1.3 -1.2,0.1 -2.2,-0.2 -2.8,-0.8 -2.1,-2 -1.5,-8.1 1.9,-8.5 1.4,-0.1 2.1,0.4 2.9,1 0,-1.5 -0.1,-3.1 0,-4.6 0.4,-0.2 1.8,-0.2 2.3,0.1 z m -4.6,5.6 c -1.9,0.3 -2,5.7 0.6,5.3 0.5,-0.1 1.4,-0.9 1.6,-1.3 0.2,-0.8 0,-1.8 0,-2.7 -0.6,-0.7 -1,-1.5 -2.2,-1.3 z"
   class="st0" />
			<path
   id="path28"
   d="m 143.4,167.5 c -0.6,0 -1.3,-0.7 -2.2,-0.8 -1.1,-0.1 -2.2,0.2 -2.1,1.4 0.1,0.9 1.3,1.3 2.1,1.6 1.4,0.6 2.9,1.4 3.1,3.2 0.3,2.8 -2,4.4 -5.1,4.2 -0.6,0 -1.1,-0.2 -1.6,-0.3 -0.3,-0.1 -0.9,-0.4 -1.1,-0.7 -0.2,-0.5 -0.1,-1.4 0.1,-1.9 0.9,0.2 1.5,0.8 2.6,0.9 1.3,0.1 2.8,-0.3 2.5,-1.8 -0.2,-0.8 -1.3,-1.2 -2.1,-1.5 -1.3,-0.6 -2.5,-1.2 -2.9,-2.6 -0.7,-2.5 1.1,-4.2 3.2,-4.4 1,-0.1 1.7,0 2.5,0.3 0.4,0.1 0.8,0.2 1,0.6 0.3,0.4 0.2,1.4 0,1.8 z"
   class="st0" />
			<path
   id="path30"
   d="m 324.6,166 c 0.2,0.5 0,1.4 0.1,2 0.7,0 1.5,-0.1 2,0.1 0.2,0.5 0.3,1.4 0,1.8 -0.6,0.1 -1.3,0 -1.9,0 0.1,1.1 -0.2,3.2 0,4.4 0.1,1 1,0.9 2,0.6 0.2,0.4 0.3,1.3 0,1.7 -0.3,0.5 -1.5,0.5 -2.2,0.4 -3,-0.3 -2,-4.1 -2.2,-7.2 -0.4,0 -0.9,0.1 -1.2,0 -0.3,-0.4 -0.2,-1.3 0,-1.8 0.3,-0.1 0.8,-0.1 1.2,-0.1 0.1,-0.6 0,-1.4 0.1,-2 0.3,-0.1 1.6,-0.2 2.1,0.1 z"
   class="st0" />
			<path
   id="path32"
   d="m 406.1,176.9 c -0.4,0.2 -1.4,0.2 -1.8,0 -0.1,-0.2 -0.1,-0.5 -0.1,-0.8 -0.9,1.2 -3.7,1.6 -5,0.3 -0.7,-0.7 -1,-2.3 -0.3,-3.3 0.8,-1.3 2.6,-1.4 4.8,-1.4 0.4,-1.7 -0.7,-2.2 -2.3,-1.9 -0.8,0.1 -1.6,0.7 -2.2,0.7 -0.3,-0.3 -0.4,-1.1 -0.2,-1.5 0.4,-0.8 2.4,-1.1 3.4,-1.1 2.1,0 3.4,0.7 3.6,2.6 0.4,2 0.1,4.2 0.1,6.4 z m -4.9,-3.3 c -0.8,0.9 0.1,2.1 1.4,1.9 0.4,-0.1 1.2,-0.5 1.3,-1 0.1,-0.4 -0.1,-0.8 0,-1.3 -1.3,0 -2.2,-0.2 -2.7,0.4 z"
   class="st0" />
			<path
   id="path34"
   d="m 158.3,169.3 c 0.7,-0.5 1.3,-1.3 2.4,-1.4 4.5,-0.6 3.4,5.1 3.4,9 -0.5,0.3 -1.8,0.3 -2.2,0 -0.2,-1.5 0.1,-3.7 0,-5.3 -0.1,-0.7 -0.3,-1.4 -0.8,-1.6 -1.1,-0.4 -1.8,0.6 -2.2,1.2 0,1.9 0.1,3.8 0,5.6 -0.5,0.3 -1.8,0.3 -2.2,0 -0.2,-1.4 0.1,-3.6 0,-5.2 0,-0.7 -0.3,-1.5 -0.8,-1.6 -1.1,-0.4 -1.8,0.6 -2.2,1.2 0,1.9 0.1,3.8 0,5.6 -0.5,0.3 -1.8,0.3 -2.2,0 -0.1,-2.8 -0.1,-5.8 0,-8.6 0.5,-0.3 1.4,-0.2 1.9,0 0.1,0.2 0.1,0.7 0.1,1 0.6,-0.4 1.3,-1.2 2.3,-1.3 1,-0.2 2,0.4 2.5,1.4 z"
   class="st0" />
			<path
   id="path36"
   d="m 168.9,176.1 c -0.1,1.3 0.1,2.8 -0.1,4 -0.5,0.3 -1.7,0.3 -2.2,0 -0.1,-3.9 -0.1,-8.1 0,-11.9 0.4,-0.3 1.4,-0.2 1.9,0 0.2,0.2 0.1,0.7 0.1,1.1 0.9,-0.7 1.7,-1.6 3.5,-1.4 3.5,0.4 3.6,6.6 1.5,8.5 -1.2,1.1 -3.6,1 -4.7,-0.3 z m 2.3,-1 c 1.8,-0.5 1.8,-5.7 -0.7,-5.2 -0.5,0.1 -1.4,0.8 -1.6,1.3 -0.2,0.8 0,1.6 0,2.7 0.6,0.6 1.1,1.6 2.3,1.2 z"
   class="st0" />
			<path
   id="path38"
   d="m 214.5,176.8 c -0.5,0.3 -1.8,0.3 -2.2,0 -0.5,-1.8 0.8,-6.3 -0.9,-6.9 -1.1,-0.3 -1.8,0.6 -2.3,1.2 -0.1,1.9 0.1,3.9 -0.1,5.6 -0.5,0.3 -1.8,0.3 -2.2,0 -0.1,-2.8 -0.1,-5.8 0,-8.6 0.5,-0.3 1.4,-0.2 1.9,0 0.1,0.2 0.1,0.7 0.1,1 0.4,-0.2 0.7,-0.6 1.1,-0.9 1.6,-0.9 3.6,-0.4 4.4,0.9 0.8,2 0,5.4 0.2,7.7 z"
   class="st0" />
			<path
   id="path40"
   d="m 242.6,167.9 c 2.1,-0.2 3.7,0.4 4.5,1.6 1.1,1.9 0.7,5.5 -0.9,6.8 -1.6,1.3 -5.1,1.2 -6.4,-0.5 -1.3,-1.6 -1.1,-4.9 -0.1,-6.3 0.6,-0.9 1.6,-1.5 2.9,-1.6 z m -0.1,7.3 c 0.6,0.2 1.3,0.1 1.8,-0.1 1.4,-0.7 1.6,-4.8 -0.3,-5.3 -0.3,-0.1 -0.9,0 -1.1,0 -2.1,0.3 -2.1,4.8 -0.4,5.4 z"
   class="st0" />
			<path
   id="path42"
   d="m 265.2,170.2 c -0.5,0.1 -0.9,-0.2 -1.3,-0.1 -0.7,0.1 -1,0.9 -1.4,1.4 0,1.8 0.1,3.6 0,5.3 -0.4,0.3 -1.8,0.3 -2.3,0 -0.1,-2.8 -0.1,-5.8 0,-8.6 0.5,-0.3 1.4,-0.2 1.9,0 0.1,0.2 0.1,0.7 0.1,1.1 0.4,-0.3 0.9,-1.2 1.8,-1.4 0.5,-0.1 1.2,0 1.4,0.3 0.2,0.3 -0.1,1.6 -0.2,2 z"
   class="st0" />
			<path
   id="path44"
   d="m 273.3,176.1 c -0.1,1.3 0.1,2.8 -0.1,4 -0.5,0.3 -1.7,0.3 -2.2,0 -0.1,-3.9 -0.1,-8.1 0,-11.9 0.4,-0.3 1.4,-0.2 1.9,0 0.2,0.2 0.1,0.7 0.1,1.1 0.9,-0.7 1.7,-1.6 3.5,-1.4 3.5,0.4 3.6,6.6 1.5,8.5 -1.2,1.1 -3.6,1 -4.7,-0.3 z m 2.3,-1 c 1.8,-0.5 1.8,-5.7 -0.7,-5.2 -0.5,0.1 -1.4,0.8 -1.6,1.3 -0.2,0.8 0,1.7 0,2.7 0.6,0.6 1.1,1.6 2.3,1.2 z"
   class="st0" />
			<path
   id="path46"
   d="m 283.2,173.2 c 0,1.7 1,2.3 2.9,2.2 0.8,-0.1 1.6,-0.5 2.3,-0.5 0.3,0.4 0.2,1.2 0,1.5 -0.3,0.5 -1.6,0.7 -2.4,0.8 -3.5,0.3 -5.2,-1.4 -5.2,-4.5 0,-2.6 1.2,-4.5 3.6,-4.8 2.5,-0.3 4.1,0.9 4.5,2.9 0.1,0.6 0.3,1.8 -0.1,2.2 -0.4,0.4 -1.9,0.2 -2.7,0.2 -1.1,0 -2,0 -2.9,0 z m 2.2,-3.7 c -1.4,-0.3 -2.2,0.7 -2.2,2.1 1.1,0 2.3,0 3.4,0 0,-1.1 -0.3,-1.9 -1.2,-2.1 z"
   class="st0" />
			<path
   id="path48"
   d="m 296.1,170.2 c -0.5,0.1 -0.9,-0.2 -1.3,-0.1 -0.7,0.1 -1,0.9 -1.4,1.4 0,1.8 0.1,3.6 0,5.3 -0.4,0.3 -1.8,0.3 -2.3,0 -0.1,-2.8 -0.1,-5.8 0,-8.6 0.5,-0.3 1.4,-0.2 1.9,0 0.1,0.2 0.1,0.7 0.1,1.1 0.4,-0.3 0.9,-1.2 1.8,-1.4 0.5,-0.1 1.2,0 1.4,0.3 0.2,0.3 0,1.6 -0.2,2 z"
   class="st0" />
			<path
   id="path50"
   d="m 306,173.2 c 0,1.7 1,2.3 2.9,2.2 0.8,-0.1 1.6,-0.5 2.3,-0.5 0.3,0.4 0.2,1.2 0,1.5 -0.3,0.5 -1.6,0.7 -2.4,0.8 -3.5,0.3 -5.2,-1.4 -5.2,-4.5 0,-2.6 1.2,-4.5 3.6,-4.8 2.5,-0.3 4.1,0.9 4.5,2.9 0.1,0.6 0.2,1.8 -0.1,2.2 -0.4,0.4 -1.9,0.2 -2.7,0.2 -1.1,0 -2,0 -2.9,0 z m 2.2,-3.7 c -1.4,-0.3 -2.2,0.7 -2.2,2.1 1.1,0 2.3,0 3.4,0 0,-1.1 -0.3,-1.9 -1.2,-2.1 z"
   class="st0" />
			<path
   id="path52"
   d="m 319.7,170.6 c -0.9,-0.2 -1.6,-1.2 -2.8,-0.7 -1.8,0.6 -1.5,4.5 -0.2,5.2 0.5,0.3 1.2,0.2 1.7,0 0.6,-0.2 0.8,-0.6 1.5,-0.7 0.2,0.5 0.3,1.4 0.1,1.9 -0.3,0.5 -1.4,0.9 -2.2,0.9 -1.7,0.2 -2.9,-0.3 -3.7,-1.3 -1.3,-1.7 -1.1,-5.4 0.3,-6.9 0.8,-0.8 1.9,-1.2 3.5,-1.1 0.6,0.1 1.8,0.4 2,0.9 0.2,0.5 0.1,1.5 -0.2,1.8 z"
   class="st0" />
			<path
   id="path54"
   d="m 337.9,170.1 c -0.5,0 -1,-0.5 -1.7,-0.6 -0.9,-0.1 -1.7,0.1 -1.7,0.9 0,1 2.4,1.3 3.1,1.9 1,0.8 1.3,2.9 0.2,4 -0.6,0.6 -1.9,1 -3.4,0.9 -0.6,0 -1.7,-0.2 -2,-0.6 -0.3,-0.4 -0.2,-1.3 0,-1.8 0.8,0.1 1.2,0.6 2,0.7 1,0.1 1.9,-0.1 1.9,-0.9 0,-0.7 -1,-1 -1.6,-1.3 -1.2,-0.5 -2.4,-1.1 -2.4,-2.7 0,-1.9 1.7,-2.8 3.9,-2.7 0.6,0 1.6,0.2 1.8,0.6 0.1,0.4 0.1,1.2 -0.1,1.6 z"
   class="st0" />
			<path
   id="path56"
   d="m 372.1,167.9 c 2.1,-0.2 3.7,0.4 4.5,1.6 1.1,1.9 0.7,5.5 -0.9,6.8 -1.6,1.3 -5.1,1.2 -6.4,-0.5 -1.3,-1.6 -1.1,-4.9 -0.1,-6.3 0.5,-0.9 1.5,-1.5 2.9,-1.6 z m -0.2,7.3 c 0.6,0.2 1.3,0.1 1.8,-0.1 1.4,-0.7 1.6,-4.8 -0.3,-5.3 -0.3,-0.1 -0.9,0 -1.1,0 -2,0.3 -2.1,4.8 -0.4,5.4 z"
   class="st0" />
			<path
   id="path58"
   d="m 224.3,168.1 c 0.2,0.4 0.3,1.4 -0.1,1.7 -0.3,0 -0.7,0 -1,0 0.1,0.2 0.3,0.5 0.3,0.8 0.3,2.6 -2.4,3.9 -4.7,3 -0.2,0.2 -0.3,0.4 -0.3,0.7 0.1,0.6 1.6,0.5 2.6,0.6 1.8,0.1 3.4,0.7 3.2,2.8 -0.2,1.6 -1.8,2.5 -3.5,2.6 -1.7,0.1 -3.5,-0.1 -4.3,-0.9 -0.8,-0.9 -0.4,-2.8 0.7,-3.3 -1.2,-0.5 -0.9,-2.7 0.1,-3.1 -1.6,-2 -0.3,-4.8 2.2,-5 0.6,-0.1 1.2,0.1 1.9,0.1 1,0 2,-0.2 2.9,0 z m -5.4,3.7 c 0.3,0.4 1.1,0.6 1.7,0.4 1,-0.3 1.1,-2.3 0,-2.6 -0.3,-0.1 -0.8,0 -1,0 -0.8,0.2 -1.2,1.4 -0.7,2.2 z m -0.5,6.3 c 0.4,1 3.2,0.8 3.5,-0.3 0.4,-1.5 -1.6,-1.2 -2.8,-1.2 -0.5,0.4 -0.9,0.9 -0.7,1.5 z"
   class="st0" />
			<path
   id="path60"
   d="m 148.5,168.2 c 0.1,2.8 0.1,5.8 0,8.6 -0.5,0.3 -1.8,0.3 -2.2,0 -0.1,-2.8 -0.1,-5.8 0,-8.6 0.5,-0.3 1.6,-0.3 2.2,0 z"
   class="st0" />
			<path
   id="path62"
   d="m 184,168.2 c 0.1,2.8 0.1,5.8 0,8.6 -0.5,0.3 -1.8,0.3 -2.2,0 -0.1,-2.8 -0.1,-5.8 0,-8.6 0.6,-0.3 1.6,-0.3 2.2,0 z"
   class="st0" />
			<path
   id="path64"
   d="m 196.2,174.1 c 0.8,-1.9 1.2,-4.1 2,-5.9 0.4,0 1.9,-0.3 2.2,0.2 0.1,0.3 -0.2,1.1 -0.3,1.6 -1,2.9 -2,5.9 -3,8.8 -0.2,0.4 -0.3,1.2 -0.5,1.4 -0.3,0.3 -2.3,0.5 -2.5,0 -0.2,-0.3 0.4,-1.2 0.5,-1.6 0.2,-0.6 0.3,-1 0.6,-1.5 -0.5,-0.6 -0.8,-1.7 -1.1,-2.6 -0.5,-1.3 -1,-2.6 -1.6,-4 -0.2,-0.4 -0.8,-1.7 -0.6,-2.1 0.1,-0.4 1.8,-0.5 2.2,-0.2 0.2,0.2 0.5,1 0.6,1.4 0.4,1.4 1,3 1.5,4.5 z"
   class="st0" />
			<path
   id="path66"
   d="m 204.1,168.2 c 0.1,2.8 0.1,5.8 0,8.6 -0.5,0.3 -1.8,0.3 -2.2,0 -0.1,-2.8 -0.1,-5.8 0,-8.6 0.6,-0.3 1.7,-0.3 2.2,0 z"
   class="st0" />
			<path
   id="path68"
   d="m 233.7,174.1 c 0.8,-1.9 1.2,-4.1 2,-5.9 0.4,0 1.9,-0.3 2.2,0.2 0.1,0.3 -0.2,1.1 -0.3,1.6 -1,2.9 -2,5.9 -3,8.8 -0.2,0.4 -0.3,1.2 -0.5,1.4 -0.3,0.3 -2.3,0.5 -2.5,0 -0.2,-0.3 0.4,-1.2 0.5,-1.6 0.2,-0.6 0.3,-1 0.6,-1.5 -0.5,-0.6 -0.8,-1.7 -1.1,-2.6 -0.5,-1.3 -1,-2.6 -1.6,-4 -0.2,-0.4 -0.8,-1.7 -0.6,-2.1 0.1,-0.4 1.8,-0.5 2.2,-0.2 0.2,0.2 0.5,1 0.6,1.4 0.4,1.4 1,3 1.5,4.5 z"
   class="st0" />
			<path
   id="path70"
   d="m 351.9,168.2 c 0.1,2.8 0.1,5.8 0,8.6 -0.5,0.3 -1.8,0.3 -2.2,0 -0.1,-2.8 -0.1,-5.8 0,-8.6 0.6,-0.3 1.7,-0.3 2.2,0 z"
   class="st0" />
			<path
   id="path72"
   d="m 386.3,168.2 c 0.1,2.8 0.1,5.8 0,8.6 -0.5,0.3 -1.8,0.3 -2.2,0 -0.1,-2.8 -0.1,-5.8 0,-8.6 0.5,-0.3 1.6,-0.3 2.2,0 z"
   class="st0" />
			<path
   id="path74"
   d="m 412.1,174.1 c 0.8,-1.9 1.2,-4.1 2,-5.9 0.4,0 1.9,-0.3 2.2,0.2 0.1,0.3 -0.2,1.1 -0.3,1.6 -1,2.9 -2,5.9 -3,8.8 -0.2,0.4 -0.3,1.2 -0.5,1.4 -0.3,0.3 -2.3,0.5 -2.5,0 -0.2,-0.3 0.4,-1.2 0.5,-1.6 0.2,-0.6 0.3,-1 0.6,-1.5 -0.5,-0.6 -0.8,-1.7 -1.1,-2.6 -0.5,-1.3 -1,-2.6 -1.6,-4 -0.2,-0.4 -0.8,-1.7 -0.6,-2.1 0.1,-0.4 1.8,-0.5 2.2,-0.2 0.2,0.2 0.5,1 0.6,1.4 0.5,1.4 1.1,3 1.5,4.5 z"
   class="st0" />
			<path
   id="path76"
   d="m 251.9,168.2 c 0.4,1.7 -0.5,4.9 0.3,6.3 0.7,1.3 2.5,0.2 2.9,-0.6 0.1,-1.9 -0.1,-4 0.1,-5.7 0.6,-0.2 1.8,-0.3 2.2,0.1 0.1,2.8 0.1,5.8 0,8.6 -0.4,0.2 -1.5,0.3 -1.9,0 -0.1,-0.3 0,-0.7 0,-1 -0.8,1.1 -3.4,2.1 -5,0.7 -0.8,-0.8 -0.9,-2.1 -0.9,-3.7 0,-1.5 -0.1,-3.2 0.1,-4.6 0.5,-0.4 1.8,-0.4 2.2,-0.1 z"
   class="st0" />
		</g>
	</g>
	<g
   id="LOGO_1_">
		<g
   id="g109">
			<path
   id="path81"
   d="m 444.4,132.6 c 1.3,1.2 2.8,2.2 3.6,4 0.7,1.1 1.5,3.2 1.9,4.3 0.7,1.9 1.1,4.9 0.7,7.4 -0.4,2.8 -1.8,5.7 -2.6,7 -0.6,1 -1.4,1.9 -2.3,2.7 -0.9,0.8 -1.6,1.4 -2.8,2 -1.5,0.8 -3.3,1.3 -5.5,1.5 -1,0.1 -1.8,0.1 -2.8,0 -1.2,-0.1 -2.5,-0.3 -3.5,-0.6 -0.6,-0.2 -0.9,-0.4 -1.4,-0.5 -0.3,-0.1 -1.3,-0.7 -1.5,-0.7 -0.2,0 -0.7,0.6 -1,0.8 -0.6,0.6 -1.7,1.8 -1,2.9 0.3,0.4 0.5,0.8 1.2,1.2 1.3,0.5 2.9,0.3 4.8,0.3 3.8,-0.2 8.3,-0.2 11.9,0 2.7,0.2 4.9,1 6.3,2.5 1,1.1 1.9,2.4 2.2,4.1 0.1,0.6 0.3,1.4 0.4,2.1 0.1,0.9 0,2.5 0,3.1 -0.1,1.4 -0.2,2.6 -0.6,3.7 -0.2,0.7 -0.6,1.6 -0.9,2.2 -2.1,4.1 -7,4.9 -13.1,4.9 -2.5,0 -5.3,0 -7.9,-0.1 -2.9,-0.1 -4.8,-0.4 -6.8,-1.1 -1.2,-0.5 -2.9,-1.5 -3.7,-2.4 -0.4,-0.4 -0.7,-0.7 -0.9,-1.5 -0.2,-0.6 -0.4,-1.1 -0.4,-2 0.1,-1 0.3,-1.5 0.7,-2.1 0.4,-0.6 0.9,-1 1.5,-1.5 0.8,-0.6 1.9,-1.1 2.7,-1.7 -1.8,-1.7 -3.2,-4.3 -3.2,-7.3 0,-0.9 0.2,-1.9 0.5,-2.7 0.4,-1.3 1.1,-2.4 1.8,-3.5 1,-1.4 2.4,-2.6 3.6,-3.7 -1.6,-1.4 -3.1,-3.3 -3.8,-5.6 -0.1,-0.4 -1,-3.1 -1.1,-4.3 -0.1,-1.3 -0.1,-2.7 0,-4.1 0,-0.5 0.3,-1.9 0.8,-3.3 0.3,-0.7 0.4,-1.1 0.7,-1.7 0.3,-0.6 1,-2.1 1.4,-2.7 1,-1.6 2.9,-3.2 3.9,-3.9 2.2,-1.5 3.8,-1.7 6.5,-1.9 2.7,-0.2 5.5,0.2 7.5,1 1.3,-2 2.8,-3.8 4.8,-5.1 0.7,-0.4 1.3,-0.8 2,-1.2 1.4,-0.7 3.1,-1.4 5.5,-1.2 1.5,0.1 2.9,0.5 3.8,1 1.3,0.7 2.6,2.6 2.8,4.4 0.3,3.5 -2.9,5.7 -6.5,4.7 -0.7,-0.2 -1.2,-0.6 -1.7,-1 -0.3,-0.3 -0.8,-0.8 -1.2,-1.1 -1.3,-0.9 -1.8,-1.7 -3.6,-1.8 -0.8,0 -1.8,0.5 -2.3,0.9 -0.6,0.3 -1,0.9 -1.4,1.6 z m -9.5,3 c -1.7,0.9 -1.7,3.2 -1.7,5.8 0,2.8 0,6.1 0,8.9 0,2.8 0,4.8 1.7,5.7 1.5,0.8 3.5,0.1 4.1,-1.6 0.3,-0.9 0.2,-2.7 0.2,-4.3 0,-3.5 0,-5.4 0,-8.8 0,-1.4 0.2,-3.2 -0.2,-4.3 -0.4,-1.1 -1.7,-1.8 -2.8,-1.8 -0.5,0.1 -0.9,0.2 -1.3,0.4 z m -10.5,42.2 c -0.5,0.4 -1.1,1 -1.3,1.5 -0.8,1.7 0.3,3 1.3,3.7 0.9,0.7 2.3,1 3.7,1.3 1.4,0.3 3,0.4 4.6,0.3 3.7,0 7,0.2 9.9,-0.3 2.3,-0.3 4.9,-1 5.6,-2.7 0.7,-1.6 -0.1,-3.1 -1.4,-3.6 -0.5,-0.2 -1.2,-0.2 -1.9,-0.3 -3.7,-0.1 -7.1,0 -10.8,0 -1.5,0 -3,0 -4.3,-0.2 -1.5,-0.2 -2.5,-0.7 -3.7,-1.1 -0.5,0.6 -1.2,1 -1.7,1.4 z"
   class="st0" />
			<path
   id="path83"
   d="m 401.7,127.7 c 0.3,0 0.4,0.1 0.5,0.5 0.2,1.4 0,3.5 0.1,5.3 0.6,-0.3 0.9,-0.7 1.4,-1.1 0.3,-0.2 0.8,-0.6 1.1,-0.8 0.7,-0.4 1.2,-0.8 2.1,-1.1 1.1,-0.4 2.3,-0.7 3.6,-0.7 2.3,-0.1 4.2,0.6 5.8,1.5 1,0.6 2,1.5 2.6,2.5 1.1,2.2 1.3,5.9 1.3,9.2 0,1.6 0,3.4 0,5.2 0,1.8 -0.1,3.6 0,5.1 0.1,2 1.5,3.2 3.9,3.1 0,0.7 0,1.4 0,2.1 -4,0 -8.5,0 -12.7,0 -0.6,0 -1.3,0.1 -1.8,0 -0.5,-0.1 -1,-0.6 -1.1,-0.9 -0.2,-0.5 -0.1,-1.5 -0.1,-2.4 0,-4.1 0,-8.3 0,-12.2 0,-1.6 0.2,-3.3 0,-5 -0.2,-1.9 -2.5,-3.4 -4.4,-2.2 -1.1,0.6 -1.5,1.9 -1.6,3.7 -0.1,2.1 0,4.4 0,6.9 0,2.6 -0.2,4.7 0,6.9 0.2,2.1 1.5,3.2 3.9,3.1 0,0.7 0,1.4 0,2.1 -3.5,0 -7.3,0 -11,0 -1.1,0 -2.6,0.2 -3.6,0 -0.4,-0.1 -0.9,-0.5 -1,-0.8 -0.4,-0.8 -0.1,-2.6 -0.1,-3.6 0,-3.7 0,-9.5 0,-11 0.1,-3 -0.2,-5.1 -1.8,-6.4 -0.9,-0.7 -2.3,-0.7 -2.7,-1.9 -0.2,-0.6 0.9,-0.6 1.4,-0.8 0.5,-0.2 1.1,-0.4 1.6,-0.6 0.8,-0.3 1.5,-0.6 2.2,-0.9 3.5,-1.5 6.1,-2.7 8.8,-4.1 0.6,-0.3 0.9,-0.6 1.4,-0.6 0,-0.1 0.2,-0.1 0.2,-0.1 z"
   class="st0" />
			<path
   id="path85"
   d="m 370.2,130.4 c 3.4,0.1 7.6,-0.1 11.1,0 0.8,0 3,-0.2 3.5,0.2 0.7,0.5 0.4,1.6 0.4,2.7 0,5.2 0,10.3 0,15.4 0,1.9 -0.3,4.6 0.3,5.9 0.5,1.2 1.8,2 3.6,1.9 0,0.7 0,1.4 0,2.1 -3.5,0 -7.4,0 -11.1,0 -1.1,0 -2.6,0.2 -3.6,-0.1 -1.3,-0.4 -1.1,-1.7 -1.1,-3.6 0,-4.9 0,-9.5 0,-14.4 0,-2.6 0.2,-5.2 -0.6,-6.9 -0.8,-1.2 -1.5,-1.3 -2.7,-1.6 0,-0.5 -0.1,-1 0,-1.5 0.2,0 0.1,-0.1 0.2,-0.1 z"
   class="st0" />
			<path
   id="path87"
   d="m 377.7,116.8 c 2.3,-0.4 4.1,0.7 5.1,1.7 1,1 1.9,2.6 1.7,4.8 -0.3,3 -2.9,5.5 -6.5,5.2 -2.9,-0.2 -5,-2.7 -5.3,-5.3 -0.2,-2.2 0.8,-3.7 1.6,-4.6 0.8,-0.8 1.9,-1.5 3.4,-1.8 z"
   class="st0" />
			<path
   id="path89"
   d="m 457.7,146.8 c 2.3,-0.4 4.1,0.7 5.1,1.7 1,1 1.9,2.6 1.7,4.8 -0.3,3 -2.9,5.5 -6.5,5.2 -2.9,-0.2 -5,-2.7 -5.3,-5.3 -0.2,-2.2 0.8,-3.7 1.6,-4.6 0.9,-0.9 2,-1.6 3.4,-1.8 z"
   class="st0" />
			<path
   id="path91"
   d="m 372.2,156.4 c 0,0.7 0,1.4 0,2.1 -3.5,0 -7.4,0 -11.1,0 -1.7,0 -4.1,0.4 -4.6,-0.9 -0.3,-0.8 -0.1,-3 -0.1,-4 0,-8.2 0,-16.3 0,-24.6 0,-1.4 0,-2.6 -0.5,-3.6 -0.7,-1.6 -1.7,-2.7 -3.3,-3.5 -0.4,-0.2 -1.3,0 -1.3,-0.9 0,-0.6 1.4,-0.6 2.1,-0.8 2.2,-0.7 4.2,-1.4 6.2,-2.2 1,-0.4 3.7,-1.5 4,-1.6 0.6,-0.3 1.2,-0.6 1.9,-0.9 0.3,-0.2 0.6,-0.3 0.9,-0.5 0.3,-0.2 0.9,-0.5 1.3,-0.5 0.5,0.1 0.4,1.4 0.4,2.1 0,9 0,18 0,26.9 0,1.7 0.1,3.3 0,4.9 -0.1,1.6 -0.1,3.2 0,4.8 0.4,2.2 1.8,3.4 4.1,3.2 z"
   class="st0" />
			<path
   id="path93"
   d="m 196.4,143 c -5.2,0.1 -10.8,0.1 -16.4,0 0,1.7 0.3,3.3 0.8,4.6 0.3,0.8 0.7,1.7 1.2,2.5 0.8,1.2 1.6,1.9 2.8,2.7 1.3,0.9 3,1.7 4.9,1.9 1.4,0.1 2.9,0.1 3.9,-0.3 0.4,-0.1 0.7,-0.4 1.1,-0.6 0.3,-0.2 0.6,-0.8 1.2,-0.5 0.6,0.2 0.5,1 0.3,1.5 -0.2,0.8 -0.6,1.4 -1.2,2 -0.5,0.5 -1,1 -1.6,1.5 -0.2,0.1 -1,0.8 -1.8,1.2 -0.9,0.5 -2.3,1.2 -3.5,1.5 -0.9,0.3 -3.3,0.8 -5.6,0.5 -2,-0.2 -3,-0.5 -4.1,-0.8 -1.3,-0.5 -2.3,-1 -3.4,-1.8 -0.5,-0.3 -0.8,-0.6 -1.2,-1 -0.5,-0.4 -2.5,-2.9 -3.1,-3.9 -0.3,-0.5 -0.5,-1.2 -0.8,-1.9 -0.2,-0.5 -0.7,-2.1 -0.8,-2.6 -0.3,-1.3 -0.3,-3.6 -0.2,-5.2 0,-0.4 0.2,-1.5 0.3,-1.6 0,-0.3 0.2,-0.7 0.3,-1 0.2,-0.6 0.4,-1.5 0.7,-2.2 0.1,-0.2 0.3,-0.8 0.4,-1 0.5,-1 2.2,-3.6 3.2,-4.6 1.2,-1.3 3.1,-2.4 4.7,-3.1 0.6,-0.3 1.4,-0.5 2,-0.7 1,-0.3 1.8,-0.3 2.2,-0.4 0.7,-0.1 1.5,0 2.2,0 0.7,0 2.2,0.3 3,0.6 0.4,0.1 1,0.3 1.2,0.4 1,0.4 1.7,0.8 2.6,1.5 1.5,1.2 2.2,1.9 3.2,3.6 0.5,0.9 0.7,1.2 1,1.9 0.4,1.1 0.7,2.2 0.7,3.7 -0.1,0.5 0,1.1 -0.2,1.6 z M 186,140 c 2.2,-0.9 1.5,-5.3 -0.2,-6.7 -0.3,-0.2 -0.7,-0.5 -1,-0.6 -0.8,-0.3 -1.9,-0.1 -2.5,0.2 -2.3,1 -2.4,4.3 -2.5,7.5 2.4,0.1 4.6,0.3 6.2,-0.4 z"
   class="st0" />
			<path
   id="path95"
   d="m 327.2,143 c -5.2,0.1 -10.8,0.1 -16.4,0 0,1.7 0.3,3.3 0.8,4.6 0.3,0.8 0.7,1.7 1.2,2.5 0.8,1.2 1.6,1.9 2.8,2.7 1.3,0.9 3,1.7 4.9,1.9 1.4,0.1 2.9,0.1 3.9,-0.3 0.4,-0.1 0.7,-0.4 1.1,-0.6 0.3,-0.2 0.6,-0.8 1.2,-0.5 0.6,0.2 0.5,1 0.3,1.5 -0.2,0.8 -0.6,1.4 -1.2,2 -0.5,0.5 -1,1 -1.6,1.5 -0.2,0.1 -1,0.8 -1.8,1.2 -0.9,0.5 -2.3,1.2 -3.5,1.5 -0.9,0.3 -3.3,0.8 -5.6,0.5 -2,-0.2 -3,-0.5 -4.1,-0.8 -1.3,-0.5 -2.3,-1 -3.4,-1.8 -0.5,-0.3 -0.8,-0.6 -1.2,-1 -0.5,-0.4 -2.5,-2.9 -3.1,-3.9 -0.3,-0.5 -0.5,-1.2 -0.8,-1.9 -0.2,-0.5 -0.7,-2.1 -0.8,-2.6 -0.3,-1.3 -0.3,-3.6 -0.2,-5.2 0,-0.4 0.2,-1.5 0.3,-1.6 0,-0.3 0.2,-0.7 0.3,-1 0.2,-0.6 0.4,-1.5 0.7,-2.2 0.1,-0.2 0.3,-0.8 0.4,-1 0.5,-1 2.2,-3.6 3.2,-4.6 1.2,-1.3 3.1,-2.4 4.7,-3.1 0.6,-0.3 1.4,-0.5 2,-0.7 1,-0.3 1.8,-0.3 2.2,-0.4 0.7,-0.1 1.5,0 2.2,0 0.7,0 2.2,0.3 3,0.6 0.4,0.1 1,0.3 1.2,0.4 1,0.4 1.7,0.8 2.6,1.5 1.5,1.2 2.2,1.9 3.2,3.6 0.5,0.9 0.7,1.2 1,1.9 0.4,1.1 0.7,2.2 0.7,3.7 0,0.5 0,1.1 -0.2,1.6 z m -10.4,-3 c 2.2,-0.9 1.5,-5.3 -0.2,-6.7 -0.3,-0.2 -0.7,-0.5 -1,-0.6 -0.8,-0.3 -1.9,-0.1 -2.5,0.2 -2.3,1 -2.4,4.3 -2.5,7.5 2.5,0.1 4.7,0.3 6.2,-0.4 z"
   class="st0" />
			<path
   id="path97"
   d="m 316.7,126.2 c -0.6,0.3 -1.1,0.5 -1.8,0.8 -0.3,-0.7 -0.6,-1.1 -1,-1.9 -0.1,-0.3 -0.3,-0.6 -0.4,-0.8 -0.1,-0.2 -0.3,-0.5 -0.5,-0.8 -0.9,-1.7 -2.9,-3.6 -3.5,-4 -0.4,-0.3 -0.7,-0.5 -1.3,-0.8 -0.4,-0.2 -0.9,-0.5 -1.8,-0.6 -0.7,-0.1 -1.8,0 -2.6,0 -2.4,0 -4.7,0 -7.2,0 -0.1,4 0,8.2 0,12.2 2,0 4,0 5.9,0 0,1 0,2 0,3.1 -2,0 -4,0 -5.9,0 0,4.8 0,10.3 0,15.2 0,1.7 -0.1,3.5 0,5 0.2,1.8 1.7,2.9 3.9,2.8 0,0.7 0,1.4 0,2.1 -6.5,0 -13.1,0 -19.6,0 0,-0.7 0,-1.4 0,-2.1 2.1,0.1 3.7,-0.9 3.9,-2.8 0.1,-1.3 0,-2.8 0,-4.3 0,-8.3 0,-17.2 0,-25.6 0,-1.6 0.2,-4.1 -0.3,-5.2 -0.5,-1.2 -1.8,-1.9 -3.6,-1.8 0,-0.7 0,-1.4 0,-2.1 8.6,0 17.8,0 26.5,0 1.2,0 2.6,0.1 3.7,0 0.6,-0.1 1.2,-0.3 1.9,-0.5 0.2,-0.1 0.5,-0.2 0.6,-0.2 0.7,0 0.7,0.7 0.8,1.4 0.8,3.6 1.5,7.5 2.3,10.9 z"
   class="st0" />
			<path
   id="path99"
   d="m 245.5,114.6 c 0.4,0.2 0.3,0.9 0.3,1.4 0,7.9 0,16.1 0,24 2.7,-1.4 5.8,-3.3 8.6,-5.1 0.4,-0.3 1.2,-0.5 1.2,-0.9 0.1,-0.9 -1.2,-0.5 -1.7,-0.6 0,-1 0,-2.1 0,-3.1 3.5,0 7.1,0 10.6,0 0,0.9 0,2.1 0,3.1 -0.5,0 -1.1,0 -1.6,0 -2.5,1.5 -5,3.1 -7.5,4.7 2.1,3.8 4.2,8.2 6.5,12.1 0.8,1.3 1.4,2.7 2.2,4 0.3,0.5 0.8,1 1.2,1.3 0.9,0.6 2.3,0.8 3.4,1 0.1,0.6 0.1,1.3 0.1,1.9 -6.2,0 -12.4,0 -18.6,0 0,-0.7 -0.1,-1.4 0,-2.1 0.8,0.1 1.3,-0.3 1.4,-0.9 0.1,-0.6 -0.3,-1.2 -0.6,-1.7 -1.7,-3.3 -3.7,-7 -5.3,-10.2 0,3.5 0,6.9 0,10.6 0,0.9 0.2,2.6 -0.1,3.4 -0.5,1.3 -2.9,0.9 -4.8,0.9 -3.5,0 -7.4,0 -10.9,0 0,-0.7 0,-1.4 0,-2.1 1.8,0.1 3.2,-0.6 3.7,-1.9 0.5,-1.3 0.3,-3.8 0.3,-5.6 0,-5.2 0,-10.9 0,-16.5 0,-2.8 0.3,-5.7 -0.7,-7.5 -0.8,-1.4 -1.7,-2.4 -3.2,-3 -0.4,-0.2 -1.1,-0.1 -1.1,-0.8 0,-0.5 1.1,-0.5 1.7,-0.7 1.3,-0.3 2.5,-0.8 3.8,-1.2 1.3,-0.4 2.5,-0.9 3.7,-1.4 1.5,-0.6 3,-1.2 4.4,-1.9 0.8,-0.4 1.7,-0.8 2.5,-1.2 0.1,0 0.3,-0.1 0.5,0 z"
   class="st0" />
			<path
   id="path101"
   d="m 214.5,156.9 c -0.3,0.4 -0.6,0.7 -1.1,1.2 -0.9,1.1 -2.2,1.7 -2.9,2.1 -0.2,0.1 -1.1,0.5 -1.6,0.7 -0.3,0.1 -0.5,0.2 -0.7,0.3 -2.7,0.9 -6.8,0.3 -8.6,-1 -1.8,-1.4 -3.1,-3.7 -2.8,-7.1 0.1,-1 0.8,-2.8 1.3,-3.6 0.6,-0.9 1.2,-1.4 1.6,-1.7 0.3,-0.3 1.2,-0.9 1.5,-1.1 0.4,-0.3 2.9,-1.7 3.9,-2.1 1,-0.5 2,-0.9 3,-1.4 1.9,-0.9 3.9,-1.7 5.8,-2.6 -0.1,-1.7 0.1,-3.5 -0.1,-5 -0.3,-1.8 -1.7,-3 -3.7,-2.8 -1.6,0.2 -2.8,1.5 -2.6,3.5 0.1,1.5 0.3,2.7 -0.3,4.4 -0.5,1.1 -0.7,1.4 -1.5,1.9 -0.5,0.4 -0.7,0.5 -1.4,0.7 -0.5,0.2 -1,0.4 -1.9,0.2 -1.7,-0.2 -3,-1.4 -3.4,-2.9 -0.3,-1.1 0,-2.5 0.3,-3.3 0.3,-0.9 0.5,-1.6 1.3,-2.6 0.5,-0.6 0.8,-0.9 1.2,-1.2 0.8,-0.7 1.4,-1.1 2.5,-1.7 1,-0.6 2.2,-1 3.2,-1.2 0.4,-0.1 0.8,-0.1 1.1,-0.2 0.8,-0.2 1.8,-0.2 2.6,-0.3 0.8,-0.1 1.7,0 2.5,0.1 2.5,0.2 4.9,0.7 6.6,1.6 0.9,0.5 1.3,0.6 2,1.2 0.4,0.3 0.9,0.7 1.2,1.1 0.6,0.7 1,1.2 1.5,2.3 0.6,1.6 0.6,3.1 0.7,5 0.1,3.3 0,8 0,11.5 0,1.3 -0.4,3.8 1.6,3.9 0.3,0 0.6,-0.2 0.9,-0.2 0.8,0.1 1.1,1.3 0.2,2.1 -1.3,1.4 -2.9,2.3 -4.9,2.8 -1.7,0.4 -3.5,0.2 -4.9,-0.3 -1.6,-0.9 -3.3,-2.7 -4.1,-4.3 z m -1.8,-12.8 c -0.2,0.2 -0.6,0.5 -0.9,0.6 -1.8,1.5 -2.8,5.1 -2.4,8.4 0.1,1.1 0.7,2.1 1.5,2.5 1,0.4 2.1,-0.1 2.5,-0.7 0.9,-1.4 0.6,-4.2 0.6,-6.5 0,-1.7 0,-3.5 -0.1,-5.1 0,0 0,-0.1 0,0 -0.5,0.3 -0.8,0.4 -1.2,0.8 z"
   class="st0" />
			<path
   id="path103"
   d="m 355.5,143 c -5.2,0.1 -10.8,0.1 -16.4,0 0,1.7 0.3,3.3 0.8,4.6 0.3,0.8 0.7,1.7 1.2,2.5 0.8,1.2 1.6,1.9 2.8,2.7 1.3,0.9 3,1.7 4.9,1.9 1.4,0.1 2.9,0.1 3.9,-0.3 0.4,-0.1 0.7,-0.4 1.1,-0.6 0.3,-0.2 0.6,-0.8 1.2,-0.5 0.6,0.2 0.5,1 0.3,1.5 -0.2,0.8 -0.6,1.4 -1.2,2 -0.5,0.5 -1,1 -1.6,1.5 -0.2,0.1 -1,0.8 -1.8,1.2 -0.9,0.5 -2.3,1.2 -3.5,1.5 -0.9,0.3 -3.3,0.8 -5.6,0.5 -2,-0.2 -3,-0.5 -4.1,-0.8 -1.3,-0.5 -2.3,-1 -3.4,-1.8 -0.5,-0.3 -0.8,-0.6 -1.2,-1 -0.5,-0.4 -2.5,-2.9 -3.1,-3.9 -0.3,-0.5 -0.5,-1.2 -0.8,-1.9 -0.2,-0.5 -0.7,-2.1 -0.8,-2.6 -0.3,-1.3 -0.3,-3.6 -0.2,-5.2 0,-0.4 0.2,-1.5 0.3,-1.6 0,-0.3 0.2,-0.7 0.3,-1 0.2,-0.6 0.4,-1.5 0.7,-2.2 0.1,-0.2 0.3,-0.8 0.4,-1 0.5,-1 2.2,-3.6 3.2,-4.6 1.2,-1.3 3.1,-2.4 4.7,-3.1 0.6,-0.3 1.4,-0.5 2,-0.7 1,-0.3 1.8,-0.3 2.2,-0.4 0.7,-0.1 1.5,0 2.2,0 0.7,0 2.2,0.3 3,0.6 0.4,0.1 1,0.3 1.2,0.4 1,0.4 1.7,0.8 2.6,1.5 1.5,1.2 2.2,1.9 3.2,3.6 0.5,0.9 0.7,1.2 1,1.9 0.4,1.1 0.7,2.2 0.7,3.7 -0.1,0.5 0,1.1 -0.2,1.6 z m -10.4,-3 c 2.2,-0.9 1.5,-5.3 -0.2,-6.7 -0.3,-0.2 -0.7,-0.5 -1,-0.6 -0.8,-0.3 -1.9,-0.1 -2.5,0.2 -2.3,1 -2.4,4.3 -2.5,7.5 2.4,0.1 4.7,0.3 6.2,-0.4 z"
   class="st0" />
			<path
   id="path105"
   d="m 136.8,114.7 c 6.3,0 13.8,0 20.5,0 1.4,0 2.9,-0.1 4.1,0 2.4,0.2 4.4,1 6,2.2 0.3,0.2 0.6,0.4 0.8,0.7 0.8,0.7 1.4,1.3 2.1,2.5 0.4,0.8 0.6,1.2 0.8,1.8 0.3,0.7 0.4,1.4 0.6,2.1 0.2,0.7 0.3,1.3 0.4,1.9 0.2,1.2 0.2,2.4 0.2,3.7 0,0.9 -0.1,2.2 -0.4,3.2 -0.3,1.1 -0.5,1.9 -0.8,2.8 -0.2,0.4 -0.6,1.5 -0.9,1.9 -0.2,0.3 -0.4,0.6 -0.7,0.9 -1.9,2.3 -4.6,4.3 -8.6,4.5 -2.6,0.1 -5.5,0 -8.6,0 0,1.5 0,3.4 0,5.3 0,1.9 -0.1,3.9 0,5.3 0.2,1.8 1.7,2.9 3.9,2.8 0,0.7 0,1.4 0,2.1 -6.5,0 -13.1,0 -19.6,0 0,-0.7 0,-1.4 0,-2.1 2,0.1 3.7,-0.8 3.9,-2.7 0.2,-1.3 0,-2.8 0,-4.3 0,-8.4 0,-17.1 0,-25.6 0,-1.7 0.2,-4.1 -0.4,-5.3 -0.6,-1.1 -1.7,-1.8 -3.5,-1.7 0,-0.7 0,-1.3 0,-2 0.2,0.1 0.2,0 0.2,0 z m 15.7,2.8 c -0.1,7.3 -0.1,15.4 0,22.8 2.3,0.1 4,-0.5 5.3,-1.6 2.4,-1.9 2.7,-5.7 2.7,-10 0,-4.4 -0.3,-8.2 -2.8,-10 -1.3,-1 -2.8,-1.6 -5.1,-1.5 -0.1,0.2 -0.1,0.3 -0.1,0.3 z"
   class="st0" />
			<path
   id="path107"
   d="M 358.2,124.5"
   class="st0" />
		</g>
	</g>
</g>
</svg>
